<svg width="150" height="55" viewBox="0 0 150 55" fill="none" xmlns="http://www.w3.org/2000/svg">
<path fill-rule="evenodd" clip-rule="evenodd" d="M61.3626 0.258391C56.8402 0.759316 52.4461 2.64879 49.4109 5.39787C48.1435 6.54627 47.75 7.11893 47.8997 7.59984C48.2415 8.70052 49.1579 8.33754 51.695 6.09706C55.3567 2.8637 59.569 1.51732 64.8787 1.88309C70.3795 2.2621 73.9727 4.64848 75.2744 8.78765C76.2265 11.8144 75.1608 15.4764 72.7569 17.4382C71.7398 18.2683 71.4054 18.3698 70.222 18.2079C69.472 18.1057 68.8584 17.8474 68.8584 17.634C68.8584 16.8452 70.3569 11.0851 71.283 8.31351C71.8088 6.73992 72.1373 5.36647 72.0128 5.26178C71.5609 4.88125 69.9539 5.79411 68.8822 7.03981C67.4191 8.74024 66.4641 10.977 65.527 14.8973C64.7744 18.0466 64.6969 18.1904 62.9652 19.6485C61.983 20.4752 61.1797 21.3705 61.1797 21.6381C61.1797 22.2998 62.057 22.5334 62.9794 22.1177C63.6212 21.8283 63.7393 21.8635 63.7393 22.3436C63.7393 24.6002 60.0251 32.6824 58.8071 33.0759C58.5394 33.1623 57.7971 33.0054 57.1576 32.7268C56.518 32.4482 55.7627 32.2955 55.4792 32.3869C54.6357 32.6596 54.892 33.7072 55.9692 34.3906L56.9748 35.0282L56.0606 35.6427C54.8039 36.4871 52.3127 37.2659 51.2665 37.1405C48.9374 36.8623 49.121 34.0758 51.9229 27.1848C53.9241 22.2634 54.1172 21.5038 53.4572 21.1519C52.7669 20.7837 51.0359 20.8037 50.7572 21.1829C50.0812 22.1045 47.2554 32.976 47.1972 34.8819C47.115 37.57 47.4086 38.3016 48.8179 38.9148C50.8563 39.8026 55.6606 38.7648 58.7876 36.7619C59.7179 36.1657 60.4766 36.0239 63.4255 35.8952C66.3394 35.7676 67.3542 35.5813 69.2759 34.8204C73.4147 33.1818 76.1597 30.1046 76.9005 26.2728C77.3737 23.8255 76.8146 22.0685 75.0715 20.5257L73.7138 19.324L75.2087 18.3983C78.1068 16.6039 79.4568 14.1919 79.4601 10.8018C79.466 5.42896 74.5764 1.08875 67.5787 0.254697C64.725 -0.0855122 64.4665 -0.0855122 61.3626 0.258391ZM130.862 0.937888C130.789 1.14971 130.536 2.30859 130.301 3.51331L129.873 5.70359L127.65 5.89941C126.428 6.00685 120.782 6.09491 115.104 6.09491C106.214 6.09491 104.716 6.16141 104.31 6.57367C103.916 6.973 103.962 7.1568 104.588 7.68328C105.314 8.29473 105.693 8.31291 116.866 8.26764C123.898 8.23931 128.48 8.3366 128.612 8.51672C128.892 8.89849 126.129 17.651 124.906 20.2575C123.646 22.9412 120.308 28.5432 119.417 29.4684C118.925 29.9798 118.497 30.1466 118.049 30.0016C116.948 29.6461 117.46 25.8114 119.289 20.7193C120.139 18.3486 121.07 16.102 121.357 15.727C122.37 14.4003 121.855 13.4755 120.111 13.4887C118.947 13.4979 118.559 14.0075 117.867 16.4336C117.064 19.2486 113.899 26.4354 112.525 28.5592C112.011 29.3561 111.182 30.3769 110.686 30.8283C108.775 32.5632 108.533 31.6969 109.644 27.0898C110.131 25.0661 111.04 22.2508 111.664 20.8333C113.094 17.5823 113.3 16.6725 112.734 16.0983C112.172 15.5278 110.768 15.5013 110.227 16.0506C110.004 16.2769 109.001 18.142 107.999 20.1953C103.598 29.2104 100.819 32.7097 100.066 30.1868C99.5584 28.489 100.995 24.1153 104.2 17.6002C104.294 17.4087 103.899 17.1137 103.323 16.9444C102.532 16.7119 102.163 16.3221 101.818 15.3545C101.329 13.9801 100.435 13.4841 98.4477 13.4841C97.5361 13.4841 97.1638 13.7556 96.0321 15.2455C95.296 16.2141 93.8412 18.7428 92.7987 20.8643C89.5977 27.3801 87.0631 31.1039 85.3923 31.7447C84.5946 32.051 84.3937 31.9862 83.6245 31.1768C83.1473 30.6746 82.756 30.0082 82.7549 29.6956C82.7538 29.3831 83.7322 27.8948 84.9287 26.3883C88.3563 22.074 90.4248 18.0552 90.4295 15.7024C90.4325 14.3917 89.0474 13.1762 87.5516 13.1762C85.257 13.1762 82.7111 17.1223 80.9081 23.4733C79.4744 28.5237 79.6404 31.2113 81.4821 32.7622C82.1772 33.3471 82.7395 33.4964 84.2513 33.4964C86.0403 33.4964 86.2527 33.4086 87.9769 31.957C88.9824 31.1103 89.8428 30.4177 89.8889 30.4177C89.9349 30.4177 90.0781 30.9736 90.2072 31.6534C90.5298 33.3504 91.6297 34.2338 93.111 33.9844C94.3264 33.7797 96.5041 32.2074 96.8526 31.2831C97.1704 30.4404 97.8728 30.6128 98.4286 31.6701C99.0736 32.8969 100.381 33.3312 101.696 32.7554C102.238 32.5179 103.422 31.3489 104.326 30.1574C105.231 28.9657 106.116 27.9825 106.293 27.9728C106.47 27.9625 106.507 28.5173 106.376 29.2052C106.078 30.7772 106.695 32.7727 107.606 33.1832C109.477 34.0266 111.39 33.2368 113.148 30.896L114.527 29.0604L115.3 30.5796C116.118 32.187 116.547 32.5605 117.58 32.5682C118.488 32.5746 120.884 30.6623 122.306 28.7954C123.242 27.5673 123.544 27.3434 123.631 27.8111C124.304 31.4213 125.399 33.1886 126.962 33.1886C127.828 33.1886 129.372 31.8871 130.797 29.9557L131.933 28.4164L132.166 30.1097C132.47 32.3237 132.763 32.869 133.835 33.2122C135.531 33.7551 136.541 33.5389 137.918 32.3379C138.648 31.7008 139.442 30.9041 139.682 30.5676C140.092 29.9911 140.119 30.0034 140.139 30.7803C140.171 32.0102 139.411 36.3924 139.127 36.6143C138.992 36.7202 134.109 37.0405 128.277 37.3255C100.975 38.6602 75.8281 41.1584 56.5176 44.4543C55.0857 44.6986 54.9893 45.3003 56.1521 46.7377C57.476 48.3751 57.8805 48.4705 60.884 47.8542C69.1018 46.1679 83.9718 43.9246 99.7558 41.9896C111.478 40.553 132.397 38.3675 133.315 38.4835C133.859 38.5525 133.301 38.9887 131.163 40.1649C125.754 43.1411 123.381 45.7334 123.069 49.0068C122.846 51.344 123.544 52.8309 125.435 54.0452C128.03 55.7117 133.606 54.767 136.368 52.1932C138.674 50.0442 140.778 45.4089 141.432 41.0396C141.855 38.217 141.855 38.216 143.624 37.8409C144.572 37.6399 146.138 37.5783 147.321 37.6957C148.884 37.8503 149.451 37.7959 149.698 37.4678C150.148 36.8691 150.116 36.6892 149.458 36.1353C148.774 35.5595 146.324 35.4989 143.965 35.9989C143.064 36.1901 142.238 36.2724 142.13 36.1817C141.861 35.9545 142.929 29.9396 144.193 24.5679C144.872 21.6842 145.773 19.0137 146.739 17.0247C148.451 13.4955 148.518 12.4548 147.038 12.3107C145.405 12.1522 144.79 13.0694 142.934 18.4289C141.194 23.4537 137.653 30.4232 136.399 31.2908C134.249 32.7787 134.78 28.5983 137.934 19.2036C139.221 15.3699 139.292 14.7701 138.486 14.51C137.279 14.1199 136.087 15.3963 134.985 18.2597C133.744 21.4841 129.555 28.8135 128.488 29.6261C126.504 31.1377 126.144 29.0411 127.358 23.051C128.078 19.4982 130.622 11.1854 131.581 9.25317L132.079 8.2501H137.095C144.199 8.2501 147.839 7.61678 147.839 6.38094C147.839 6.21438 144.782 6.09491 140.526 6.09491C136.504 6.09491 133.213 5.9733 133.213 5.8246C133.213 5.6759 133.441 5.08721 133.72 4.5161C134.81 2.28179 134.793 1.66818 133.624 1.08629C132.368 0.461594 131.052 0.39109 130.862 0.937888ZM53.5646 12.965C51.9174 14.4416 53.007 16.8708 55.3165 16.8708C56.6175 16.8708 57.2381 16.0709 57.292 14.3234C57.3539 12.3394 55.1564 11.5386 53.5646 12.965ZM87.6842 18.009C86.8813 20.3344 84.004 25.4915 83.5093 25.4915C82.9589 25.4915 83.0021 25.2569 84.053 22.529C85.1305 19.7308 87.1288 15.896 87.6789 15.5703C88.3169 15.1925 88.3191 16.1704 87.6842 18.009ZM99.7248 16.6399C100.283 18.9739 100.228 19.4327 99.006 22.6272C97.6307 26.2227 94.6709 31.2553 93.621 31.7838C91.0648 33.07 92.704 25.9992 96.4889 19.4109C98.4625 15.9755 99.3781 15.1913 99.7248 16.6399ZM70.6903 22.3434C73.269 24.5145 73.4889 27.3838 71.3116 30.441C69.7466 32.639 67.3977 33.8743 64.4425 34.0543C63.2511 34.127 62.2767 34.098 62.2767 33.9906C62.2767 33.8831 62.7594 33.0696 63.3491 32.1833C64.701 30.1515 65.9522 27.3284 67.0308 23.8751C68.0202 20.707 68.5055 20.5038 70.6903 22.3434ZM138.835 40.3467C137.926 45.3573 135.536 49.8823 132.905 51.572C130.214 53.3004 127.505 53.3022 126.256 51.5762C124.377 48.9821 126.578 45.1599 131.815 41.9232C133.353 40.9728 137.965 39.0713 138.793 39.0466C138.947 39.042 138.965 39.6269 138.835 40.3467Z" fill="#1181B2"/>
<path fill-rule="evenodd" clip-rule="evenodd" d="M61.3626 0.258391C56.8402 0.759316 52.4461 2.64879 49.4109 5.39787C48.1435 6.54627 47.75 7.11893 47.8997 7.59984C48.2415 8.70052 49.1579 8.33754 51.695 6.09706C55.3567 2.8637 59.569 1.51732 64.8787 1.88309C70.3795 2.2621 73.9727 4.64848 75.2744 8.78765C76.2265 11.8144 75.1608 15.4764 72.7569 17.4382C71.7398 18.2683 71.4054 18.3698 70.222 18.2079C69.472 18.1057 68.8584 17.8474 68.8584 17.634C68.8584 16.8452 70.3569 11.0851 71.283 8.31351C71.8088 6.73992 72.1373 5.36647 72.0128 5.26178C71.5609 4.88125 69.9539 5.79411 68.8822 7.03981C67.4191 8.74024 66.4641 10.977 65.527 14.8973C64.7744 18.0466 64.6969 18.1904 62.9652 19.6485C61.983 20.4752 61.1797 21.3705 61.1797 21.6381C61.1797 22.2998 62.057 22.5334 62.9794 22.1177C63.6212 21.8283 63.7393 21.8635 63.7393 22.3436C63.7393 24.6002 60.0251 32.6824 58.8071 33.0759C58.5394 33.1623 57.7971 33.0054 57.1576 32.7268C56.518 32.4482 55.7627 32.2955 55.4792 32.3869C54.6357 32.6596 54.892 33.7072 55.9692 34.3906L56.9748 35.0282L56.0606 35.6427C54.8039 36.4871 52.3127 37.2659 51.2665 37.1405C48.9374 36.8623 49.121 34.0758 51.9229 27.1848C53.9241 22.2634 54.1172 21.5038 53.4572 21.1519C52.7669 20.7837 51.0359 20.8037 50.7572 21.1829C50.0812 22.1045 47.2554 32.976 47.1972 34.8819C47.115 37.57 47.4086 38.3016 48.8179 38.9148C50.8563 39.8026 55.6606 38.7648 58.7876 36.7619C59.7179 36.1657 60.4766 36.0239 63.4255 35.8952C66.3394 35.7676 67.3541 35.5813 69.2759 34.8204C73.4147 33.1818 76.1597 30.1046 76.9005 26.2728C77.3737 23.8255 76.8146 22.0685 75.0715 20.5257L73.7138 19.324L75.2087 18.3983C78.1068 16.6039 79.4568 14.1919 79.4601 10.8018C79.466 5.42896 74.5764 1.08875 67.5787 0.254697C64.725 -0.0855122 64.4665 -0.0855122 61.3626 0.258391ZM130.862 0.937888C130.789 1.14971 130.536 2.30859 130.301 3.51331L129.873 5.70359L127.65 5.89941C126.428 6.00685 120.782 6.09491 115.104 6.09491C106.214 6.09491 104.716 6.16141 104.31 6.57367C103.916 6.973 103.962 7.1568 104.588 7.68328C105.314 8.29473 105.693 8.3129 116.866 8.26764C123.898 8.23931 128.48 8.3366 128.612 8.51672C128.892 8.89849 126.129 17.651 124.906 20.2575C123.646 22.9412 120.308 28.5432 119.417 29.4684C118.925 29.9798 118.497 30.1466 118.049 30.0016C116.948 29.6461 117.46 25.8114 119.289 20.7193C120.139 18.3486 121.07 16.102 121.357 15.727C122.37 14.4003 121.855 13.4755 120.111 13.4887C118.947 13.4979 118.559 14.0075 117.867 16.4336C117.064 19.2486 113.899 26.4354 112.525 28.5592C112.011 29.3561 111.182 30.3769 110.686 30.8283C108.775 32.5632 108.533 31.6969 109.644 27.0898C110.131 25.0661 111.04 22.2508 111.664 20.8333C113.094 17.5823 113.3 16.6725 112.734 16.0983C112.172 15.5278 110.768 15.5013 110.227 16.0506C110.004 16.2769 109.001 18.142 107.999 20.1953C103.598 29.2104 100.819 32.7097 100.066 30.1868C99.5584 28.489 100.995 24.1153 104.2 17.6002C104.294 17.4087 103.899 17.1137 103.323 16.9444C102.532 16.7119 102.163 16.3221 101.818 15.3545C101.329 13.9801 100.435 13.4841 98.4477 13.4841C97.5361 13.4841 97.1638 13.7556 96.0321 15.2455C95.296 16.2141 93.8412 18.7428 92.7987 20.8643C89.5977 27.3801 87.0631 31.1039 85.3923 31.7447C84.5946 32.051 84.3937 31.9862 83.6245 31.1768C83.1473 30.6746 82.756 30.0082 82.7549 29.6956C82.7538 29.3831 83.7322 27.8948 84.9287 26.3883C88.3563 22.074 90.4248 18.0552 90.4295 15.7024C90.4325 14.3917 89.0474 13.1762 87.5516 13.1762C85.257 13.1762 82.7111 17.1223 80.9081 23.4733C79.4744 28.5237 79.6404 31.2113 81.4821 32.7622C82.1772 33.3471 82.7395 33.4964 84.2513 33.4964C86.0403 33.4964 86.2527 33.4086 87.9769 31.957C88.9824 31.1103 89.8428 30.4177 89.8889 30.4177C89.9349 30.4177 90.0781 30.9736 90.2072 31.6534C90.5298 33.3504 91.6297 34.2338 93.111 33.9844C94.3264 33.7797 96.5041 32.2074 96.8526 31.2831C97.1704 30.4404 97.8728 30.6128 98.4286 31.6701C99.0736 32.8969 100.381 33.3312 101.696 32.7554C102.238 32.5179 103.422 31.3489 104.326 30.1574C105.231 28.9657 106.116 27.9825 106.293 27.9728C106.47 27.9625 106.507 28.5173 106.376 29.2052C106.078 30.7772 106.695 32.7727 107.606 33.1832C109.477 34.0266 111.39 33.2368 113.148 30.896L114.527 29.0604L115.3 30.5796C116.118 32.187 116.547 32.5605 117.58 32.5682C118.488 32.5746 120.884 30.6623 122.306 28.7954C123.242 27.5673 123.544 27.3434 123.631 27.8111C124.304 31.4213 125.399 33.1886 126.962 33.1886C127.828 33.1886 129.372 31.8871 130.797 29.9557L131.933 28.4164L132.166 30.1097C132.47 32.3237 132.763 32.869 133.835 33.2122C135.531 33.7551 136.541 33.5389 137.918 32.3379C138.648 31.7008 139.442 30.9041 139.682 30.5676C140.092 29.9911 140.119 30.0034 140.139 30.7803C140.171 32.0102 139.411 36.3924 139.127 36.6143C138.992 36.7202 134.109 37.0405 128.277 37.3255C100.975 38.6602 75.8281 41.1584 56.5176 44.4543C55.0857 44.6986 54.9893 45.3003 56.1521 46.7377C57.476 48.3751 57.8805 48.4705 60.884 47.8542C69.1018 46.1679 83.9718 43.9246 99.7558 41.9896C111.478 40.553 132.397 38.3675 133.315 38.4835C133.859 38.5525 133.301 38.9887 131.163 40.1649C125.754 43.1411 123.381 45.7334 123.069 49.0068C122.846 51.344 123.544 52.8309 125.435 54.0452C128.03 55.7117 133.606 54.767 136.368 52.1932C138.674 50.0442 140.778 45.4089 141.432 41.0396C141.855 38.217 141.855 38.216 143.624 37.8409C144.572 37.6399 146.138 37.5782 147.321 37.6957C148.884 37.8503 149.451 37.7959 149.698 37.4678C150.148 36.8691 150.116 36.6892 149.458 36.1353C148.774 35.5595 146.324 35.4989 143.965 35.9989C143.064 36.1901 142.238 36.2724 142.13 36.1817C141.861 35.9545 142.929 29.9396 144.193 24.5679C144.872 21.6842 145.773 19.0137 146.739 17.0247C148.451 13.4955 148.518 12.4548 147.038 12.3107C145.405 12.1522 144.79 13.0694 142.934 18.4289C141.194 23.4537 137.653 30.4232 136.399 31.2908C134.249 32.7787 134.78 28.5983 137.934 19.2036C139.221 15.3699 139.292 14.7701 138.486 14.51C137.279 14.1199 136.087 15.3963 134.985 18.2597C133.744 21.4841 129.555 28.8135 128.488 29.6261C126.504 31.1377 126.144 29.0411 127.358 23.051C128.078 19.4982 130.622 11.1854 131.581 9.25317L132.079 8.2501H137.095C144.199 8.2501 147.839 7.61678 147.839 6.38094C147.839 6.21438 144.782 6.09491 140.526 6.09491C136.504 6.09491 133.213 5.9733 133.213 5.8246C133.213 5.6759 133.441 5.08721 133.72 4.5161C134.81 2.28179 134.793 1.66818 133.624 1.08629C132.368 0.461594 131.052 0.39109 130.862 0.937888ZM53.5646 12.965C51.9174 14.4416 53.007 16.8708 55.3165 16.8708C56.6175 16.8708 57.2381 16.0709 57.292 14.3234C57.3539 12.3394 55.1564 11.5386 53.5646 12.965ZM87.6842 18.009C86.8813 20.3344 84.004 25.4915 83.5093 25.4915C82.9589 25.4915 83.0021 25.2569 84.053 22.529C85.1305 19.7308 87.1288 15.896 87.6789 15.5703C88.3169 15.1925 88.3191 16.1704 87.6842 18.009ZM99.7248 16.6399C100.283 18.9739 100.228 19.4327 99.006 22.6272C97.6307 26.2227 94.6709 31.2553 93.621 31.7838C91.0648 33.07 92.704 25.9992 96.4889 19.4109C98.4625 15.9755 99.3781 15.1913 99.7248 16.6399ZM70.6903 22.3434C73.269 24.5145 73.4889 27.3838 71.3116 30.441C69.7466 32.639 67.3977 33.8743 64.4425 34.0543C63.2511 34.127 62.2767 34.098 62.2767 33.9906C62.2767 33.8831 62.7594 33.0696 63.3491 32.1833C64.701 30.1515 65.9522 27.3284 67.0308 23.8751C68.0202 20.707 68.5055 20.5038 70.6903 22.3434ZM138.835 40.3467C137.926 45.3573 135.536 49.8823 132.905 51.572C130.214 53.3004 127.505 53.3022 126.256 51.5762C124.377 48.9821 126.578 45.1599 131.815 41.9232C133.353 40.9728 137.965 39.0713 138.793 39.0466C138.947 39.042 138.965 39.6269 138.835 40.3467Z" fill="url(#paint0_linear)"/>
<path fill-rule="evenodd" clip-rule="evenodd" d="M17.9756 4.29567C16.9146 4.39056 15.4874 4.69736 14.5639 5.02914L13.7896 5.30724L14.5639 5.26644C15.4726 5.21856 17.3722 5.33154 18.4759 5.49908C25.5356 6.57103 30.8354 10.8989 32.0372 16.5737C32.2794 17.7173 32.2799 19.781 32.0385 20.921C31.8275 21.9169 31.5509 22.7687 31.1627 23.6181C30.9966 23.9815 30.8714 24.29 30.8846 24.3033C30.9474 24.3671 32.4609 23.602 33.0744 23.1961C33.866 22.6729 34.9021 21.6856 35.4011 20.9792C36.3852 19.5859 36.8748 17.6831 36.676 16.024C36.4039 13.7516 35.1951 11.4925 33.213 9.55165C31.8123 8.18014 30.463 7.2395 28.5817 6.32282C25.2136 4.68187 21.53 3.9778 17.9756 4.29567ZM14.138 7.23383C7.92354 8.01691 2.57855 12.3048 0.694698 18.0183C-0.580967 21.8871 -0.0886182 25.8206 2.07977 29.0846C2.75515 30.1014 4.2013 31.5448 5.26452 32.2635C7.55972 33.815 10.3716 34.6488 13.2365 34.6273C14.0245 34.6212 14.042 34.6409 12.8209 34.1657C9.82566 33.0004 7.16106 30.3598 5.79224 27.2008C4.356 23.8861 4.18722 20.1736 5.31429 16.6882C6.28197 13.6957 8.2276 11.0804 10.7727 9.351C12.4698 8.19783 14.2704 7.51248 16.4221 7.20081C17.2276 7.08413 15.0797 7.11519 14.138 7.23383ZM17.8545 9.99933C13.5882 10.4628 9.94342 13.8507 8.77808 18.4361C8.47178 19.6414 8.39383 21.5111 8.59746 22.7689C9.13827 26.1096 11.2144 28.9701 14.2103 30.5021C14.52 30.6605 14.7896 30.7737 14.8094 30.7535C14.8292 30.7333 14.721 30.5513 14.5689 30.349C12.1317 27.1066 11.8666 22.1808 13.9044 18.0037C15.4904 14.7526 18.2387 12.4995 21.342 11.9062C22.0197 11.7766 23.5814 11.7911 24.2227 11.9328C24.51 11.9965 24.7454 12.0384 24.7454 12.0263C24.7454 11.9756 23.5083 11.2048 23.0552 10.9731C21.5704 10.2137 19.4815 9.82268 17.8545 9.99933ZM23.3904 13.6848C25.034 14.9415 25.3623 16.9252 24.2267 18.7384C23.1736 20.4201 21.1491 21.5004 19.0476 21.5019C17.2389 21.5032 15.8124 20.7488 15.0764 19.4019L14.828 18.9472L14.8766 19.3796C15.0888 21.2655 16.1491 22.9827 17.789 24.0968C18.9487 24.8843 19.869 25.1604 21.2998 25.1495C22.4882 25.1407 23.2505 24.9482 24.3969 24.3671C26.0165 23.5463 27.1685 22.0294 27.6182 20.1265C27.8311 19.2251 27.8508 17.8487 27.6611 17.0995C27.3354 15.8119 26.4984 14.648 25.516 14.1162C24.9991 13.8365 24.0171 13.5603 23.5522 13.564C23.2531 13.5663 23.2441 13.573 23.3904 13.6848ZM35.252 24.6085C34.7708 26.9829 33.4546 29.4796 31.6739 31.3967C26.4193 37.0535 16.974 38.908 8.36062 35.9739C7.5224 35.6883 7.19473 35.5599 6.04705 35.0667L5.73734 34.9336L6.2019 35.4193C7.39217 36.6637 9.0631 37.8932 10.7518 38.7668C13.5734 40.2269 16.4359 40.9265 19.5966 40.9289C22.5676 40.9311 24.9486 40.4053 27.4166 39.2013C29.1845 38.3388 30.4349 37.4415 31.7524 36.0901C34.2843 33.4927 35.6673 30.1168 35.6609 26.5499C35.6596 25.8329 35.4863 24.0492 35.4105 23.9723C35.3971 23.9586 35.3256 24.2449 35.252 24.6085ZM29.1371 26.0247C27.6957 27.4093 25.9812 28.3651 23.9712 28.9057C22.7824 29.2254 20.926 29.3065 19.7447 29.0905C17.8548 28.7449 16.3396 27.9461 15.1977 26.6938L14.7574 26.211V26.4554C14.7574 26.8357 14.9845 27.758 15.2224 28.3437C16.3137 31.031 19.2576 32.6583 22.3452 32.2804C23.8528 32.0961 25.2593 31.5282 26.4242 30.6337C27.8234 29.5592 29.093 27.7516 29.6662 26.0175C29.7755 25.6871 29.854 25.4069 29.8408 25.3944C29.8276 25.3821 29.5109 25.6657 29.1371 26.0247Z" fill="#1181B2"/>
<path fill-rule="evenodd" clip-rule="evenodd" d="M17.9756 4.29567C16.9146 4.39056 15.4874 4.69736 14.5639 5.02914L13.7896 5.30724L14.5639 5.26644C15.4726 5.21856 17.3722 5.33154 18.4759 5.49908C25.5356 6.57103 30.8354 10.8989 32.0372 16.5737C32.2794 17.7173 32.2799 19.781 32.0385 20.921C31.8275 21.9169 31.5509 22.7687 31.1627 23.6181C30.9966 23.9815 30.8714 24.29 30.8846 24.3033C30.9474 24.3671 32.4609 23.6019 33.0744 23.1961C33.866 22.6729 34.9021 21.6856 35.4011 20.9792C36.3852 19.5859 36.8748 17.6831 36.676 16.024C36.4039 13.7516 35.1951 11.4925 33.213 9.55165C31.8123 8.18014 30.463 7.2395 28.5817 6.32282C25.2136 4.68187 21.53 3.9778 17.9756 4.29567ZM14.138 7.23383C7.92354 8.01691 2.57855 12.3048 0.694698 18.0183C-0.580967 21.8871 -0.0886183 25.8206 2.07977 29.0846C2.75515 30.1014 4.2013 31.5448 5.26452 32.2635C7.55972 33.815 10.3716 34.6488 13.2365 34.6273C14.0245 34.6212 14.042 34.6409 12.8209 34.1657C9.82566 33.0004 7.16106 30.3598 5.79224 27.2008C4.356 23.8861 4.18722 20.1736 5.3143 16.6882C6.28197 13.6957 8.2276 11.0804 10.7727 9.351C12.4698 8.19783 14.2704 7.51248 16.4221 7.20081C17.2276 7.08413 15.0797 7.11519 14.138 7.23383ZM17.8545 9.99933C13.5882 10.4628 9.94342 13.8507 8.77808 18.4361C8.47178 19.6414 8.39383 21.5111 8.59746 22.7689C9.13827 26.1096 11.2144 28.9701 14.2103 30.5021C14.52 30.6605 14.7896 30.7737 14.8094 30.7535C14.8292 30.7333 14.721 30.5513 14.5689 30.349C12.1317 27.1066 11.8666 22.1808 13.9044 18.0037C15.4904 14.7526 18.2387 12.4995 21.342 11.9062C22.0197 11.7766 23.5814 11.7911 24.2227 11.9328C24.51 11.9965 24.7454 12.0384 24.7454 12.0263C24.7454 11.9756 23.5083 11.2048 23.0552 10.9731C21.5704 10.2137 19.4815 9.82268 17.8545 9.99933ZM23.3904 13.6848C25.034 14.9415 25.3623 16.9252 24.2267 18.7384C23.1736 20.4201 21.1491 21.5004 19.0476 21.5019C17.2389 21.5032 15.8124 20.7488 15.0764 19.4019L14.828 18.9472L14.8766 19.3796C15.0888 21.2655 16.1491 22.9827 17.789 24.0968C18.9487 24.8843 19.869 25.1604 21.2998 25.1495C22.4882 25.1407 23.2505 24.9482 24.3969 24.3671C26.0165 23.5463 27.1685 22.0294 27.6182 20.1265C27.8311 19.2251 27.8508 17.8487 27.6611 17.0995C27.3354 15.8119 26.4984 14.648 25.516 14.1162C24.9991 13.8365 24.0171 13.5603 23.5522 13.564C23.2531 13.5663 23.2441 13.573 23.3904 13.6848ZM35.252 24.6085C34.7708 26.9829 33.4546 29.4796 31.6739 31.3967C26.4193 37.0535 16.974 38.908 8.36062 35.9739C7.5224 35.6883 7.19473 35.5599 6.04705 35.0667L5.73734 34.9336L6.2019 35.4193C7.39217 36.6637 9.0631 37.8932 10.7518 38.7668C13.5734 40.2269 16.4359 40.9265 19.5966 40.9289C22.5676 40.9311 24.9486 40.4053 27.4166 39.2013C29.1845 38.3388 30.4349 37.4415 31.7524 36.0901C34.2843 33.4927 35.6673 30.1168 35.6609 26.5499C35.6596 25.8329 35.4863 24.0492 35.4105 23.9723C35.3971 23.9586 35.3256 24.2449 35.252 24.6085ZM29.1371 26.0247C27.6957 27.4093 25.9812 28.3651 23.9712 28.9057C22.7824 29.2254 20.926 29.3065 19.7447 29.0905C17.8548 28.7449 16.3396 27.9461 15.1977 26.6938L14.7574 26.211V26.4554C14.7574 26.8357 14.9845 27.758 15.2224 28.3437C16.3137 31.031 19.2576 32.6583 22.3452 32.2804C23.8527 32.0961 25.2593 31.5282 26.4242 30.6337C27.8234 29.5592 29.093 27.7516 29.6662 26.0175C29.7755 25.6871 29.854 25.4069 29.8408 25.3944C29.8276 25.3821 29.5109 25.6657 29.1371 26.0247Z" fill="url(#paint1_linear)"/>
<defs>
<linearGradient id="paint0_linear" x1="18.3596" y1="4.22139" x2="18.3596" y2="40.9291" gradientUnits="userSpaceOnUse">
<stop stop-color="#1181B2"/>
<stop offset="0.359375" stop-color="#A47BD8"/>
<stop offset="1" stop-color="white" stop-opacity="0"/>
</linearGradient>
<linearGradient id="paint1_linear" x1="18.3598" y1="4.22119" x2="18.3598" y2="40.9289" gradientUnits="userSpaceOnUse">
<stop stop-color="#FD6C57"/>
<stop offset="0.359375" stop-color="#FD6C57"/>
<stop offset="1" stop-color="white" stop-opacity="0"/>
</linearGradient>
</defs>
</svg>
