<svg width="12" height="12" viewBox="0 0 12 12" fill="none" xmlns="http://www.w3.org/2000/svg">
<path fill-rule="evenodd" clip-rule="evenodd" d="M8.58386 1.12496H3.90418C2.27339 1.12496 1.25098 2.19446 1.25098 3.70796V7.79196C1.25098 9.30546 2.26853 10.375 3.90418 10.375H8.58332C10.2195 10.375 11.2376 9.30546 11.2376 7.79196V3.70796C11.2376 2.19446 10.2195 1.12496 8.58386 1.12496Z" stroke="#1181B2" stroke-width="1.5" stroke-linecap="round" stroke-linejoin="round"/>
<path fill-rule="evenodd" clip-rule="evenodd" d="M5.53659 5.74993C5.53659 6.26143 5.08909 6.67593 4.53685 6.67593C3.98462 6.67593 3.53711 6.26143 3.53711 5.74993C3.53711 5.23843 3.98462 4.82393 4.53685 4.82393H4.53847C5.08963 4.82443 5.53659 5.23893 5.53659 5.74993Z" stroke="#1181B2" stroke-width="1.5" stroke-linecap="round" stroke-linejoin="round"/>
<path d="M5.53809 5.75H8.94865V6.676" stroke="#1181B2" stroke-width="1.5" stroke-linecap="round" stroke-linejoin="round"/>
<path d="M7.42188 6.67607V5.75007" stroke="#1181B2" stroke-width="1.5" stroke-linecap="round" stroke-linejoin="round"/>
</svg>
