<svg width="24" height="24" viewBox="0 0 24 24" fill="none" xmlns="http://www.w3.org/2000/svg">
<path d="M2 7C2 6.44772 2.44772 6 3 6H21C21.5523 6 22 6.44772 22 7C22 7.55228 21.5523 8 21 8H3C2.44772 8 2 7.55228 2 7Z" fill="#1181B2"/>
<path d="M2 12C2 11.4477 2.44772 11 3 11H15C15.5523 11 16 11.4477 16 12C16 12.5523 15.5523 13 15 13H3C2.44772 13 2 12.5523 2 12Z" fill="#1181B2"/>
<path d="M3 16C2.44772 16 2 16.4477 2 17C2 17.5523 2.44772 18 3 18H7C7.55228 18 8 17.5523 8 17C8 16.4477 7.55228 16 7 16H3Z" fill="#1181B2"/>
</svg>
