<svg width="24" height="24" viewBox="0 0 24 24" fill="none" xmlns="http://www.w3.org/2000/svg">
<path d="M17.2929 18.7071C17.6834 19.0976 18.3166 19.0976 18.7071 18.7071C19.0976 18.3166 19.0976 17.6834 18.7071 17.2929L13.4142 12L18.7071 6.70711C19.0976 6.31658 19.0976 5.68342 18.7071 5.29289C18.3166 4.90237 17.6834 4.90237 17.2929 5.29289L11.2929 11.2929C10.9024 11.6834 10.9024 12.3166 11.2929 12.7071L17.2929 18.7071Z" fill="#1181B2" fill-opacity="0.5"/>
<path d="M11.2929 18.7071C11.6834 19.0976 12.3166 19.0976 12.7071 18.7071C13.0976 18.3166 13.0976 17.6834 12.7071 17.2929L7.41421 12L12.7071 6.70711C13.0976 6.31658 13.0976 5.68342 12.7071 5.29289C12.3166 4.90237 11.6834 4.90237 11.2929 5.29289L5.29289 11.2929C4.90237 11.6834 4.90237 12.3166 5.29289 12.7071L11.2929 18.7071Z" fill="#1181B2" fill-opacity="0.5"/>
</svg>
