<svg width="24" height="24" viewBox="0 0 24 24" fill="none" xmlns="http://www.w3.org/2000/svg">
<path d="M17.9241 3.38278C17.8753 3.50073 17.803 3.61123 17.7071 3.70711L4.20711 17.2071C3.81658 17.5976 3.18342 17.5976 2.79289 17.2071C2.40237 16.8166 2.40237 16.1834 2.79289 15.7929L14.5858 4H11.75C11.1977 4 10.75 3.55228 10.75 3C10.75 2.44772 11.1977 2 11.75 2H16.9998C17.1354 2 17.2649 2.02699 17.3828 2.07588C17.5007 2.12468 17.6112 2.19702 17.7071 2.29289C17.9016 2.48739 17.9992 2.74208 18 2.997C18 2.998 18 2.999 18 3C18 3.001 18 3.002 18 3.003C17.9996 3.1375 17.9727 3.26575 17.9241 3.38278Z" fill="#1181B2"/>
<path d="M21.5 5.48535C21.5 4.93307 21.0523 4.48535 20.5 4.48535C19.9477 4.48535 19.5 4.93307 19.5 5.48535V21.0417C19.5 21.5939 19.9477 22.0417 20.5 22.0417C21.0523 22.0417 21.5 21.5939 21.5 21.0417V5.48535Z" fill="#1181B2"/>
<path d="M16.5 8.48047C17.0523 8.48047 17.5 8.92818 17.5 9.48047V21.0437C17.5 21.596 17.0523 22.0437 16.5 22.0437C15.9477 22.0437 15.5 21.596 15.5 21.0437V9.48047C15.5 8.92818 15.9477 8.48047 16.5 8.48047Z" fill="#1181B2"/>
<path d="M13.5 13.5C13.5 12.9477 13.0523 12.5 12.5 12.5C11.9477 12.5 11.5 12.9477 11.5 13.5V21.0357C11.5 21.588 11.9477 22.0357 12.5 22.0357C13.0523 22.0357 13.5 21.588 13.5 21.0357V13.5Z" fill="#1181B2"/>
<path d="M8.5 15.9751C9.05228 15.9751 9.5 16.4228 9.5 16.9751V21.0551C9.5 21.6074 9.05228 22.0551 8.5 22.0551C7.94772 22.0551 7.5 21.6074 7.5 21.0551V16.9751C7.5 16.4228 7.94772 15.9751 8.5 15.9751Z" fill="#1181B2"/>
<path d="M4.5 19C5.05228 19 5.5 19.4477 5.5 20V21.0278C5.5 21.5801 5.05228 22.0278 4.5 22.0278C3.94772 22.0278 3.5 21.5801 3.5 21.0278V20C3.5 19.4477 3.94772 19 4.5 19Z" fill="#1181B2"/>
</svg>
