<svg width="560" height="659" viewBox="0 0 560 659" fill="none" xmlns="http://www.w3.org/2000/svg">
<path d="M309.183 1.1747C314.599 3.32813 318.322 7.63498 320.353 13.8144C322.13 19.7129 321.961 24.1133 319.507 29.4501C315.107 39.1873 304.614 42.7452 296.491 37.2212L293.783 35.3487L292.344 38.4384C289.89 43.6815 290.398 52.3888 293.614 60.9089C296.575 68.7736 313.584 99.8578 314.43 98.9216C314.599 98.7343 314.176 96.3 313.499 93.4912C310.876 82.1623 312.737 71.2079 318.576 63.8113C326.023 54.355 337.361 53.5124 342.015 62.0324C343.708 65.1221 344.131 70.5525 342.777 72.8932C342.269 73.8295 342.1 73.2677 342.439 70.8334C343.116 66.5265 340.915 62.2197 337.192 60.2535C330.507 56.6957 323.23 60.2535 319.338 68.8672C317.222 73.6422 316.968 75.3275 316.968 83.1922C316.968 90.2142 317.391 93.3039 318.915 97.798L320.861 103.509L328.9 107.91C333.384 110.344 339.985 115.119 343.708 118.396L350.477 124.482L355.301 119.613C357.924 116.898 362.578 113.434 365.624 111.842C370.617 109.221 371.886 108.94 379.586 108.94C386.44 108.94 388.81 109.314 391.94 110.906C400.825 115.494 406.495 124.295 406.495 133.564C406.495 137.683 407.003 139.649 409.372 143.956C410.895 146.859 413.011 151.634 413.941 154.536C415.549 159.311 416.48 160.435 422.657 165.584L429.511 171.295L429.934 165.678C430.273 161.465 430.95 159.124 432.896 156.128C436.619 150.229 440.765 148.263 448.973 148.263C454.812 148.263 456.335 148.638 460.143 150.978C466.236 154.723 471.228 163.244 471.397 170.172C471.397 172.044 471.736 172.325 473.767 171.764C478.928 170.359 490.606 170.078 495.26 171.108C506.345 173.73 515.23 181.314 520.222 192.455C523.269 199.477 523.946 211.555 521.746 219.326C519.122 228.408 512.691 234.962 503.722 237.677C501.691 238.239 500.168 238.988 500.337 239.363C500.506 239.737 502.368 243.014 504.568 246.665C510.407 256.309 512.268 263.425 511.761 273.256C511.507 278.78 510.83 282.618 509.476 285.895C506.345 293.573 506.26 293.573 502.199 287.393C498.645 282.244 491.029 274.66 490.183 275.596C490.014 275.784 491.283 278.031 493.144 280.465C505.837 297.505 514.976 321.848 517.515 345.536C518.192 351.715 518.615 351.903 525.3 349.468C531.731 347.128 535.623 342.165 537.315 334.394C537.992 331.024 538.077 331.211 538.162 336.829C538.331 347.128 534.354 353.401 526.146 356.116C524.199 356.771 522.592 357.614 522.676 358.082C522.676 358.55 528.938 364.261 536.638 370.815C550.77 382.987 555.17 387.387 555.17 389.728C555.17 390.477 553.308 394.222 550.939 398.061C546.539 405.364 546.116 406.955 547.639 410.045C548.316 411.543 549.077 411.824 550.939 411.356C552.885 410.888 553.901 411.262 555.593 413.135C556.778 414.446 557.708 416.412 557.708 417.629C557.708 420.906 554.747 425.494 550.939 428.302C549.077 429.707 547.554 430.83 547.554 430.924C547.554 431.018 548.823 430.924 550.262 430.83C551.87 430.643 554.324 431.205 555.931 432.141C561.432 435.231 561.178 441.972 555.508 445.717C552.97 447.402 552.547 448.058 553.054 450.118C553.393 451.428 554.662 454.424 556.016 456.765C561.093 465.847 561.347 472.214 556.608 477.082C551.616 482.325 552.208 482.138 510.745 487.662C494.921 489.722 479.69 491.875 476.898 492.437C466.659 494.403 459.72 499.646 455.658 508.541C453.797 512.567 440.258 549.643 426.888 587.375L421.895 601.419L421.303 595.24C420.119 581.945 411.91 570.522 393.971 557.508C380.686 547.771 377.301 544.681 373.832 538.876C370.701 533.539 368.163 526.143 368.163 522.304C368.163 520.9 367.909 519.495 367.57 519.215C367.316 518.84 364.016 524.926 360.378 532.79C337.785 581.289 308.253 613.497 278.636 622.017C271.359 624.077 270.174 623.328 276.605 620.707C295.391 612.935 314.345 590.559 328.561 559.381C335.246 544.775 335.161 545.43 328.9 548.52C317.984 554.044 310.791 555.448 294.967 555.448C278.805 555.448 272.628 554.231 257.481 547.958C239.204 540.374 230.742 535.225 197.656 511.537C172.609 493.561 164.062 488.13 153.062 482.981C139.015 476.52 127.507 475.865 118.368 480.921C111.853 484.572 108.806 489.816 108.806 497.212C108.806 502.455 108.976 503.017 112.022 506.013C114.645 508.728 115.745 509.196 119.13 509.196C124.038 509.103 125.899 507.698 127.423 502.923L128.607 499.366L128.692 503.111C128.692 510.882 123.445 515.75 114.984 515.75C100.091 515.75 92.3058 497.212 101.783 484.479C110.33 472.963 126.069 470.528 146.123 477.738C152.216 479.891 164.909 486.258 182.932 496.182C219.742 516.499 231.419 521.462 254.351 526.517C278.044 531.761 304.36 531.386 317.815 525.581L321.199 524.177L317.391 524.645C297.675 527.454 280.667 526.892 260.443 522.772C241.235 518.84 228.203 514.065 211.195 504.515C188.433 491.782 165.586 471.652 145.616 446.747C139.946 439.631 133.515 432.235 131.4 430.362C121.584 421.561 108.806 420.625 102.46 428.209C100.683 430.269 100.345 431.579 100.345 436.167C100.345 440.661 100.683 442.066 102.375 444.032C104.829 446.934 109.23 448.432 112.699 447.683C117.776 446.56 120.907 439.163 118.453 434.107C116.93 430.924 118.368 431.111 120.145 434.388C122.43 438.508 122.345 442.627 119.976 446.56C117.353 450.96 113.207 453.02 107.283 453.02C99.2445 453.02 94.0828 449.088 91.6289 440.942C89.0057 432.516 92.3058 424.089 100.598 418.284L104.322 415.663L101.022 414.914C99.2445 414.539 92.0519 414.165 85.1132 414.165C74.3666 414.165 71.405 414.539 65.9048 416.318L59.3892 418.472L50.7581 414.539C42.8039 410.888 42.0423 410.232 40.8577 407.049C39.673 403.678 39.1653 403.304 24.1032 396.376C15.5567 392.35 8.53334 388.792 8.53334 388.324C8.53334 387.575 14.0335 376.62 29.4341 347.034C33.4112 339.356 36.8806 333.364 37.1344 333.552C37.4729 333.739 44.0732 338.139 51.7735 343.289C65.4817 352.464 65.9894 352.745 68.951 351.809C71.9127 350.873 72.505 351.154 80.2053 356.397L88.3287 361.921L90.6134 369.504C95.1828 384.578 103.645 396.937 116.845 407.704C120.738 410.981 124.122 413.509 124.292 413.322C124.461 413.135 122.938 410.045 120.992 406.581C116.676 398.81 105.506 373.999 101.529 363.606C100.006 359.486 98.483 355.835 98.2291 355.46C97.9753 355.086 94.0828 353.775 89.6826 352.464C85.1978 351.247 79.8669 349.281 77.836 348.157C60.5738 338.42 50.1657 321.38 48.6426 300.408C47.9656 292.075 47.0348 290.67 38.996 285.334C33.4112 281.682 24.9494 278.873 19.5338 278.873C14.4566 278.873 9.97182 280.839 6.67169 284.491C3.87927 287.487 3.45619 288.61 3.45619 292.168C3.45619 297.318 5.65632 300.782 9.88725 302.28C11.5796 302.935 14.0336 303.123 15.3875 302.842C16.826 302.561 17.7568 302.655 17.5029 303.123C16.4875 304.902 10.7334 304.995 7.17943 303.31C-0.60549 299.471 -2.21325 289.453 3.71006 281.963C7.60251 277.001 11.9181 275.128 19.6184 275.128C27.6572 275.128 34.9343 277.469 42.3808 282.525C45.4271 284.491 47.9656 286.083 48.1349 285.989C48.2195 285.802 48.8964 283.18 49.5734 280.184C51.3504 272.507 56.8506 260.616 61.0815 255.092C64.6355 250.691 64.7201 250.411 64.7201 243.389C64.8047 237.958 65.3124 235.243 66.751 231.966C68.6126 227.659 68.6126 227.659 67.0048 223.54C66.1586 221.292 65.1432 217.828 64.8894 215.956L64.297 212.491L68.528 215.675C75.9744 221.199 81.5592 223.071 90.6134 223.071C97.0444 223.071 99.583 222.697 103.475 221.012C116.253 215.3 125.476 201.818 133.346 176.913C138.254 161.465 143.754 156.034 151.116 159.405C154.247 160.903 155.77 163.337 155.77 166.989C155.77 172.419 151.116 176.539 145.869 175.602C141.977 174.853 143.162 176.539 147.477 177.849C156.701 180.565 164.232 174.198 164.232 163.805C164.232 153.506 157.293 146.578 146.885 146.484C135.631 146.297 129.03 153.506 123.953 171.202C117.522 194.047 114.984 200.226 109.822 206.593C105.252 212.023 100.852 214.27 94.3367 214.27C89.1749 214.27 81.3054 212.023 81.3054 210.432C81.3054 209.964 82.7439 209.589 84.5209 209.589C92.5596 209.589 101.106 203.41 104.999 194.983C109.737 184.31 107.368 172.513 99.2445 166.52C95.6059 163.805 94.7597 163.618 88.498 163.805C75.8052 164.086 62.2662 156.783 58.0352 147.514C55.4967 141.897 55.4121 137.496 57.5276 132.253C59.643 127.103 63.5354 124.107 69.0357 123.639C79.1053 122.703 86.2979 132.534 80.6284 139.556C79.9515 140.492 78.6822 141.241 77.836 141.241C76.5667 141.241 76.6513 140.867 78.4283 138.807C80.1207 137.028 80.4592 135.904 80.0361 133.938C77.4976 122.703 61.8431 125.044 61.8431 136.747C61.8431 147.514 68.528 151.446 91.0365 153.881C98.0599 154.63 106.522 155.847 109.991 156.69C113.46 157.439 116.422 158 116.591 157.72C116.761 157.532 115.661 156.502 114.053 155.379C107.453 150.885 100.768 141.147 97.7214 131.504C92.9828 116.898 95.7752 98.0789 104.152 87.5927C112.022 77.5746 127.761 73.4549 138.423 78.5108C152.808 85.252 155.601 103.228 143.331 110.25C139.1 112.591 131.484 110.625 129.538 106.693C128.438 104.352 128.438 100.045 129.538 98.1726C130.215 97.049 130.384 97.1427 130.384 98.828C130.384 104.539 137.915 106.786 141.977 102.292C143.754 100.326 144.092 99.2961 143.669 96.1127C143.077 91.525 140.623 88.4353 135.715 86.3755C128.692 83.3795 120.315 86.4691 115.576 93.7721C113.376 97.2363 113.037 98.6407 112.784 105.288C112.53 111.561 112.784 113.715 114.307 117.647C117.776 126.542 126.661 132.815 136.9 133.564C149.846 134.5 159.07 130.848 181.748 115.681C198.671 104.446 208.403 99.3897 219.657 96.0191C228.626 93.3039 247.243 93.1167 255.62 95.6446C261.882 97.5172 272.12 102.479 273.474 104.352C274.151 105.288 274.913 105.288 276.605 104.633C280.244 103.135 290.144 100.981 293.698 100.981C295.475 100.981 297.168 100.701 297.421 100.232C298.183 98.828 283.375 77.0128 276.944 69.9908C270.09 62.5942 265.182 59.7854 259.343 59.7854H256.635L256.72 64.8413C256.889 74.7658 249.95 81.6941 239.965 81.6005C233.704 81.5069 229.303 79.2598 224.903 73.9231C214.326 61.0025 222.703 43.8687 239.712 43.8687C248.596 43.8687 256.043 47.4265 276.774 61.7515C282.529 65.7775 287.436 68.8672 287.606 68.68C287.775 68.5863 287.098 61.5643 286.167 53.2315C284.052 35.3486 283.882 23.5516 285.659 16.9977C287.521 10.0693 291.329 4.82616 296.491 2.11097C301.483 -0.416966 304.529 -0.604221 309.183 1.1747ZM298.014 8.00948C296.829 9.03938 294.883 11.2864 293.867 13.0653C291.16 17.4658 291.498 25.7986 294.629 29.4501C300.975 37.0339 310.03 36.004 315.445 27.1094C319.507 20.4619 317.138 10.8183 310.622 7.07321C306.983 5.01341 301.229 5.38791 298.014 8.00948ZM230.488 52.2952C222.957 57.3511 223.465 69.2417 231.419 74.6721C235.565 77.5746 242.673 77.5745 246.735 74.7657C254.351 69.6162 253.927 57.6319 246.143 52.2952C242.335 49.7672 234.211 49.7672 230.488 52.2952ZM291.16 77.0128C290.652 77.7618 290.313 79.3535 290.483 80.5706C290.821 83.3795 295.221 84.1285 296.829 81.6942C298.268 79.5407 298.183 78.9789 296.575 77.2C294.967 75.3275 292.514 75.3275 291.16 77.0128ZM228.796 99.0152C226.849 100.045 224.649 101.918 223.888 103.135C220.503 108.94 224.734 117.46 229.896 115.4C232.773 114.37 234.042 112.029 233.28 109.782C232.604 108.097 232.604 108.097 231.927 109.97C230.911 112.778 229.727 113.434 227.696 112.217C225.496 110.906 225.496 107.161 227.696 104.726C228.796 103.509 230.488 102.854 232.773 102.854C240.304 102.854 244.619 112.591 240.219 119.613C235.396 127.572 228.119 128.601 213.31 123.452C201.379 119.332 191.31 118.958 185.048 122.516C182.763 123.826 179.802 126.448 178.448 128.508C175.994 132.253 173.709 138.994 174.64 139.93C174.894 140.211 176.332 139.462 177.771 138.245C180.14 136.372 181.325 136.092 188.602 136.185C195.456 136.185 198.079 136.747 204.849 139.275C224.48 146.578 235.65 144.986 245.212 133.47C249.527 128.227 250.797 124.014 250.373 115.962C249.95 108.003 246.989 102.573 241.235 99.2961C236.665 96.7682 233.45 96.6745 228.796 99.0152ZM316.968 113.153C317.307 113.715 318.238 113.902 319.168 113.621C321.369 112.778 327.546 116.055 331.607 120.175C339.562 128.04 341 140.305 334.315 142.646C332.369 143.301 331.184 147.514 332.454 148.919C333.977 150.604 337.277 148.45 338.8 144.705C341 139.743 340.662 132.253 338.038 126.448C335.5 120.83 332.284 117.46 326.276 114.464C321.961 112.217 315.953 111.374 316.968 113.153ZM370.786 114.932C365.963 116.617 357.501 121.392 358.178 122.048C358.347 122.235 360.208 121.954 362.239 121.486C364.355 120.924 369.855 120.643 374.509 120.924C384.325 121.392 389.148 123.265 397.525 129.725C402.433 133.564 402.856 133.657 402.856 131.785C402.856 128.414 399.302 121.579 395.918 118.677C389.487 113.059 380.263 111.655 370.786 114.932ZM322.892 116.055C329.661 119.8 333.469 125.418 333.469 131.878C333.469 134.406 333.807 135.623 334.654 135.623C337.954 135.623 336.6 127.478 332.454 122.235C329.83 119.051 322.469 114.089 320.438 114.089C319.93 114.183 321.03 115.025 322.892 116.055ZM307.66 114.838C308.168 115.213 309.945 116.804 311.722 118.209C313.837 119.894 315.868 122.89 317.645 127.01C320.099 132.627 320.607 133.283 323.061 133.564C326.361 133.938 328.9 130.474 328.053 126.729C327.123 122.797 322.638 118.022 317.984 116.055C313.668 114.276 306.137 113.34 307.66 114.838ZM290.313 119.239C288.029 120.549 284.306 122.797 282.105 124.388C279.905 125.886 277.113 127.197 275.759 127.197C274.49 127.197 272.713 128.133 271.697 129.257C270.174 131.129 270.005 132.534 270.005 143.114C270.005 155.098 269.243 159.873 266.705 163.15C262.982 168.019 239.119 186.182 223.549 196.013C203.241 208.84 193.425 217.454 187.756 227.285C184.794 232.528 184.54 239.456 187.079 245.448C191.225 255.092 201.295 263.893 208.318 263.893C210.349 263.893 213.734 262.582 217.711 260.241C229.811 253.126 233.111 253.875 243.942 265.859C252.912 275.784 255.958 277.843 268.905 282.899C278.213 286.644 278.805 287.019 279.482 289.828C280.328 293.573 283.882 296.662 287.183 296.662C288.621 296.662 290.483 297.318 291.329 298.254C292.683 299.565 293.19 299.565 294.967 298.535C296.152 297.88 297.083 296.756 297.083 296.101C297.083 295.539 294.714 291.045 291.921 286.27C285.321 275.128 273.982 262.582 259.005 250.13C252.658 244.887 246.65 239.456 245.55 238.239C241.912 234.026 242.165 233.558 270.682 198.541C278.636 188.804 284.729 182.063 286.083 181.688C287.267 181.314 292.26 181.126 297.252 181.22L306.391 181.314L307.153 177.943C308.845 171.108 305.206 161.746 296.068 149.012C290.06 140.867 291.075 140.96 299.368 149.387C308.083 158.469 316.545 172.513 316.545 178.318C316.545 180.377 316.714 180.658 317.815 179.628C318.491 178.973 319.084 177.943 319.084 177.288C319.084 176.632 321.707 172.325 325.007 167.644C328.223 162.963 330.93 158.937 330.93 158.656C330.93 157.064 327.884 158.656 322.892 162.869C319.761 165.491 316.968 167.363 316.714 166.989C316.376 166.614 317.222 165.491 318.491 164.461C320.522 162.869 323.315 158.375 323.315 156.69C323.315 155.66 321.707 156.315 318.153 158.937C313.753 162.307 312.737 161.933 316.461 158.469C319.676 155.472 322.045 150.885 320.607 150.417C319.93 150.136 319.93 149.48 320.692 147.889C321.284 146.765 321.538 145.548 321.284 145.267C320.945 144.799 316.715 146.578 313.584 148.544C313.076 148.825 313.245 148.357 313.922 147.514C314.599 146.578 314.853 145.642 314.599 145.361C314.091 144.705 307.576 148.357 306.814 149.668C306.476 150.229 305.883 150.417 305.46 150.042C305.037 149.761 306.391 147.421 308.506 144.799C310.622 142.177 312.145 139.837 311.976 139.649C311.214 138.807 305.714 141.335 304.276 143.114C302.837 144.893 300.468 145.642 300.468 144.424C300.468 144.144 301.822 142.177 303.429 140.118C306.56 135.998 306.645 134.032 303.599 135.717C301.822 136.841 301.822 136.747 303.175 134.968C304.022 133.938 304.699 132.721 304.699 132.159C304.699 131.597 305.291 130.661 305.968 130.006C306.899 129.163 307.068 128.508 306.476 127.852C305.883 127.197 305.122 127.291 304.276 128.133C303.091 129.257 302.752 129.163 302.16 128.133C301.314 126.542 298.691 127.759 293.444 132.159C290.483 134.687 288.79 134.406 291.583 131.878C293.444 130.193 296.491 125.324 296.068 124.763C295.475 124.201 290.144 127.197 288.029 129.35C286.929 130.38 285.829 131.036 285.575 130.661C285.321 130.38 287.352 127.572 290.229 124.575C294.714 119.707 296.491 116.898 294.967 116.898C294.714 116.898 292.598 117.928 290.313 119.239ZM373.324 135.904C368.924 139.181 366.047 145.454 366.724 150.323C368.755 163.899 386.186 166.333 390.163 153.6C391.264 149.948 391.264 149.574 389.656 147.14C388.64 145.642 386.863 144.144 385.679 143.675C382.632 142.458 379.163 144.237 379.163 147.046C379.163 148.919 379.248 149.012 380.263 147.421C381.871 144.893 385.256 145.829 386.271 149.012C386.948 151.166 386.779 151.915 385.34 153.506C380.263 159.124 371.378 152.289 374.086 144.986C375.694 140.679 378.825 138.432 383.225 138.432C396.256 138.432 399.895 156.502 388.302 163.712C382.717 167.176 376.455 166.52 366.216 161.371C357.585 156.97 348.785 153.413 346.5 153.413C345.569 153.413 345.316 155.098 345.316 160.809V168.206L348.023 168.768C356.655 170.546 365.116 177.849 369.093 186.744C374.171 198.073 372.563 210.244 364.947 218.484C360.124 223.633 355.385 225.787 348.362 225.88C340.492 225.974 335.415 223.446 332.03 217.922C329.915 214.458 329.661 213.053 329.661 206.874C329.661 202.942 330 198.916 330.423 197.886L331.184 196.013L329.238 197.886C325.176 201.818 323.822 210.993 326.023 219.233C327.376 224.195 334.231 232.34 338.8 234.4C355.808 241.89 377.301 232.809 384.748 214.926C386.948 209.683 387.202 208.185 387.202 199.29C387.117 190.77 386.863 188.617 384.917 183.467C383.648 180.096 382.802 177.1 382.971 176.726C383.225 176.351 384.579 175.79 386.102 175.509C392.871 174.011 400.656 164.929 401.672 157.439C402.856 148.544 398.625 138.9 391.771 134.874C386.525 131.785 378.402 132.253 373.324 135.904ZM253.166 134.125C250.543 135.717 246.481 142.552 245.804 146.484C245.55 148.263 244.958 149.387 244.535 149.106C244.112 148.825 243.519 149.199 243.266 150.042C242.927 151.072 242.335 151.166 240.304 150.417C236.919 149.106 227.865 150.885 225.749 153.319C223.888 155.379 224.565 157.532 226.765 156.69C227.611 156.409 229.642 156.877 231.419 157.626C234.296 159.03 234.804 158.937 238.442 157.158C242.25 155.285 242.335 155.285 240.896 157.064C238.611 159.873 239.458 163.056 242.927 164.273C244.45 164.835 246.143 166.24 246.65 167.363C247.75 170.172 249.189 169.797 248.512 166.895C248.173 165.491 248.343 163.899 248.935 163.15C249.696 162.12 249.612 161.371 248.343 159.686C246.989 158 246.989 157.907 248.173 158.937C249.612 160.154 250.035 159.779 249.781 157.626C249.697 157.064 250.204 157.439 250.797 158.281C251.474 159.218 252.658 159.967 253.504 159.967C254.351 159.967 255.704 160.622 256.551 161.465C258.92 163.805 260.358 162.026 258.074 159.405C256.889 158 256.381 156.596 256.72 155.192C257.481 151.915 255.958 149.668 252.827 149.668H250.12L252.827 147.233C255.197 145.173 255.62 144.237 255.62 140.867C255.62 138.713 256.043 136.466 256.551 135.904C257.481 134.874 256.974 132.815 255.789 132.815C255.451 132.908 254.266 133.47 253.166 134.125ZM185.386 140.773C182.763 142.271 180.732 145.361 181.494 146.765C182.255 148.17 187.586 148.825 189.871 147.889C192.41 146.859 195.541 143.582 195.541 142.177C195.541 139.556 189.025 138.713 185.386 140.773ZM200.618 144.986C200.618 149.948 205.695 155.285 210.349 155.285C211.872 155.285 212.041 151.727 210.687 148.45C208.741 143.769 200.618 140.96 200.618 144.986ZM189.787 153.413C187.586 156.97 187.333 162.214 189.11 166.989C189.787 168.768 190.971 170.266 191.648 170.266C193.425 170.266 197.91 165.865 199.518 162.495C201.041 159.03 200.533 151.634 198.502 148.076L197.148 145.829L194.441 148.076C192.917 149.293 190.887 151.727 189.787 153.413ZM442.289 155.66C438.312 157.532 435.858 161.746 435.858 166.801C435.858 176.258 445.504 180.284 450.497 172.887C452.781 169.517 451.766 165.584 448.297 164.273C444.15 162.588 440.596 167.27 443.981 169.985C445.25 171.015 445.335 171.202 444.15 171.202C442.119 171.202 440.089 168.58 440.089 166.146C440.089 162.963 443.812 159.592 447.281 159.592C452.951 159.592 458.62 167.176 457.435 173.074C456.251 179.067 450.327 184.31 444.743 184.31H441.696L445.335 188.991C447.366 191.519 449.143 193.672 449.397 193.672C449.65 193.672 452.189 190.021 455.066 185.62C460.566 177.194 462.005 172.606 460.905 166.146C459.382 157.439 449.989 152.102 442.289 155.66ZM403.533 168.019C399.81 172.044 400.741 174.011 406.326 174.011C409.372 174.011 411.995 172.606 414.026 169.891C415.972 167.27 415.888 166.614 413.603 165.584C410.641 164.18 406.241 165.303 403.533 168.019ZM206.203 171.483C204.341 173.73 200.533 178.318 197.825 181.782C191.987 189.272 188.602 191.519 185.725 190.021C184.117 189.272 183.694 188.336 183.694 185.527C183.694 183.654 184.117 180.658 184.709 178.973C185.894 175.321 184.963 174.011 181.24 174.011C178.871 174.011 176.417 175.977 164.401 187.399C157.378 194.141 155.77 196.2 155.77 198.26C155.77 202.192 156.87 202.848 161.693 201.724C167.278 200.507 170.493 201.724 170.832 205.095C171.17 208.559 166.263 213.615 157.801 218.671C149.254 223.727 146.123 227.191 146.208 231.685C146.293 236.086 149.677 241.422 154.585 244.98C158.901 248.164 161.862 249.1 160.001 246.572C158.478 244.512 159.832 241.422 162.455 240.861C164.401 240.392 164.739 239.924 164.401 238.052C163.893 235.056 165.755 232.715 168.04 233.37C169.732 233.839 169.901 233.558 169.817 230.374C169.732 227.097 169.901 226.91 172.524 226.629C174.894 226.348 175.232 226.067 174.809 224.476C174.047 221.948 175.74 219.888 178.532 219.888C180.478 219.888 180.732 219.514 180.732 216.798C180.732 214.083 180.986 213.802 183.44 213.521C185.64 213.241 186.148 212.772 186.402 210.713C186.656 208.559 187.079 208.185 189.702 207.904C192.24 207.717 192.748 207.248 192.41 205.938C191.902 203.784 194.525 200.882 196.302 201.631C198.841 202.754 199.348 202.567 199.095 200.601C198.756 197.792 200.956 196.107 204.002 196.856C206.287 197.324 206.541 197.137 206.541 195.077C206.541 192.455 208.995 190.583 210.857 191.893C212.634 193.111 213.31 192.923 213.31 190.957C213.31 188.336 215.511 186.838 218.388 187.493C220.503 187.961 220.926 187.68 220.926 186.182C220.926 183.654 223.803 182.063 226.088 183.373C227.019 184.029 228.034 184.216 228.288 183.935C229.219 182.905 224.903 174.853 221.349 171.295C218.049 167.925 217.034 167.457 213.649 167.457C210.095 167.457 209.333 167.831 206.203 171.483ZM341.254 180.565L337.954 188.055H340.492C343.877 188.055 349.97 191.332 352.085 194.328C355.978 199.852 355.724 207.716 351.493 211.462C349.97 212.772 348.108 213.334 345.231 213.334C341.931 213.334 340.915 212.96 339.477 210.9C336.431 206.593 337.531 201.724 341.931 199.945C342.692 199.665 342.269 199.384 341 199.384C337.869 199.29 334.569 202.473 333.977 206.218C333.131 210.9 335.161 215.488 339.392 218.577C342.354 220.731 343.708 221.105 348.277 221.012C356.316 220.918 362.07 216.986 365.286 209.215C370.617 196.481 364.016 180.565 350.9 175.041C348.531 174.011 346.162 173.168 345.654 173.168C345.062 173.074 343.116 176.445 341.254 180.565ZM402.433 179.816C404.041 188.242 408.949 192.736 416.649 192.736H421.642L421.049 190.115C419.188 181.594 413.772 176.819 405.987 176.819H401.841L402.433 179.816ZM394.818 179.816C392.956 182.344 392.617 183.467 392.956 186.463C393.21 188.523 393.971 190.864 394.733 191.613C395.918 192.923 396.256 192.923 398.118 190.957C400.995 187.961 401.587 184.403 399.81 180.19C398.964 178.318 398.033 176.819 397.695 176.819C397.356 176.819 396.087 178.13 394.818 179.816ZM481.552 187.118C472.074 189.085 463.274 195.826 459.551 203.971C458.197 206.967 458.112 207.529 459.297 209.964L460.566 212.679L463.02 208.091C468.182 198.167 475.29 192.83 484.344 192.081C490.944 191.519 495.683 192.923 500.252 196.762C507.106 202.567 509.476 212.211 505.922 219.888C502.452 227.378 495.26 230.374 489.252 226.91C486.375 225.318 484.683 220.731 485.783 217.735C486.46 215.768 486.544 215.768 486.544 218.109C486.713 222.603 491.198 225.225 495.429 223.259C502.622 219.888 500.76 208.466 492.467 205.75C488.998 204.533 483.413 205.657 480.79 208.091C478.928 209.683 474.782 216.33 474.782 217.641C474.782 218.203 476.982 220.169 479.605 221.761C482.313 223.446 486.883 226.629 489.76 228.876C496.021 233.839 498.391 234.026 503.891 230.187C509.645 226.161 512.353 219.326 511.845 210.619C511.084 198.728 504.483 190.583 492.975 187.493C487.56 185.995 486.883 185.995 481.552 187.118ZM134.954 190.302C128.269 197.698 134.869 208.653 144.431 205.75C153.908 202.754 151.285 187.118 141.3 187.118C138.508 187.118 137.323 187.68 134.954 190.302ZM285.998 195.639C271.951 207.81 270.005 209.964 270.005 213.709C270.005 215.581 299.791 253.781 351.577 318.29C357.247 325.219 368.247 339.076 376.201 349.094C384.071 359.018 392.279 369.13 394.225 371.471C397.525 375.216 397.695 375.403 396.002 372.501C393.887 368.943 371.886 337.109 356.993 315.95C351.916 308.834 347.6 301.999 347.346 300.876C346.754 298.067 347.346 296.943 355.893 284.397C365.878 269.885 365.709 269.23 354.454 278.873C350.223 282.431 346.416 285.427 345.993 285.427C344.554 285.427 346.839 282.993 354.285 276.439C358.262 272.975 361.224 269.979 361.055 269.698C360.547 269.23 356.57 272.226 349.631 278.592C346.669 281.308 343.877 283.274 343.454 282.993C343.116 282.712 346.246 279.341 350.562 275.409C354.878 271.57 358.601 267.919 358.77 267.263C359.108 266.234 355.808 268.855 348.7 275.128C342.269 280.746 341.931 281.027 341.931 279.997C341.931 279.435 345.316 275.971 349.547 272.226C353.693 268.481 356.993 265.204 356.739 265.016C356.485 264.736 353.439 267.076 349.885 270.072C341.169 277.562 340.238 278.311 339.731 277.656C339.477 277.375 342.946 273.911 347.431 269.979C351.916 266.046 355.385 262.582 355.131 262.301C354.878 262.02 351.324 264.642 347.262 268.293C338.546 275.877 337.7 276.439 337.7 275.222C337.7 274.754 341.169 271.289 345.316 267.638C349.547 263.893 352.847 260.616 352.593 260.335C352.085 259.773 352.254 259.68 343.369 267.544C339.731 270.728 336.346 273.256 335.838 273.068C335.161 272.787 344.639 263.799 351.154 258.556C351.324 258.369 351.324 257.994 350.985 257.713C350.731 257.433 347.008 260.148 342.777 263.799C336.008 269.604 333.469 271.289 333.469 270.166C333.469 269.791 347.177 257.62 349.039 256.215C349.547 255.841 349.716 255.279 349.377 254.998C349.123 254.717 345.231 257.62 340.746 261.552C336.261 265.391 332.369 268.574 332.2 268.574C330.677 268.574 332.792 266.327 339.815 260.148C344.216 256.309 347.516 253.032 347.008 252.845C346.5 252.658 342.692 255.56 338.546 259.212C334.315 262.957 330.592 265.765 330.338 265.391C330 265.11 330 264.736 330.169 264.548C330.338 264.361 333.723 261.365 337.7 257.807C341.677 254.343 345.062 251.253 345.231 251.066C345.4 250.972 345.4 250.598 345.146 250.317C344.723 249.849 335.415 257.526 329.915 262.676C329.153 263.425 328.392 263.612 328.138 263.144C327.884 262.769 331.269 259.305 335.669 255.56C339.985 251.721 343.623 248.257 343.623 247.789C343.623 246.853 341 248.912 331.438 257.245C328.815 259.492 326.446 261.084 326.107 260.71C325.853 260.429 325.769 260.054 325.938 259.867C333.469 253.5 341.846 245.729 341.508 245.355C341.339 245.074 338.208 247.414 334.654 250.411C324.415 259.212 324.161 259.399 324.161 258.369C324.161 257.901 327.546 254.343 331.777 250.691C335.923 246.946 339.392 243.576 339.392 243.014C339.392 242.171 334.992 245.448 330.93 249.381C326.784 253.407 322.469 256.59 322.469 255.654C322.469 255.092 325.938 251.628 330.084 247.976C334.315 244.231 337.531 240.954 337.361 240.673C337.108 240.392 333.977 242.733 330.423 245.729C321.876 253.126 320.776 253.968 320.353 253.407C320.099 253.219 323.569 249.755 328.053 245.729C332.454 241.703 335.923 238.239 335.669 237.958C335.415 237.677 331.861 240.299 327.8 243.95C319.084 251.534 318.238 252.096 318.238 250.972C318.238 250.411 321.707 247.04 325.938 243.295C330.169 239.643 333.384 236.366 333.131 236.086C332.877 235.805 332.2 235.992 331.607 236.46C331.015 237.022 327.546 240.018 323.907 243.295C320.268 246.478 317.053 248.819 316.714 248.444C316.376 248.07 317.053 246.946 318.238 246.01C326.784 238.52 331.777 233.651 331.438 233.277C331.184 232.996 327.546 235.805 323.315 239.55C319.168 243.201 315.276 246.104 314.768 245.916C314.091 245.636 319.338 240.673 329.069 232.34C329.746 231.685 330.169 230.842 329.83 230.562C329.577 230.281 325.684 233.277 321.199 237.209C316.714 241.235 312.822 244.231 312.568 243.857C312.23 243.576 312.23 243.201 312.399 243.014C316.291 239.643 327.546 229.064 327.546 228.689C327.546 227.94 325.853 229.157 318.407 235.617C314.514 238.894 311.13 241.422 310.96 241.141C310.537 240.673 316.038 235.337 323.315 229.064C324.922 227.659 326.023 226.255 325.684 225.974C325.346 225.506 316.207 232.902 310.453 238.333C309.691 239.082 308.93 239.269 308.676 238.894C308.422 238.426 311.807 234.962 316.207 231.217C320.607 227.472 324.161 223.914 324.161 223.446C324.161 222.51 322.469 223.82 313.584 231.498C307.999 236.366 305.629 237.864 306.814 235.805C307.068 235.337 310.707 231.872 314.937 228.221C319.084 224.476 322.299 221.292 322.13 221.012C321.876 220.824 318.83 223.071 315.276 226.067C306.645 233.464 305.545 234.307 305.037 233.745C304.783 233.464 308.083 230.187 312.314 226.442C316.461 222.79 319.93 219.326 319.93 218.765C319.93 218.296 316.884 220.543 313.076 223.82C304.022 231.685 303.006 232.434 303.006 231.311C303.006 230.842 306.476 227.378 310.707 223.633C314.853 219.888 318.153 216.611 317.899 216.33C317.391 215.768 317.561 215.675 308.676 223.54C305.037 226.723 301.652 229.251 301.229 229.064C300.722 228.876 304.022 225.412 308.506 221.386C312.991 217.36 316.461 213.896 316.207 213.615C315.953 213.334 312.145 216.33 307.576 220.263C303.091 224.195 299.198 227.191 298.945 226.91C298.352 226.348 298.098 226.629 307.068 218.484C310.96 215.019 313.922 211.93 313.668 211.742C313.414 211.462 309.776 214.27 305.629 217.922C301.399 221.573 297.76 224.569 297.506 224.569C295.983 224.569 297.929 222.322 303.768 217.173C310.368 211.462 314.345 207.342 311.468 209.121C310.791 209.495 307.068 212.585 303.175 215.862C299.368 219.233 295.814 221.761 295.391 221.573C294.883 221.386 298.183 218.109 302.583 214.27C309.776 207.997 311.722 205.844 310.114 205.844C309.86 205.844 306.137 209.027 301.906 212.866C297.591 216.705 293.867 219.888 293.529 219.888C292.006 219.888 293.19 218.203 297.252 214.739C304.614 208.466 309.099 203.971 308.168 203.971C307.66 203.971 303.768 206.967 299.622 210.619C295.391 214.364 291.752 217.079 291.498 216.798C291.075 216.33 296.914 210.713 303.852 204.814C305.46 203.41 306.645 202.099 306.391 201.818C306.137 201.537 302.245 204.44 297.675 208.278C293.19 212.117 289.467 214.926 289.467 214.364C289.467 213.802 292.852 210.338 297.083 206.593C301.229 202.942 304.699 199.477 304.699 199.009C304.699 198.167 303.345 199.29 292.514 208.559C284.306 215.581 286.336 212.023 294.883 204.44C299.368 200.414 303.006 197.043 303.006 196.856C303.006 195.639 300.806 197.23 294.206 203.035C287.606 208.84 285.236 210.432 285.236 209.215C285.236 209.027 288.875 205.657 293.36 201.631C297.76 197.698 301.229 194.234 300.975 193.953C300.722 193.672 297.168 196.388 293.106 199.945C284.39 207.529 283.544 208.091 283.544 206.874C283.544 206.406 287.013 202.942 291.244 199.29C295.475 195.639 298.691 192.362 298.437 192.081C298.183 191.8 297.506 191.987 296.914 192.455C296.321 193.017 292.852 196.013 289.213 199.196C285.575 202.286 282.19 204.908 281.767 204.908C279.821 204.908 281.598 202.661 288.621 196.481C295.644 190.302 297.421 188.055 295.475 188.055C295.052 188.055 290.821 191.425 285.998 195.639ZM413.687 200.414C409.795 202.848 407.087 207.904 407.087 212.772C407.087 214.551 408.61 220.918 410.472 226.91C416.226 245.636 416.395 251.909 411.572 257.526C409.203 260.335 403.533 263.799 401.249 263.893C400.656 263.893 401.672 262.02 403.533 259.773C407.256 255.279 408.441 251.16 407.68 245.074C407.172 240.767 403.787 235.43 400.318 233.464C394.987 230.374 387.202 232.528 384.579 237.864C383.14 240.673 383.056 246.197 384.494 248.351C385.425 249.755 385.594 249.662 385.763 247.321C386.44 238.239 397.61 236.741 399.048 245.542C400.318 252.658 395.579 257.994 378.74 268.481C360.378 279.81 355.047 286.738 355.047 299.003C355.047 307.43 357.839 313.141 363.678 316.98C370.447 321.38 380.094 320.163 385.086 314.264C391.179 307.055 387.456 294.79 379.248 294.79C375.694 294.79 374.678 295.445 373.24 298.441L372.14 300.688L374.509 298.722C377.471 296.194 380.348 296.101 382.548 298.535C384.663 300.876 384.748 305.089 382.548 307.617C377.471 313.703 368.586 310.051 367.57 301.531C366.47 292.356 370.278 286.083 382.717 276.72C389.656 271.57 390.163 271.383 395.41 271.383C398.456 271.383 402.602 270.728 404.549 269.979C406.58 269.23 408.272 268.668 408.441 268.855C408.61 268.949 408.272 272.226 407.849 276.064C406.749 284.491 407.764 295.258 410.98 310.707C412.672 318.478 413.264 324.189 413.349 331.305C413.434 342.446 412.587 345.161 407.256 350.685L404.126 353.869L406.241 355.741C414.703 363.512 430.865 367.538 442.204 364.636C449.65 362.67 454.051 359.767 458.958 353.775C474.105 335.143 464.289 305.183 443.135 305.089C436.365 305.089 432.219 306.681 427.988 310.707L424.434 314.171L424.688 302.374C425.28 267.825 425.28 268.481 427.565 262.769C432.473 250.879 440.681 244.793 451.935 244.793C457.181 244.793 458.958 245.167 462.005 247.04C466.828 250.036 470.213 254.811 471.482 260.335C472.497 264.267 472.413 265.297 470.89 269.23C468.859 274.66 464.882 277.937 460.228 277.937C453.627 277.937 449.566 273.162 450.412 266.514L450.835 263.518L449.312 265.672C446.943 268.855 447.112 276.72 449.65 280.839C454.22 288.517 464.628 290.483 473.851 285.334C482.736 280.465 486.375 272.881 485.529 260.897C484.006 237.022 455.489 223.82 432.219 236.179C428.919 237.958 424.942 240.58 423.503 241.89L420.795 244.325L420.203 238.894C419.865 235.898 418.68 230.093 417.495 225.974C414.449 215.488 414.449 210.993 417.495 208.091C420.372 205.376 422.657 205.282 424.857 207.716C427.057 210.151 426.973 213.147 424.688 215.862C422.911 218.016 422.911 218.015 424.603 218.015C427.565 218.015 430.78 213.896 430.78 210.057C430.78 200.226 421.98 195.264 413.687 200.414ZM126.153 215.675C125.222 216.986 125.307 218.484 126.661 223.352C126.915 224.289 126.323 223.54 125.392 221.667C123.445 217.735 121.668 216.705 119.299 218.015C117.014 219.42 117.268 222.229 119.892 224.476L122.092 226.442L118.961 226.161C116.761 226.067 115.491 226.442 114.814 227.565C113.291 230.281 115.237 232.528 119.045 232.434L122.261 232.247L119.976 234.119C117.268 236.273 117.014 239.082 119.299 240.486C121.499 241.797 123.445 240.767 124.969 237.584C126.661 233.932 126.999 234.119 125.984 238.145C124.799 242.078 126.238 244.418 129.453 244.044C131.4 243.763 131.653 243.295 131.569 240.486C131.569 238.707 131.23 236.366 130.892 235.337C130.553 234.307 131.146 235.056 132.246 236.928C134.446 240.861 136.646 242.171 138.423 240.486C140.792 238.333 139.946 235.056 136.477 232.996C134.531 231.779 134.107 231.311 135.461 231.779C139.1 232.902 141.554 232.621 142.569 230.842C144.685 227.191 140.877 225.038 135.461 226.723C134.107 227.191 134.531 226.723 136.477 225.506C139.946 223.446 140.792 220.169 138.423 218.015C136.646 216.33 134.277 217.641 132.161 221.573C131.146 223.446 130.553 224.195 130.807 223.165C131.907 219.701 132.246 217.079 131.738 215.675C131.146 213.896 127.507 213.896 126.153 215.675ZM265.52 227.659C267.636 231.685 270.005 232.153 270.005 228.595C270.005 224.476 268.566 219.794 266.451 217.36L264.505 215.019L264.251 219.888C264.082 223.259 264.42 225.599 265.52 227.659ZM85.3671 229.438C85.9594 230.093 86.3825 233.183 86.3825 236.741C86.3825 246.572 89.6826 249.662 95.0136 244.699C98.3137 241.61 99.2445 242.546 96.2829 245.916C91.5442 251.44 93.9136 254.905 102.545 255.092C105.929 255.092 108.806 255.654 109.568 256.309C110.414 257.152 110.922 257.245 110.922 256.59C110.922 256.028 109.822 254.624 108.383 253.5C106.352 251.815 106.099 251.16 106.776 249.662C108.045 247.04 107.283 246.665 105.422 248.913C102.375 252.658 96.1983 250.317 98.2291 246.197C99.4984 243.576 101.783 242.359 105.591 242.359C108.637 242.265 108.722 242.265 106.86 241.141L104.999 239.924L107.96 237.022C111.091 233.932 112.107 229.251 109.653 229.251C107.453 229.251 103.391 231.966 102.375 234.119C101.36 236.179 101.36 236.179 100.175 233.651C99.583 232.247 98.9061 231.123 98.8215 231.123C98.7368 231.123 98.5676 232.809 98.5676 234.868C98.3983 239.55 96.1983 242.546 93.2366 242.171C90.275 241.797 89.7672 237.677 92.3058 234.868L94.1674 232.809L92.1366 233.089C90.8673 233.277 89.3441 232.528 87.9056 230.842C86.6363 229.438 85.3671 228.314 84.944 228.314C84.6055 228.314 84.7747 228.783 85.3671 229.438ZM254.604 234.119C251.389 235.805 248.85 237.49 248.85 237.771C248.85 238.145 250.881 238.801 253.251 239.363C257.143 240.205 258.412 240.018 262.389 238.426C264.928 237.396 268.397 236.366 270.005 236.179L272.967 235.898L269.836 236.647C263.997 238.052 261.543 242.546 264.674 246.291C266.366 248.351 268.566 248.444 270.428 246.478C271.444 245.355 271.528 244.699 270.767 243.669C269.328 241.797 268.397 242.078 268.905 244.231C269.243 245.636 268.905 246.104 267.636 246.104C263.828 246.104 263.489 239.456 267.213 238.333C273.051 236.554 274.828 236.741 277.113 239.269C280.498 243.014 281.852 246.385 282.613 252.938L283.29 258.743L283.459 253.688C283.629 244.606 277.875 235.898 269.667 232.621C264.251 230.468 260.866 230.842 254.604 234.119ZM360.462 242.92C357.501 244.606 355.47 249.193 356.062 252.845C356.316 254.156 357.585 256.496 359.024 257.994C364.609 263.893 374.086 259.68 374.086 251.347C374.001 243.389 367.063 239.082 360.462 242.92ZM113.545 261.739C113.46 263.331 112.868 263.799 110.753 264.08C108.637 264.267 107.706 265.016 106.86 266.983C104.914 271.383 105.168 275.971 107.453 277.843C109.314 279.435 109.314 279.529 107.96 285.24C106.691 290.951 106.86 293.479 108.468 292.449C108.891 292.075 109.23 290.858 109.23 289.547C109.23 287.955 109.737 287.3 110.837 287.3C112.276 287.3 112.445 287.768 112.022 290.577C111.683 293.198 111.853 293.854 112.953 293.854C113.799 293.854 114.307 293.011 114.307 291.513C114.307 289.828 114.73 289.172 115.83 289.172C117.099 289.172 117.353 289.734 117.014 292.075C116.761 294.322 116.93 294.884 117.776 294.603C118.453 294.322 119.045 293.292 119.215 292.262C119.384 291.138 120.23 290.109 121.161 289.828C122.007 289.547 122.769 289.453 122.769 289.547C122.769 289.547 122.43 291.045 122.007 292.73C121.245 295.445 121.33 295.82 122.599 295.539C123.361 295.352 124.122 294.322 124.292 293.105C124.461 291.794 125.138 291.045 126.153 291.045C127.507 291.045 127.592 291.419 126.999 293.76C126.661 295.258 126.492 296.756 126.83 297.037C127.846 298.254 128.607 297.505 129.115 294.79C129.453 292.917 130.215 291.981 131.315 291.981C132.669 291.981 132.754 292.356 131.992 294.509C131.4 296.194 131.484 297.318 132.077 297.973C133.177 299.19 134.615 297.224 134.615 294.509C134.615 293.666 135.207 292.917 135.969 292.917C137.069 292.917 137.238 293.573 136.815 296.194C136.392 298.722 136.477 299.471 137.408 299.471C138.085 299.471 138.846 298.16 139.185 296.569C139.862 292.73 141.892 293.479 141.554 297.411C141.385 299.659 141.638 300.408 142.569 300.408C143.415 300.408 143.923 299.565 143.923 298.067C143.923 296.382 144.346 295.726 145.446 295.726C146.716 295.726 146.969 296.288 146.631 298.629C146.377 300.876 146.546 301.437 147.393 301.157C148.07 300.876 148.662 299.846 148.831 298.722C149 297.599 149.677 296.662 150.439 296.662C151.454 296.662 151.623 297.318 151.2 299.471C150.608 303.029 152.808 303.404 153.57 299.939C154.416 296.382 156.701 296.943 156.447 300.501C156.108 304.246 158.055 305.276 158.478 301.625C158.647 300.033 159.239 299.003 160.001 299.003C160.932 299.003 161.185 299.846 161.016 302.186C160.678 305.838 162.624 305.932 163.385 302.28C164.147 298.722 166.093 298.722 165.755 302.374C165.416 306.4 167.447 307.242 168.124 303.216C168.801 299.471 170.663 300.127 170.324 304.059C170.07 307.898 172.27 307.991 172.947 304.153C173.37 302.093 173.878 301.531 174.809 301.906C175.824 302.374 175.994 303.216 175.655 305.183C175.232 307.242 175.401 307.898 176.417 307.898C177.094 307.898 177.771 306.961 177.94 305.838C178.109 304.621 178.871 303.591 179.632 303.404C180.902 303.123 181.071 303.591 180.648 305.932C180.225 308.179 180.394 308.834 181.409 308.834C182.171 308.834 182.848 307.898 183.017 306.774C183.186 305.557 183.863 304.527 184.709 304.34C185.725 304.153 186.063 304.714 185.979 306.868C185.725 312.017 187.502 309.958 188.263 304.153L189.025 298.535H193.933C198.079 298.535 200.025 299.19 206.287 302.748C210.349 304.995 216.357 307.523 219.488 308.366C222.703 309.115 239.035 311.268 255.874 313.047C272.713 314.826 292.006 316.98 298.691 317.729C305.376 318.571 311.045 319.039 311.13 318.852C311.553 318.384 231.419 289.453 226.426 288.236C224.057 287.674 217.203 287.3 211.195 287.393C201.887 287.674 199.687 287.393 196.979 285.895C195.117 284.959 193.51 283.742 193.34 283.18C193.171 282.618 193.679 279.341 194.61 275.784C195.541 271.851 195.879 269.23 195.371 268.949C194.356 268.2 193.002 270.26 193.002 272.507C193.002 273.443 192.41 274.192 191.648 274.192C190.548 274.192 190.379 273.536 190.717 270.915C191.31 266.702 189.025 266.234 188.263 270.353C187.925 272.226 187.333 272.975 186.486 272.6C185.64 272.226 185.471 271.289 185.809 269.417C186.486 265.953 184.117 265.578 183.355 269.042C183.017 270.353 182.255 271.383 181.663 271.383C180.478 271.383 179.463 274.098 179.463 277.656C179.463 278.873 179.04 279.81 178.617 279.81C177.517 279.81 177.517 280.465 179.463 272.787C181.494 265.016 181.409 265.765 179.886 265.765C179.209 265.765 178.448 266.795 178.109 268.106C177.348 271.383 175.147 271.196 175.401 267.825C175.655 264.829 174.132 263.799 173.709 266.795C173.54 267.919 172.694 269.042 171.847 269.23C170.663 269.604 170.07 270.915 169.647 274.098C169.224 276.439 168.801 277.656 168.632 276.813C168.463 275.877 168.97 272.881 169.647 270.072C170.409 267.263 171.001 264.548 171.001 263.893C171.001 261.927 168.97 263.518 168.463 265.859C168.209 267.076 167.363 268.2 166.601 268.387C165.416 268.668 165.247 268.106 165.67 265.204C166.093 262.488 165.924 261.833 164.993 262.208C164.316 262.395 163.724 263.799 163.555 265.204C163.132 268.761 161.27 267.638 161.439 263.987C161.524 261.646 161.185 261.084 160.17 261.271C159.324 261.459 158.647 262.488 158.478 263.706C158.308 264.829 157.631 265.765 156.954 265.765C155.939 265.765 155.77 265.11 156.193 262.957C156.616 260.803 156.447 260.148 155.431 260.148C154.754 260.148 154.077 261.084 153.908 262.208C153.739 263.425 152.977 264.455 152.131 264.642C150.777 264.923 150.608 264.548 151.116 262.114C151.539 259.867 151.37 259.212 150.354 259.212C149.677 259.212 149 260.148 148.831 261.271C148.662 262.488 147.9 263.518 147.054 263.706C145.7 263.987 145.531 263.706 146.039 261.833C147.054 258.369 146.969 257.807 145.616 257.807C144.854 257.807 144.262 258.837 144.092 260.335C143.923 261.927 143.331 262.957 142.569 262.957C141.638 262.957 141.3 262.114 141.554 259.961C141.892 256.028 139.862 255.279 139.185 259.118C138.846 260.803 138.085 262.02 137.408 262.02C136.392 262.02 136.223 261.271 136.646 258.743C137.069 256.215 136.984 255.466 136.054 255.466C135.377 255.466 134.615 256.777 134.277 258.369C133.6 262.208 131.569 261.459 131.907 257.526C132.077 255.279 131.823 254.53 130.892 254.53C130.046 254.53 129.538 255.373 129.538 256.871C129.538 258.556 129.115 259.212 127.93 259.212C126.492 259.212 126.407 258.837 126.999 256.403C127.592 253.968 127.507 253.594 126.069 253.594C124.884 253.594 124.461 254.249 124.461 255.935C124.461 257.62 124.038 258.275 122.853 258.275C121.415 258.275 121.33 257.901 121.922 255.466C122.515 253.313 122.345 252.658 121.415 252.658C120.822 252.658 120.061 253.687 119.722 254.998C118.961 258.462 116.507 258.088 117.099 254.624C117.438 252.845 117.268 251.721 116.591 251.44C115.576 251.066 113.714 257.339 113.545 261.739ZM71.3204 258.182C63.7047 262.582 58.543 271.758 58.4584 281.12C58.4584 289.453 62.8585 297.692 70.5588 303.778L73.0128 305.651L70.8127 309.208C66.4971 316.324 67.1741 323.159 72.8435 328.87C75.0436 331.117 77.2437 332.334 79.8669 332.709C90.0211 334.394 97.5522 321.848 91.0365 314.077C88.1595 310.613 81.6439 310.519 78.7668 313.983C74.7897 318.665 77.2437 326.061 82.49 325.5C84.6901 325.219 85.1132 324.844 85.2825 322.41C85.5363 319.788 85.4517 319.695 84.6901 321.755C83.7593 324.282 81.5592 324.189 80.1207 321.661C78.0052 317.916 83.9286 314.639 87.5672 317.541C89.4288 319.039 89.7672 323.908 88.1595 326.061C86.5517 328.121 81.5592 329.526 79.1899 328.496C75.5513 326.998 73.6897 324.095 73.6897 320.069C73.6897 313.515 80.0361 307.898 87.7364 307.898C90.275 307.898 101.614 305.37 102.206 304.714C102.375 304.527 101.529 302.655 100.175 300.595L97.806 296.85L90.6134 297.318C82.4054 297.88 79.2745 296.85 74.1974 291.981C69.0357 286.925 67.1741 281.027 68.6972 274.66C70.5588 267.076 76.3129 261.927 82.9977 261.833C88.8364 261.739 94.7598 267.451 94.929 273.443C95.0136 275.503 95.0136 275.409 95.7752 273.068C96.4521 271.102 96.2829 269.604 95.0136 266.421C91.2058 256.777 80.3746 253.032 71.3204 258.182ZM217.034 263.799C213.564 265.578 209.926 269.698 209.926 271.851C209.926 272.507 210.518 273.536 211.195 274.192C212.295 275.222 212.887 275.035 214.58 273.256C215.68 272.132 216.695 270.072 216.864 268.762C217.203 265.391 220.249 263.893 226.426 263.893C232.773 263.893 238.611 266.795 243.519 272.413C245.55 274.566 247.158 276.813 247.158 277.282C247.158 277.656 245.296 275.971 243.096 273.443C240.812 270.915 237.681 268.012 236.073 267.076C232.519 265.016 225.157 264.736 223.126 266.608C220.926 268.668 222.788 269.979 226.088 268.668C227.526 268.106 229.727 267.638 230.827 267.638C233.788 267.638 240.388 271.664 243.689 275.503C245.296 277.282 246.904 278.592 247.327 278.311C247.666 278.031 248.004 278.311 248.004 278.967C248.004 279.622 248.258 279.903 248.512 279.622C249.697 278.218 245.127 271.383 240.304 267.357C233.873 262.02 223.803 260.429 217.034 263.799ZM76.3129 267.544C73.2666 269.979 70.8127 276.345 71.4896 280.278C72.2512 284.585 74.959 288.798 78.8514 291.7C81.7285 293.76 83.2516 294.228 88.0749 294.228C91.2904 294.322 94.3367 293.854 94.8444 293.292C95.4367 292.636 95.5213 290.389 95.1828 287.019C94.6751 282.431 94.4213 281.869 93.4058 282.806C92.6443 283.461 90.0211 283.929 87.4825 283.929C83.4208 283.929 82.49 283.648 80.7977 281.401C76.9898 276.439 78.9361 269.511 84.1824 269.511C87.5672 269.511 89.2595 271.477 88.7518 274.66C88.4134 276.533 88.498 276.813 89.4288 275.971C90.6981 274.847 90.9519 270.634 89.9365 268.855C89.598 268.293 88.1595 267.076 86.8056 266.234C83.7593 264.455 79.6976 264.923 76.3129 267.544ZM230.319 273.349C227.611 274.379 226.173 277.469 227.188 280.278C227.78 282.15 231.25 283.555 235.396 283.555C238.95 283.555 244.619 286.27 247.92 289.547L249.866 291.513L249.273 289.172C247.412 282.15 241.658 275.035 236.411 273.256C233.196 272.226 233.365 272.226 230.319 273.349ZM315.699 286.832C312.399 289.172 312.145 289.172 308.168 287.861C304.699 286.738 303.768 286.738 302.499 287.768C301.06 288.891 301.06 289.453 301.991 293.479C303.091 297.786 303.006 298.067 300.468 301.906C299.114 304.059 297.929 306.306 297.929 306.868C297.929 308.459 300.975 309.77 304.952 309.77C308.422 309.77 308.93 310.051 310.96 313.609C312.822 316.605 313.668 317.354 315.445 317.073C317.138 316.886 317.899 315.856 319.084 312.579C320.353 309.021 321.03 308.272 324.415 306.961C326.53 306.212 328.73 305.089 329.238 304.527C330.592 303.029 329.238 300.501 325.938 298.067C323.653 296.475 323.315 295.633 323.315 292.168C323.315 287.487 322.13 284.491 320.268 284.491C319.592 284.491 317.561 285.521 315.699 286.832ZM110.753 307.617C104.237 311.549 99.9215 319.788 99.9215 328.589C99.9215 333.458 102.122 340.761 104.576 343.944C106.606 346.566 106.691 346.566 105.422 344.225C104.66 342.821 104.322 341.135 104.66 340.574C104.999 339.918 104.914 339.637 104.491 339.918C103.391 340.667 103.137 329.713 104.152 325.593C104.745 323.253 106.353 320.725 108.891 318.29C112.107 315.201 112.53 314.358 111.345 313.89C109.483 313.047 105.845 316.137 103.899 320.163C102.629 322.691 102.46 324.938 102.714 331.211C102.883 335.611 102.714 338.327 102.375 337.297C102.037 336.36 101.698 332.522 101.698 328.964C101.614 323.065 101.952 321.755 104.322 317.26C105.845 314.452 108.383 311.362 109.906 310.426C112.36 308.834 113.122 308.74 115.914 309.77C119.891 311.175 122.261 310.707 122.599 308.459C123.361 304.433 116.845 303.965 110.753 307.617ZM160.255 315.575C165.078 326.998 168.886 330.462 178.363 332.147C185.217 333.364 189.363 332.615 195.287 328.964C199.772 326.249 205.695 319.508 205.695 317.073C205.695 316.511 204.595 317.729 203.241 319.882C198.333 327.185 189.956 331.866 183.017 331.024C178.701 330.462 176.671 328.402 171.593 319.601C169.563 316.043 167.786 314.264 164.232 312.392C161.693 310.987 159.155 309.864 158.647 309.864C158.139 309.77 158.816 312.392 160.255 315.575ZM128.184 313.328C124.122 315.575 122.345 317.729 120.653 322.223C118.876 326.904 119.045 329.994 121.415 335.705C122.938 339.263 124.63 341.323 128.015 343.851C134.023 348.345 140.369 350.405 157.293 353.401C178.955 357.146 177.94 355.46 165.501 366.789C148.069 382.8 141.977 390.945 140.877 400.027C140.115 406.019 141.131 410.513 144.092 414.258C147.816 418.846 150.693 420.25 156.701 420.25C163.47 420.25 169.14 416.974 172.778 410.981C175.147 407.049 175.317 406.113 175.063 400.495C174.809 395.72 174.301 393.754 172.694 391.507C170.324 388.23 165.416 385.327 162.201 385.327C159.155 385.327 159.324 383.174 162.709 377.556C167.955 368.849 175.824 364.823 206.287 355.086C254.097 339.825 260.528 337.578 265.097 335.331C270.005 332.896 275.59 327.747 272.12 328.777C271.19 329.057 261.458 331.866 250.543 335.05C239.627 338.233 227.865 341.604 224.396 342.633C221.011 343.663 218.049 344.319 217.88 344.131C217.711 343.944 228.119 340.293 241.065 335.986C253.927 331.679 266.366 327.466 268.736 326.623L272.967 324.938L269.751 324.282C265.351 323.346 256.72 325.032 239.712 330.087C175.317 349.187 180.309 347.97 180.309 345.536C180.309 344.506 179.717 343.195 179.04 342.54C177.686 341.323 175.232 341.884 175.232 343.382C175.232 343.944 175.824 344.131 176.586 343.757C177.601 343.382 177.855 343.757 177.601 345.442C177.178 348.719 173.286 349.094 171.424 346.004C169.647 342.914 170.493 339.356 173.878 336.36L176.501 334.02L173.878 335.424C169.986 337.484 168.209 343.195 170.155 347.315C171.001 349 170.747 349.094 164.909 349.094C160.255 349.094 157.716 348.532 154.501 346.847C148.493 343.757 147.562 342.259 150.354 340.199C153.654 337.858 156.024 331.117 155.347 326.155C154.67 320.912 149.508 314.171 144.516 312.205C139.946 310.332 132.584 310.8 128.184 313.328ZM324.753 316.324C318.153 321.38 315.191 330.743 317.73 338.327C319.845 344.225 321.622 346.379 332.2 355.648C349.462 370.815 354.793 378.867 355.301 390.851C355.639 398.154 354.285 402.368 349.97 407.424C347.346 410.513 346.585 410.326 347.854 406.768C348.954 403.491 348.954 395.439 347.77 390.851C346.585 386.17 339.985 378.399 335.246 375.965C333.046 374.935 329.577 374.186 326.699 374.092C316.63 373.999 309.776 380.833 309.776 391.132C309.776 397.125 311.384 400.776 315.445 403.866C319.338 406.768 320.353 406.862 318.745 404.053C316.884 400.776 316.461 397.031 317.391 393.099C320.015 382.519 333.215 383.174 336.092 394.128C337.785 400.121 335.923 408.173 329.323 423.808C318.068 450.492 316.122 456.578 314.853 468.094C313.33 482.419 316.799 495.433 324.161 503.017C329.069 508.073 331.692 509.571 337.869 511.069C352.085 514.252 364.693 502.081 359.278 490.377C355.724 482.793 345.569 481.764 342.269 488.692C340.577 492.437 340.831 492.812 343.031 489.909C345.739 486.445 350.816 486.539 353.524 490.003C355.808 492.812 355.978 495.152 354.201 498.804C353.101 501.144 351.662 502.174 346.754 503.953C343.708 505.077 336.769 502.549 333.3 499.085C328.223 494.029 326.446 489.441 326.023 480.172C325.515 468.937 326.699 463.413 333.638 444.219L339.815 427.366L343.2 426.149C347.77 424.464 354.37 418.846 358.008 413.416C362.239 407.33 364.355 400.495 364.27 393.099C364.27 378.961 356.824 365.947 339.223 349.468C328.73 339.544 326.446 334.394 329.661 327.653C331.015 324.657 332.454 323.814 336.092 323.814C339.815 323.814 341.931 325.406 343.285 329.151C344.469 332.147 344.385 332.709 342.777 336.267C341.169 339.637 341.085 339.918 342.523 338.701C345.485 336.08 347.008 333.739 347.939 330.275C349.377 325.125 346.331 318.665 341.085 315.575C336.092 312.673 329.153 313.047 324.753 316.324ZM175.909 317.354C174.809 319.039 174.471 320.537 174.809 322.223C175.401 324.751 179.125 329.432 180.563 329.432C180.986 329.432 180.394 328.496 179.125 327.466C174.132 323.159 174.894 316.324 180.225 316.324C183.186 316.324 184.54 319.039 182.002 319.788C179.463 320.537 179.971 322.129 182.594 321.755C185.302 321.474 186.233 318.197 184.456 315.762C182.848 313.515 177.855 314.452 175.909 317.354ZM108.976 325.687C106.437 329.057 105.422 334.581 106.606 339.263C107.283 342.259 111.43 350.966 112.107 350.966C112.191 350.966 112.36 348.532 112.276 345.536C112.276 341.604 112.784 339.169 114.391 336.08C118.961 326.904 118.791 327.653 117.353 325.125C115.407 321.848 111.683 322.129 108.976 325.687ZM376.117 325.593C377.132 326.904 377.471 328.777 377.301 332.99C377.132 337.484 377.471 339.076 378.655 340.574C380.771 343.102 382.209 343.008 385.594 340.199C389.487 336.922 390.163 337.297 386.863 341.042C384.748 343.382 384.24 344.693 384.663 346.191C385.594 349.562 388.725 351.154 392.871 350.498C394.902 350.124 397.61 350.311 398.879 350.873C400.741 351.715 401.249 351.622 400.995 350.779C400.825 350.124 399.81 349.187 398.795 348.626C397.271 347.877 397.018 347.221 397.441 344.974L397.948 342.259L396.002 344.319C393.802 346.566 390.84 346.847 389.317 344.88C386.779 341.51 391.687 337.203 397.102 338.046C399.725 338.514 399.81 338.514 397.948 336.829L396.087 335.237L399.048 331.96C400.656 330.181 402.01 327.84 402.01 326.717C402.01 323.533 398.118 324.189 394.733 327.934C391.94 331.024 391.94 331.024 390.671 329.057C389.402 327.185 389.402 327.185 389.402 330.181C389.317 336.267 385.34 340.106 382.294 337.109C380.432 335.237 380.432 334.02 382.717 330.836L384.579 328.215L382.294 328.87C380.602 329.338 380.009 329.151 380.009 328.121C380.009 326.717 376.963 323.814 375.44 323.814C375.017 323.814 375.271 324.563 376.117 325.593ZM291.498 333.739C288.367 336.641 276.436 345.068 265.012 352.558C245.804 365.104 241.404 368.568 239.119 372.875C238.358 374.373 237.765 374.279 230.911 372.313C221.688 369.692 221.265 369.973 220.08 380.365C219.657 384.485 219.149 387.855 219.065 387.949C218.895 388.043 208.741 395.533 196.387 404.521C174.386 420.625 164.909 428.49 164.401 431.205C163.978 433.171 166.601 437.103 168.293 437.103C170.917 437.103 182.848 429.332 203.156 414.539C233.111 392.724 231.08 393.848 246.566 390.29C258.835 387.575 260.105 387.481 261.459 388.792C262.305 389.634 263.574 390.29 264.251 390.29C266.366 390.29 277.79 384.859 278.551 383.549C279.99 381.021 279.398 380.084 276.521 380.552C251.812 384.859 243.773 386.077 243.773 385.515C243.773 385.14 245.804 384.11 248.343 383.361C252.912 381.863 257.058 378.586 283.544 355.554C287.944 351.715 294.798 346.753 298.606 344.6C303.429 341.791 305.883 339.825 306.476 338.233C307.576 334.956 307.491 334.581 305.037 331.398C301.568 326.81 298.521 327.372 291.498 333.739ZM167.363 332.615C164.824 333.739 156.785 343.102 157.631 343.944C157.801 344.131 159.662 343.851 161.862 343.195C164.486 342.446 167.109 340.574 170.07 337.578C172.44 335.143 174.386 332.896 174.386 332.709C174.386 332.428 172.355 331.679 170.747 331.398C170.409 331.398 168.886 331.866 167.363 332.615ZM43.3116 344.787C43.4808 344.974 48.0502 348.157 53.3812 351.809C62.4354 357.988 63.197 358.269 63.8739 356.584C64.297 355.554 64.4662 354.524 64.297 354.243C63.7047 353.681 44.5809 344.506 43.7347 344.506C43.3116 344.412 43.1423 344.6 43.3116 344.787ZM41.9577 351.341C48.2195 356.116 59.7276 363.138 60.6584 362.763C63.6201 361.453 61.2508 359.393 51.8581 354.899C41.5346 350.03 39.1653 349.187 41.9577 351.341ZM296.914 364.074C293.614 370.534 288.452 380.833 285.321 387.013C276.182 405.457 263.997 417.067 249.612 421.28C246.143 422.31 245.296 423.059 242.165 428.583C239.373 433.358 238.696 435.324 239.035 437.384C239.458 439.538 238.696 441.504 235.565 446.747C233.45 450.492 230.403 455.735 228.796 458.357L226.003 463.319L245.466 474.086C256.128 479.985 265.012 484.853 265.182 484.853C265.351 484.853 267.72 479.329 270.428 472.588C274.49 462.57 275.759 460.136 277.621 459.48C279.228 458.825 280.667 456.671 282.867 451.803L285.913 444.968L284.136 439.35C282.867 435.137 282.359 431.392 282.359 423.996C282.275 408.547 283.459 405.364 305.037 362.295C307.153 357.988 308.845 354.337 308.76 354.243C307.322 353.026 304.868 351.996 303.937 352.183C303.345 352.277 300.129 357.614 296.914 364.074ZM126.661 356.209C125.73 359.018 126.153 362.951 127.676 365.104C128.946 366.696 129.453 366.883 129.961 365.947C130.384 365.198 130.3 364.917 129.707 365.385C128.692 366.04 126.999 363.231 126.999 360.797C126.999 358.831 129.538 357.895 130.469 359.486C130.892 360.235 130.977 361.64 130.723 362.67C130.384 364.168 130.469 364.261 131.146 363.138C132.33 361.265 132.33 357.239 131.061 355.835C129.623 354.243 127.253 354.43 126.661 356.209ZM133.769 357.427C133.769 358.737 135.292 359.58 136.308 358.925C136.815 358.55 136.984 357.895 136.731 357.427C136.054 356.303 133.769 356.303 133.769 357.427ZM121.922 357.988C121.922 358.737 122.515 359.393 123.192 359.393C123.869 359.393 124.461 358.737 124.461 357.988C124.461 357.239 123.869 356.584 123.192 356.584C122.515 356.584 121.922 357.239 121.922 357.988ZM39.8423 356.958C39.8423 357.52 56.6814 368.755 57.5276 368.755C58.2891 368.755 59.5584 365.947 59.0507 365.385C58.6276 364.917 41.1961 356.678 40.4346 356.678C40.0961 356.584 39.8423 356.771 39.8423 356.958ZM135.884 361.733C134.7 362.951 133.769 364.449 133.769 364.917C133.769 365.478 134.7 364.823 135.884 363.512C138 361.172 139.692 361.172 139.692 363.606C139.692 365.385 135.8 368.194 134.192 367.445C133.515 367.164 132.923 367.445 132.923 368.006C132.923 369.598 138.085 368.006 140.285 365.759C141.385 364.636 142.231 362.763 142.231 361.546C142.231 358.55 138.592 358.644 135.884 361.733ZM115.999 361.733C115.999 362.951 116.845 364.823 117.861 365.947C120.145 368.287 121.838 368.475 119.976 366.134C119.13 365.198 118.538 363.887 118.538 363.325C118.538 360.797 122.938 362.951 123.869 365.947C124.207 367.07 124.376 366.977 124.376 365.666C124.461 363.231 120.653 359.393 118.115 359.393C116.422 359.393 115.999 359.861 115.999 361.733ZM36.4575 362.202C37.1345 362.763 41.45 365.759 46.104 368.943C53.9736 374.373 54.4812 374.56 55.5813 372.969C56.2582 372.032 56.5967 371.096 56.5121 371.002C56.3428 370.815 51.8581 368.568 46.5271 366.04C37.1344 361.546 33.8343 360.329 36.4575 362.202ZM188.517 370.628C185.64 373.999 185.386 374.654 185.386 379.991C185.386 387.013 186.571 387.762 191.987 384.578C197.148 381.582 198.925 378.118 198.925 371.002C198.925 367.913 198.671 365.104 198.418 364.729C197.318 363.606 191.648 366.977 188.517 370.628ZM142.231 367.445C142.231 369.036 144.092 368.755 144.6 367.07C144.769 366.415 144.346 365.947 143.585 365.947C142.823 365.947 142.231 366.602 142.231 367.445ZM113.884 366.789C113.291 367.913 114.899 369.036 115.999 368.287C116.93 367.632 116.338 365.947 115.153 365.947C114.73 365.947 114.222 366.321 113.884 366.789ZM33.0728 367.257C33.0728 367.445 37.3037 370.441 42.4654 373.905C49.9118 378.961 52.0273 379.991 52.6197 378.961C53.0427 378.212 53.212 377.276 53.1274 376.807C52.9582 376.246 48.6426 373.905 43.5654 371.471C34.5959 367.07 33.0728 366.508 33.0728 367.257ZM122.176 368.381C122.43 368.662 123.192 368.755 123.784 368.475C124.461 368.194 124.207 367.913 123.276 367.913C122.345 367.819 121.838 368.1 122.176 368.381ZM125.815 370.815C124.715 372.594 124.63 373.156 125.646 374.841C127.846 378.586 132.923 377.369 132.923 373.062C132.923 368.662 128.1 367.164 125.815 370.815ZM138 371.096C134.869 372.875 134.784 373.718 137.577 375.122C140.708 376.714 144.431 376.527 146.039 374.654C147.393 373.156 147.393 372.969 145.616 371.377C143.331 369.317 141.215 369.224 138 371.096ZM112.53 371.564C110.499 373.437 110.499 373.437 112.107 374.841C113.037 375.59 115.153 376.152 116.761 376.152L119.807 376.058L117.268 375.403C113.714 374.56 113.968 372.126 117.607 371.752C119.722 371.471 120.23 371.19 119.299 370.534C117.353 369.13 114.645 369.598 112.53 371.564ZM30.7881 373.062C31.1265 373.437 35.2728 376.339 40.0114 379.616C47.5425 384.672 48.8964 385.327 49.9965 384.11C51.6888 382.331 50.9273 381.77 40.6884 376.807C32.1419 372.781 29.6034 371.845 30.7881 373.062ZM173.54 378.399C173.54 381.77 176.248 386.357 179.04 387.855C180.563 388.698 182.086 389.353 182.34 389.353C183.44 389.353 182.763 381.208 181.494 379.148C179.717 376.339 175.063 374.092 174.217 375.59C173.878 376.246 173.54 377.463 173.54 378.399ZM32.2265 381.676C35.6959 384.11 40.3499 387.294 42.55 388.698C46.5271 391.226 46.5271 391.226 47.4579 389.353C48.3041 387.575 48.0502 387.2 44.7501 385.702C42.7193 384.672 38.0652 382.425 34.342 380.646C25.2032 376.152 24.6955 376.433 32.2265 381.676ZM142.231 379.616C142.231 381.208 144.092 380.927 144.6 379.242C144.769 378.586 144.346 378.118 143.585 378.118C142.823 378.118 142.231 378.774 142.231 379.616ZM135.884 378.774C138.338 379.429 139.692 380.927 139.692 382.893C139.692 386.264 136.477 384.859 134.277 380.459C133.007 377.931 132.923 377.931 133.346 379.991C134.023 382.987 138.592 387.668 140.369 387.294C141.131 387.106 141.892 386.076 142.062 384.953C142.4 382.331 138.508 378.118 135.969 378.212C134.277 378.305 134.277 378.399 135.884 378.774ZM118.199 380.084C115.576 382.425 115.407 386.826 117.945 387.294C119.807 387.668 124.461 382.612 124.461 380.084C124.461 377.463 121.245 377.463 118.199 380.084ZM114.307 379.616C114.307 380.459 114.73 380.927 115.322 380.74C116.845 380.178 117.099 378.118 115.661 378.118C114.899 378.118 114.307 378.774 114.307 379.616ZM127.084 382.144C124.63 387.294 128.015 395.065 130.892 390.851C132.415 388.417 132.415 384.672 130.723 382.051C129.115 379.429 128.353 379.429 127.084 382.144ZM380.009 384.204C375.186 389.353 377.301 396.844 383.563 396.844C384.917 396.844 386.356 396.001 387.117 394.784C389.063 391.788 388.81 390.664 386.694 392.724C385.425 394.035 384.663 394.222 383.563 393.473C380.178 391.039 381.871 386.545 386.186 386.545C392.279 386.545 394.902 394.784 390.587 400.495C387.963 403.866 385.256 404.896 375.355 406.206C366.724 407.424 363.17 409.015 360.124 412.948C356.401 417.816 357.755 425.4 363.001 429.52C366.386 432.235 366.47 432.048 364.609 427.741C363.001 424.276 363.001 423.808 364.27 421.655C366.301 418.284 369.517 416.786 377.471 415.569C381.448 415.007 385.933 413.884 387.54 413.135C395.071 409.671 399.472 403.117 399.472 395.439V391.132L402.349 393.567C406.58 397.125 412.503 399.372 420.711 400.589C439.412 403.304 445.504 406.3 449.481 414.82C454.135 424.838 448.381 437.103 439.073 437.103C434.758 437.103 430.78 433.358 430.78 429.332C430.78 427.647 431.119 425.868 431.457 425.306C432.473 423.527 435.942 421.936 437.381 422.498C438.481 422.966 438.396 422.685 437.211 421.655C435.096 419.876 433.234 419.876 429.596 421.561C425.703 423.34 424.011 426.43 424.011 431.486C424.011 441.41 432.811 447.871 443.05 445.53C452.612 443.283 459.466 432.422 458.366 420.999C457.774 413.977 456.251 410.139 452.274 405.27C444.996 396.376 437.55 393.473 418.765 392.256C404.803 391.32 403.195 390.852 398.795 386.264C397.356 384.672 396.087 383.642 396.087 384.017C396.087 384.391 394.818 383.829 393.294 382.706C389.402 379.991 383.309 380.646 380.009 384.204ZM25.034 384.11C31.2958 388.885 42.8039 395.907 43.7347 395.533C46.6963 394.316 44.327 392.162 34.9344 387.762C24.6109 382.8 22.2416 381.957 25.034 384.11ZM190.717 388.511C188.686 389.541 187.079 391.039 187.079 391.694C187.079 393.379 193.679 396.095 196.302 395.439C197.487 395.158 199.433 394.128 200.618 393.192C202.31 391.694 202.479 391.226 201.548 389.915C200.618 388.698 197.741 387.294 194.779 386.638C194.525 386.545 192.748 387.387 190.717 388.511ZM133.515 387.949C133.43 388.417 134.023 388.979 134.784 389.166C135.715 389.353 136.308 388.885 136.308 387.949C136.308 386.357 133.769 386.264 133.515 387.949ZM121.922 387.949C121.922 388.698 122.515 389.353 123.192 389.353C123.869 389.353 124.461 388.698 124.461 387.949C124.461 387.2 123.869 386.545 123.192 386.545C122.515 386.545 121.922 387.2 121.922 387.949ZM21.2261 388.792C21.2261 389.353 39.673 401.525 40.5192 401.525C41.3654 401.525 42.6346 398.716 42.1269 398.154C41.7038 397.686 22.58 388.604 21.8185 388.511C21.48 388.417 21.2261 388.604 21.2261 388.792ZM301.568 409.015C300.045 410.045 298.268 410.607 297.591 410.326C296.829 410.045 294.967 410.326 293.275 410.888C289.129 412.386 287.013 417.067 288.452 421.561C289.298 424.089 289.213 425.119 288.113 427.647C285.49 433.452 289.298 439.912 295.306 439.912C297.76 439.912 299.283 440.568 300.806 442.253C303.852 445.623 309.86 445.53 312.737 442.159C314.007 440.661 314.853 438.508 314.853 437.01C314.853 435.512 315.191 434.295 315.614 434.295C316.038 434.295 317.561 433.171 318.999 431.86C321.115 429.894 321.622 428.771 321.622 425.774C321.622 421.842 318.745 417.442 316.122 417.442C315.361 417.442 314.853 416.599 314.853 415.007C314.853 413.603 313.837 411.45 312.399 409.858C309.437 406.581 305.545 406.3 301.568 409.015ZM217.88 419.689C212.295 422.591 208.656 427.647 203.325 440.099C197.91 452.458 195.118 455.361 188.179 455.361C183.948 455.361 183.355 455.08 180.648 451.896C177.601 448.151 177.178 446.092 178.701 442.346C180.563 437.852 187.163 436.822 188.348 440.848C189.11 443.47 188.094 444.874 185.725 444.313C183.355 443.845 183.017 445.062 185.217 446.372C187.163 447.496 190.717 445.717 191.14 443.283C191.817 439.725 190.463 437.01 187.417 435.605C183.525 433.826 180.14 434.575 176.417 438.227C166.178 448.245 176.671 466.877 192.664 467.064C199.856 467.064 209.249 460.885 213.649 453.114C214.749 451.241 217.203 445.623 219.149 440.661C223.295 430.269 227.611 424.651 232.857 422.872C236.665 421.655 236.327 420.719 231.419 418.846C226.596 416.974 222.788 417.161 217.88 419.689ZM348.87 434.482C348.108 435.512 347.516 440.287 347.77 443.283C347.939 445.249 350.562 445.623 351.747 443.938C352.339 443.002 352.931 442.627 352.931 443.096C352.931 443.564 353.693 443.002 354.624 441.785C356.485 439.35 356.824 436.167 355.301 434.482C353.947 432.984 349.97 433.077 348.87 434.482ZM370.193 448.9C368.84 451.147 368.84 451.335 370.532 453.207C372.817 455.735 376.371 454.893 377.132 451.616C378.232 446.56 372.817 444.406 370.193 448.9ZM351.662 447.402C351.916 447.964 351.408 449.462 350.477 450.773C349.462 452.177 348.7 454.612 348.7 456.391C348.7 458.076 348.193 459.668 347.6 459.855C346.923 460.229 347.008 460.417 347.854 460.417C348.531 460.51 350.054 461.353 351.239 462.383C352.424 463.413 354.624 464.255 356.231 464.255C357.839 464.255 359.87 464.911 360.716 465.847C362.409 467.532 362.832 471.184 361.224 470.622C359.955 470.154 357.162 473.712 357.162 475.678C357.162 477.738 359.024 479.236 361.562 479.236C364.439 479.236 366.132 476.333 364.863 473.712C364.186 472.401 364.27 471.652 365.201 470.809C366.724 469.405 365.963 467.251 363.762 466.877C360.97 466.409 359.955 463.787 361.647 461.634C362.493 460.604 363.339 458.357 363.593 456.578C364.016 453.769 363.762 453.02 361.393 450.867C359.955 449.462 357.839 448.245 356.655 448.245C353.608 448.058 353.101 447.964 352.424 447.121C351.493 446.185 351.07 446.279 351.662 447.402ZM298.352 456.952C298.268 464.349 297.337 466.315 288.79 476.708C285.152 481.202 281.005 487.1 279.736 489.722C276.69 495.901 275.928 504.609 277.959 510.32C282.952 524.27 300.214 529.794 307.999 519.964C311.299 515.844 311.976 512.848 310.707 508.166C308.845 501.238 300.383 499.553 298.437 505.639C297.506 508.635 298.945 511.069 301.652 511.069C303.26 510.975 303.26 510.882 301.906 510.039C300.129 508.916 300.045 507.043 301.737 505.451C303.768 503.579 307.237 506.575 307.237 510.32C307.237 515.001 304.445 517.623 299.368 517.623C295.814 517.623 294.798 517.155 292.344 514.44C289.89 511.724 289.467 510.601 289.467 506.949C289.467 501.332 290.652 498.897 297.929 489.535C305.037 480.359 307.237 475.959 307.83 469.405C308.253 465.285 307.914 463.787 306.053 459.948C304.783 457.42 302.583 454.424 301.06 453.207C299.622 452.084 298.352 451.147 298.352 451.147C298.352 451.147 298.352 453.769 298.352 456.952ZM339.392 462.944C339.392 463.694 340.238 464.255 341.508 464.255C342.862 464.255 343.623 463.694 343.623 462.851C343.623 462.102 344.131 461.446 344.639 461.353C345.231 461.259 344.808 460.978 343.623 460.604C341.339 459.855 339.392 460.885 339.392 462.944ZM211.872 465.379C206.795 471.371 206.033 476.052 209.587 479.142C210.772 480.172 214.834 482.138 218.641 483.543C228.119 486.913 231.757 490.845 227.78 493.28C226.849 493.748 224.819 494.216 223.211 494.216C219.657 494.216 218.472 496.463 220.672 499.178C223.126 502.081 240.219 511.256 242.165 510.601C244.112 509.852 244.196 507.979 242.419 504.983C241.742 503.766 241.235 501.8 241.404 500.583C241.658 498.71 242.165 498.429 244.873 498.523C247.327 498.616 249.189 499.646 252.912 503.017C255.535 505.451 259.005 508.073 260.612 508.822C263.32 510.133 263.828 510.133 266.366 508.822C269.413 507.23 272.459 501.332 272.544 497.212C272.544 495.34 272.374 495.246 270.767 496.276C269.328 497.306 268.905 497.212 268.059 495.901C267.297 494.871 266.197 494.591 264.674 494.871C263.066 495.246 262.22 494.871 261.882 493.935C261.543 492.812 260.697 492.531 258.92 492.999C256.804 493.467 256.297 493.186 255.874 491.594C255.535 489.909 255.197 489.722 253.674 490.658C252.235 491.501 251.643 491.314 250.627 489.909C249.781 488.879 248.512 488.224 247.327 488.411C245.889 488.692 245.212 488.224 244.873 486.819C244.535 485.321 243.942 485.041 242.335 485.415C240.727 485.883 240.219 485.602 239.796 484.104C239.542 482.7 238.781 482.232 237.173 482.325C235.396 482.513 234.804 482.044 234.634 480.453C234.465 478.861 233.873 478.487 232.096 478.58C230.319 478.768 229.726 478.299 229.557 476.708C229.388 475.21 228.796 474.742 227.103 474.835C225.496 474.929 224.734 474.461 224.396 473.15C224.057 472.12 223.126 471.277 222.195 471.277C221.095 471.277 220.418 470.528 220.249 469.218C220.08 467.813 219.318 467.064 217.711 466.877C215.934 466.69 215.426 466.128 215.511 464.443C215.595 461.634 215.003 461.821 211.872 465.379Z" fill="#1181B2" fill-opacity="0.1"/>
<path d="M251.388 187.774C242.841 196.949 233.026 207.436 229.556 211.087L223.125 217.735L219.402 216.798C217.371 216.33 215.509 216.237 215.256 216.518C215.002 216.798 217.71 220.45 221.264 224.663C228.879 233.651 229.387 235.805 224.733 240.392C223.041 241.984 221.01 243.295 220.079 243.295C218.217 243.295 213.479 238.052 207.809 229.719C203.494 223.259 202.478 219.701 204.086 216.33C204.763 215.113 210.602 210.151 217.117 205.376C232.856 193.953 265.519 171.202 266.281 171.202C266.619 171.202 259.934 178.692 251.388 187.774Z" fill="#1181B2" fill-opacity="0.1"/>
<path d="M236.75 247.508C238.527 248.351 241.574 251.909 245.381 257.62C252.32 268.013 258.243 274.098 264.59 277.563C267.128 278.873 269.159 280.184 269.159 280.371C269.159 281.121 260.613 277.095 256.72 274.567C254.436 273.162 249.189 268.013 245.043 263.144C237.343 254.156 231.165 248.913 228.373 248.913C226.258 248.913 226.511 247.415 228.711 246.666C231.673 245.823 233.789 246.01 236.75 247.508Z" fill="#1181B2" fill-opacity="0.1"/>
<path d="M287.606 288.798C288.791 289.734 289.468 291.139 289.468 293.011C289.468 295.352 289.129 295.727 287.098 295.727C284.052 295.727 281.006 292.637 281.006 289.641C281.006 287.675 281.429 287.3 283.375 287.3C284.645 287.3 286.591 287.955 287.606 288.798Z" fill="#1181B2" fill-opacity="0.1"/>
<path d="M144.6 192.924C145.446 194.141 145.869 196.108 145.7 198.074C145.7 198.729 144.685 199.946 143.585 200.695C141.215 202.474 138.677 201.538 137.154 198.261C135.038 194.048 141.808 189.273 144.6 192.924Z" fill="#1181B2" fill-opacity="0.1"/>
<path d="M284.052 217.921C297.761 237.49 324.754 276.439 326.192 278.686C329.069 283.367 317.9 270.166 297.507 244.886C286.337 231.123 276.69 218.577 276.014 217.079C275.083 214.925 274.998 213.802 275.76 211.929C276.267 210.619 277.114 209.589 277.452 209.589C277.875 209.589 280.837 213.334 284.052 217.921Z" fill="#1181B2" fill-opacity="0.1"/>
<path d="M446.012 312.205C449.905 314.077 452.528 316.886 454.644 321.38C455.997 324.282 456.251 326.436 455.997 331.866C455.744 337.578 455.32 339.263 453.12 342.727C451.767 344.974 448.974 347.783 446.943 349C439.412 353.588 426.889 352.277 420.627 346.378L417.665 343.57L422.488 345.349C432.812 349.281 442.628 347.034 447.959 339.544C450.92 335.518 451.851 328.777 450.328 323.533C448.128 316.137 439.835 311.83 433.912 314.92C429.681 317.073 427.65 323.159 430.273 325.593C431.204 326.436 431.289 326.249 431.035 324.376C430.189 319.788 436.535 316.324 440.174 319.414C442.12 321.005 443.474 324.282 443.474 327.185C443.474 330.93 438.312 335.986 434.504 335.986C430.95 335.986 427.142 333.926 425.365 331.117C423.504 328.215 423.673 321.193 425.619 317.635C428.919 311.643 439.158 308.928 446.012 312.205Z" fill="#1181B2" fill-opacity="0.1"/>
<path d="M367.993 247.602C370.531 249.568 370.447 253.126 367.654 255.186C365.623 256.59 365.2 256.59 363.169 255.373C360.208 253.5 359.785 249.568 362.408 247.602C364.777 245.729 365.623 245.729 367.993 247.602Z" fill="#1181B2" fill-opacity="0.1"/>
<path d="M143.077 268.949C143.077 269.698 142.738 270.54 142.315 270.821C141.892 271.196 141.723 270.54 141.977 269.51C142.484 267.357 143.077 267.076 143.077 268.949Z" fill="#1181B2" fill-opacity="0.1"/>
<path d="M162.457 271.945C162.457 272.975 162.203 273.256 161.949 272.507C161.695 271.851 161.78 271.008 162.034 270.728C162.288 270.353 162.542 270.915 162.457 271.945Z" fill="#1181B2" fill-opacity="0.1"/>
<path d="M152.299 271.945C152.299 272.975 152.045 273.256 151.791 272.507C151.537 271.851 151.622 271.008 151.876 270.728C152.13 270.353 152.383 270.915 152.299 271.945Z" fill="#1181B2" fill-opacity="0.1"/>
<path d="M164.146 274.754C164.146 275.784 163.892 276.065 163.638 275.316C163.384 274.661 163.469 273.818 163.723 273.537C163.977 273.163 164.231 273.724 164.146 274.754Z" fill="#1181B2" fill-opacity="0.1"/>
<path d="M174.216 276.065C174.216 277.376 174.047 277.844 173.793 277.188C173.624 276.627 173.624 275.503 173.793 274.848C174.047 274.286 174.216 274.754 174.216 276.065Z" fill="#1181B2" fill-opacity="0.1"/>
<path d="M166.686 275.69C166.686 276.72 166.432 277.001 166.178 276.252C165.924 275.596 166.009 274.754 166.262 274.473C166.516 274.098 166.77 274.66 166.686 275.69Z" fill="#1181B2" fill-opacity="0.1"/>
<path d="M171.765 276.626C171.765 277.656 171.511 277.937 171.257 277.188C171.003 276.533 171.088 275.69 171.342 275.409C171.595 275.035 171.849 275.596 171.765 276.626Z" fill="#1181B2" fill-opacity="0.1"/>
<path d="M184.54 277.843C184.54 278.873 184.202 279.903 183.778 280.184C183.44 280.465 183.271 279.622 183.525 278.405C183.948 275.596 184.54 275.315 184.54 277.843Z" fill="#1181B2" fill-opacity="0.1"/>
<path d="M176.84 277.563C176.84 278.593 176.586 278.874 176.332 278.125C176.078 277.469 176.163 276.627 176.417 276.346C176.671 275.971 176.924 276.533 176.84 277.563Z" fill="#1181B2" fill-opacity="0.1"/>
<path d="M181.915 278.498C181.915 279.528 181.661 279.809 181.407 279.06C181.153 278.405 181.238 277.562 181.492 277.281C181.746 276.907 182 277.469 181.915 278.498Z" fill="#1181B2" fill-opacity="0.1"/>
<path d="M187.079 279.248C187.079 279.997 186.74 280.839 186.317 281.12C185.894 281.495 185.725 280.839 185.979 279.809C186.486 277.656 187.079 277.375 187.079 279.248Z" fill="#1181B2" fill-opacity="0.1"/>
<path d="M192.155 280.184C192.155 280.933 191.816 281.776 191.393 282.057C190.97 282.431 190.801 281.776 191.055 280.746C191.562 278.592 192.155 278.312 192.155 280.184Z" fill="#1181B2" fill-opacity="0.1"/>
<path d="M188.687 281.307C188.687 282.337 188.433 282.618 188.179 281.869C187.925 281.213 188.01 280.371 188.264 280.09C188.518 279.715 188.772 280.277 188.687 281.307Z" fill="#1181B2" fill-opacity="0.1"/>
<path d="M123.952 285.146C123.191 288.704 122.768 289.079 122.768 286.083C122.768 284.772 123.191 283.367 123.614 283.086C124.206 282.712 124.291 283.367 123.952 285.146Z" fill="#1181B2" fill-opacity="0.1"/>
<path d="M133.938 287.019C133.514 288.985 133.345 289.172 133.091 287.861C132.922 286.925 133.091 285.801 133.599 285.24C134.107 284.678 134.191 285.24 133.938 287.019Z" fill="#1181B2" fill-opacity="0.1"/>
<path d="M141.298 287.862C141.298 288.892 141.044 289.173 140.791 288.424C140.537 287.768 140.621 286.925 140.875 286.645C141.129 286.27 141.383 286.832 141.298 287.862Z" fill="#1181B2" fill-opacity="0.1"/>
<path d="M138.762 287.862C138.762 288.892 138.508 289.173 138.254 288.424C138.001 287.768 138.085 286.925 138.339 286.645C138.593 286.27 138.847 286.832 138.762 287.862Z" fill="#1181B2" fill-opacity="0.1"/>
<path d="M217.965 299.002C223.042 300.126 240.219 303.777 256.043 307.054C271.867 310.331 283.798 313.14 282.444 313.327C279.652 313.702 237.342 309.301 226.427 307.522C218.134 306.211 212.718 303.777 208.149 299.47C204.595 296.1 205.187 296.006 217.965 299.002Z" fill="#1181B2" fill-opacity="0.1"/>
<path d="M287.098 314.171C286.506 314.452 285.744 314.358 285.49 314.078C285.152 313.797 285.66 313.516 286.59 313.609C287.521 313.609 287.775 313.89 287.098 314.171Z" fill="#1181B2" fill-opacity="0.1"/>
<path d="M321.114 287.862C321.368 288.705 321.622 290.952 321.622 292.918C321.622 295.821 322.13 297.038 324.584 299.378C326.192 300.97 327.545 302.655 327.545 303.123C327.545 303.592 325.684 304.715 323.399 305.558C319.676 306.869 318.999 307.524 317.73 311.269C316.968 313.516 315.868 315.389 315.276 315.389C314.768 315.389 313.076 313.703 311.552 311.644C309.099 308.179 308.506 307.898 304.698 307.898C302.414 307.898 300.383 307.524 300.129 307.056C299.875 306.588 300.806 304.622 302.16 302.749C305.037 298.817 305.037 298.536 303.768 293.574C303.344 291.701 303.091 289.735 303.429 289.267C303.683 288.799 305.714 289.079 307.998 289.828C312.06 291.326 312.229 291.326 315.953 288.892C320.437 285.896 320.437 285.896 321.114 287.862Z" fill="#1181B2" fill-opacity="0.1"/>
<path d="M143.078 316.511C150.102 320.444 152.64 328.308 149.002 334.769C142.825 346.004 124.885 340.293 124.885 327.091C124.885 317.354 134.617 311.736 143.078 316.511Z" fill="#1181B2" fill-opacity="0.1"/>
<path d="M189.619 351.435C191.819 354.431 188.519 359.019 185.557 356.959C183.78 355.648 183.188 351.903 184.711 350.873C186.403 349.656 188.434 349.843 189.619 351.435Z" fill="#1181B2" fill-opacity="0.1"/>
<path d="M165.672 391.226C175.572 397.873 170.749 415.007 158.564 416.224C153.572 416.786 149.341 414.071 146.971 408.734C141.894 397.312 155.602 384.391 165.672 391.226Z" fill="#1181B2" fill-opacity="0.1"/>
<path d="M279.735 346.004C279.227 346.566 271.527 352.371 262.472 359.019C253.249 365.76 245.718 371.939 245.21 373.156C244.279 375.591 243.941 375.684 242.079 374.373C239.287 372.407 243.01 368.756 256.38 360.236C273.388 349.375 280.75 344.881 279.735 346.004Z" fill="#1181B2" fill-opacity="0.1"/>
<path d="M229.812 373.343C232.604 374.186 234.804 375.216 234.804 375.778C234.635 376.901 221.858 385.983 221.265 385.328C221.011 385.047 221.096 382.238 221.434 379.148C222.111 371.939 223.042 371.283 229.812 373.343Z" fill="#1181B2" fill-opacity="0.1"/>
<path d="M241.658 376.34C241.996 376.902 242.081 377.464 241.996 377.557C238.358 380.834 180.225 422.311 178.532 422.779C177.602 423.06 176.925 422.873 176.925 422.311C176.925 421.281 238.865 375.31 240.219 375.31C240.727 375.31 241.404 375.778 241.658 376.34Z" fill="#1181B2" fill-opacity="0.1"/>
<path d="M280.329 412.48C278.891 418.472 278.468 437.01 279.568 443.189C280.076 445.905 279.991 447.403 279.145 448.62C278.045 450.211 277.875 450.211 273.898 448.62L269.837 446.934L270.344 441.785C271.191 434.201 279.737 407.143 281.345 407.143C281.514 407.143 281.091 409.577 280.329 412.48Z" fill="#1181B2" fill-opacity="0.1"/>
<path d="M242.505 441.878C243.012 442.627 234.889 457.701 233.958 457.701C233.873 457.701 235.312 453.862 237.174 449.275C240.558 441.036 241.404 439.818 242.505 441.878Z" fill="#1181B2" fill-opacity="0.1"/>
<path d="M247.158 444.125C247.158 444.967 239.373 457.794 239.034 457.42C238.865 457.232 239.965 454.049 241.488 450.398C243.35 445.81 244.704 443.656 245.635 443.656C246.481 443.656 247.158 443.844 247.158 444.125Z" fill="#1181B2" fill-opacity="0.1"/>
<path d="M250.544 446.559C250.544 447.121 248.598 450.772 246.313 454.704C243.944 458.637 242.082 461.539 242.082 461.165C242.082 459.011 248.428 445.529 249.359 445.529C250.036 445.529 250.544 445.997 250.544 446.559Z" fill="#1181B2" fill-opacity="0.1"/>
<path d="M254.35 448.339C254.773 449.088 247.496 462.383 246.65 462.383C246.311 462.383 247.242 459.574 249.95 452.739C252.065 447.59 253.25 446.373 254.35 448.339Z" fill="#1181B2" fill-opacity="0.1"/>
<path d="M257.821 450.679C258.244 451.803 251.136 465.191 250.036 465.191C249.867 465.191 250.713 462.757 251.897 459.761C253.167 456.859 254.521 453.301 255.028 451.803C256.128 448.994 257.144 448.526 257.821 450.679Z" fill="#1181B2" fill-opacity="0.1"/>
<path d="M261.883 452.926C262.306 453.582 256.214 464.911 254.352 466.877C253.675 467.626 254.775 464.536 257.568 457.421C259.683 452.365 260.868 451.054 261.883 452.926Z" fill="#1181B2" fill-opacity="0.1"/>
<path d="M266.113 454.704C266.451 455.359 260.189 466.876 257.989 469.404C257.059 470.433 258.666 466.033 261.628 459.198C263.659 454.61 265.182 453.019 266.113 454.704Z" fill="#1181B2" fill-opacity="0.1"/>
<path d="M269.58 456.859C269.919 457.327 268.227 461.072 265.773 465.005C260.949 472.869 260.865 472.682 264.926 462.57C267.634 455.923 268.48 454.893 269.58 456.859Z" fill="#1181B2" fill-opacity="0.1"/>
<path d="M273.134 458.731C273.811 459.48 273.134 461.353 270.68 465.753C267.042 472.12 265.265 474.273 266.534 470.622C268.057 466.409 271.696 457.701 271.95 457.701C272.119 457.701 272.627 458.169 273.134 458.731Z" fill="#1181B2" fill-opacity="0.1"/>
<path d="M131.063 370.815C133.263 373.249 130.978 376.901 127.847 375.777C125.139 374.841 126.155 369.691 129.117 369.691C129.624 369.691 130.47 370.159 131.063 370.815ZM127.17 372.781C126.832 374.747 129.286 375.964 130.555 374.56C131.232 373.811 131.232 373.062 130.386 372.032C129.032 370.253 127.509 370.628 127.17 372.781Z" fill="#1181B2" fill-opacity="0.1"/>
<path d="M143.332 372.22C144.094 373.063 142.317 375.31 140.793 375.31C140.116 375.31 138.763 374.841 137.832 374.28C136.393 373.437 136.309 373.063 137.239 372.407C138.593 371.471 142.57 371.284 143.332 372.22Z" fill="#1181B2" fill-opacity="0.1"/>
<path d="M123.615 380.272C123.615 382.332 120.484 384.953 118.877 384.298C117.607 383.736 117.607 383.455 118.792 381.583C120.23 379.148 123.615 378.212 123.615 380.272Z" fill="#1181B2" fill-opacity="0.1"/>
<path d="M130.215 382.799C131.146 385.608 130.554 388.417 129.031 388.417C127.169 388.417 126.577 383.829 128.1 382.05C129.369 380.74 129.538 380.74 130.215 382.799Z" fill="#1181B2" fill-opacity="0.1"/>
<path d="M310.622 411.824C311.552 412.853 312.314 414.913 312.314 416.505C312.314 418.565 312.737 419.314 313.837 419.314C316.206 419.314 319.083 422.872 319.083 425.774C319.083 428.583 316.037 432.422 313.753 432.422C312.652 432.422 312.314 433.264 312.314 435.511C312.314 441.972 305.46 444.499 301.567 439.537C299.96 437.477 299.113 437.103 297.167 437.571C292.006 438.788 288.028 431.204 291.582 426.804C292.936 425.212 292.936 424.838 291.667 422.872C289.721 419.876 289.975 417.722 292.513 414.913C294.206 413.041 295.221 412.666 297.336 413.041C299.283 413.322 300.637 412.947 302.075 411.73C304.614 409.389 308.506 409.483 310.622 411.824ZM297.844 419.876C296.49 421.561 295.813 423.34 295.813 425.961C295.813 430.549 298.183 433.358 302.752 434.013C310.114 435.137 314.853 424.838 309.352 419.595C306.137 416.505 300.637 416.599 297.844 419.876Z" fill="#1181B2" fill-opacity="0.1"/>
<path d="M308.505 420.719C311.889 424.37 311.212 429.707 307.066 432.047C302.074 434.856 297.081 431.486 297.081 425.306C297.081 419.127 304.443 416.131 308.505 420.719Z" fill="#1181B2" fill-opacity="0.1"/>
<path d="M89.512 173.729C90.5274 173.917 92.3044 175.134 93.4045 176.445C99.3278 182.999 95.0122 193.204 84.7734 196.574C79.7809 198.166 66.9188 198.822 66.9188 197.417C66.9188 195.264 73.096 183.373 76.3961 179.16C78.5116 176.538 80.8809 174.666 82.8271 174.01C86.0426 173.074 86.2965 173.074 89.512 173.729Z" fill="#1181B2" fill-opacity="0.1"/>
<path d="M365.626 535.506C365.626 547.022 371.55 563.968 380.096 576.702C385.512 584.847 399.135 599.172 407.597 605.82C419.105 614.808 433.744 623.422 449.23 630.444C474.53 641.866 482.4 646.36 492.3 654.88L497.039 659H436.452H375.781L373.58 653.57C363.257 628.197 357.926 593.835 359.703 564.156C360.972 544.4 365.626 521.555 365.626 535.506Z" fill="#1181B2" fill-opacity="0.1"/>
<path d="M301.399 635.219C313.161 637.559 327.123 644.113 340.662 653.757L347.432 658.532L333.131 658.813L318.915 659L314.515 655.91C305.715 649.45 295.476 647.016 284.814 648.888C278.721 649.918 269.921 653.757 266.028 657.127C264.082 658.813 262.644 659 252.489 659H241.151L244.197 654.88C256.297 638.496 278.975 630.725 301.399 635.219Z" fill="#1181B2" fill-opacity="0.1"/>
</svg>
