<svg width="558" height="547" viewBox="0 0 558 547" fill="none" xmlns="http://www.w3.org/2000/svg">
<path fill-rule="evenodd" clip-rule="evenodd" d="M19.5819 468.081C18.4261 468.185 16.8715 468.519 15.8654 468.88L15.022 469.183L15.8654 469.139C16.8553 469.087 18.9246 469.21 20.1269 469.393C27.8173 470.561 33.5905 475.277 34.8997 481.46C35.1635 482.707 35.1641 484.956 34.9011 486.198C34.6713 487.283 34.3699 488.211 33.9471 489.137C33.7661 489.533 33.6297 489.869 33.6441 489.883C33.7125 489.953 35.3613 489.119 36.0295 488.677C36.8919 488.107 38.0205 487.031 38.5641 486.261C39.6361 484.743 40.1695 482.669 39.9529 480.861C39.6565 478.385 38.3397 475.923 36.1805 473.809C34.6547 472.314 33.1849 471.289 31.1355 470.29C27.4665 468.502 23.4539 467.735 19.5819 468.081ZM15.4015 471.283C8.63188 472.136 2.80939 476.809 0.757246 483.035C-0.632379 487.25 -0.0960463 491.537 2.26605 495.093C3.00177 496.201 4.57711 497.774 5.73531 498.557C8.23555 500.248 11.2986 501.157 14.4195 501.133C15.2779 501.127 15.2969 501.148 13.9667 500.63C10.7039 499.36 7.80127 496.483 6.31017 493.041C4.74563 489.429 4.56177 485.383 5.78953 481.585C6.84365 478.324 8.96309 475.474 11.7356 473.59C13.5843 472.333 15.5458 471.586 17.8896 471.247C18.7671 471.12 16.4273 471.154 15.4015 471.283ZM19.45 474.296C14.8026 474.801 10.8322 478.493 9.56275 483.49C9.22909 484.803 9.14417 486.841 9.36599 488.211C9.95512 491.852 12.2167 494.969 15.4802 496.638C15.8176 496.811 16.1113 496.934 16.1329 496.912C16.1545 496.89 16.0365 496.692 15.8709 496.471C13.216 492.938 12.9272 487.57 15.1471 483.019C16.8747 479.476 19.8686 477.021 23.2491 476.374C23.9873 476.233 25.6885 476.249 26.3871 476.403C26.7001 476.473 26.9565 476.518 26.9565 476.505C26.9565 476.45 25.6089 475.61 25.1153 475.357C23.4979 474.53 21.2223 474.104 19.45 474.296ZM25.4805 478.312C27.2709 479.682 27.6285 481.843 26.3915 483.819C25.2443 485.652 23.0389 486.829 20.7497 486.831C18.7794 486.832 17.2254 486.01 16.4237 484.542L16.1531 484.047L16.2061 484.518C16.4373 486.573 17.5922 488.444 19.3787 489.658C20.6419 490.516 21.6445 490.817 23.2031 490.805C24.4977 490.796 25.3281 490.586 26.5769 489.953C28.3411 489.058 29.5961 487.405 30.0859 485.332C30.3179 484.35 30.3393 482.85 30.1327 482.033C29.7779 480.63 28.8661 479.362 27.7959 478.783C27.2329 478.478 26.1631 478.177 25.6567 478.181C25.3309 478.183 25.3211 478.191 25.4805 478.312ZM38.4017 490.216C37.8775 492.803 36.4437 495.524 34.5039 497.613C28.7799 503.777 18.4908 505.798 9.10799 502.601C8.19489 502.289 7.83795 502.149 6.58775 501.612L6.25037 501.467L6.75643 501.996C8.05303 503.352 9.87321 504.692 11.7128 505.644C14.7865 507.235 17.9046 507.997 21.3477 508C24.5841 508.002 27.1779 507.429 29.8663 506.117C31.7921 505.178 33.1543 504.2 34.5895 502.727C37.3475 499.897 38.8541 496.218 38.8471 492.331C38.8457 491.55 38.6569 489.606 38.5743 489.523C38.5597 489.508 38.4819 489.82 38.4017 490.216ZM31.7405 491.759C30.1703 493.268 28.3027 494.309 26.1131 494.898C24.8181 495.247 22.7959 495.335 21.5091 495.1C19.4503 494.723 17.7997 493.853 16.5558 492.488L16.0763 491.962V492.228C16.0763 492.643 16.3236 493.648 16.5827 494.286C17.7716 497.214 20.9785 498.988 24.3419 498.576C25.9841 498.375 27.5163 497.756 28.7853 496.781C30.3095 495.611 31.6925 493.641 32.3169 491.751C32.4359 491.391 32.5215 491.086 32.5069 491.072C32.4927 491.059 32.1477 491.368 31.7405 491.759Z" fill="white"/>
<path fill-rule="evenodd" clip-rule="evenodd" d="M19.5819 468.081C18.4261 468.185 16.8715 468.519 15.8654 468.88L15.022 469.183L15.8654 469.139C16.8553 469.087 18.9246 469.21 20.1269 469.393C27.8173 470.561 33.5905 475.277 34.8997 481.46C35.1635 482.707 35.1641 484.956 34.9011 486.198C34.6713 487.283 34.3699 488.211 33.9471 489.137C33.7661 489.533 33.6297 489.869 33.6441 489.883C33.7125 489.953 35.3613 489.119 36.0295 488.677C36.8919 488.107 38.0205 487.031 38.5641 486.261C39.6361 484.743 40.1695 482.669 39.9529 480.861C39.6565 478.385 38.3397 475.923 36.1805 473.809C34.6547 472.314 33.1849 471.289 31.1355 470.29C27.4665 468.502 23.4539 467.735 19.5819 468.081ZM15.4015 471.283C8.63188 472.136 2.80939 476.809 0.757246 483.035C-0.632379 487.25 -0.0960463 491.537 2.26605 495.093C3.00177 496.201 4.57711 497.774 5.73531 498.557C8.23555 500.248 11.2986 501.157 14.4195 501.133C15.2779 501.127 15.2969 501.148 13.9667 500.63C10.7039 499.36 7.80127 496.483 6.31017 493.041C4.74563 489.429 4.56177 485.383 5.78953 481.585C6.84365 478.324 8.96309 475.474 11.7356 473.59C13.5843 472.333 15.5458 471.586 17.8896 471.247C18.7671 471.12 16.4273 471.154 15.4015 471.283ZM19.45 474.296C14.8026 474.801 10.8322 478.493 9.56275 483.49C9.22909 484.803 9.14417 486.841 9.36599 488.211C9.95512 491.852 12.2167 494.969 15.4802 496.638C15.8176 496.811 16.1113 496.934 16.1329 496.912C16.1545 496.89 16.0365 496.692 15.8709 496.471C13.216 492.938 12.9272 487.57 15.1471 483.019C16.8747 479.476 19.8686 477.021 23.2491 476.374C23.9873 476.233 25.6885 476.249 26.3871 476.403C26.7001 476.473 26.9565 476.518 26.9565 476.505C26.9565 476.45 25.6089 475.61 25.1153 475.357C23.4979 474.53 21.2223 474.104 19.45 474.296ZM25.4805 478.312C27.2709 479.682 27.6285 481.843 26.3915 483.819C25.2443 485.652 23.0389 486.829 20.7497 486.831C18.7794 486.832 17.2254 486.01 16.4237 484.542L16.1531 484.047L16.2061 484.518C16.4373 486.573 17.5922 488.444 19.3787 489.658C20.6419 490.516 21.6445 490.817 23.2031 490.805C24.4977 490.796 25.3281 490.586 26.5769 489.953C28.3411 489.058 29.5961 487.405 30.0859 485.332C30.3179 484.35 30.3393 482.85 30.1327 482.033C29.7779 480.63 28.8661 479.362 27.7959 478.783C27.2329 478.478 26.1631 478.177 25.6567 478.181C25.3309 478.183 25.3211 478.191 25.4805 478.312ZM38.4017 490.216C37.8775 492.803 36.4437 495.524 34.5039 497.613C28.7799 503.777 18.4908 505.798 9.10799 502.601C8.19489 502.289 7.83795 502.149 6.58775 501.612L6.25037 501.467L6.75643 501.996C8.05303 503.352 9.87321 504.692 11.7128 505.644C14.7865 507.235 17.9046 507.997 21.3477 508C24.5841 508.002 27.1779 507.429 29.8663 506.117C31.7921 505.178 33.1543 504.2 34.5895 502.727C37.3475 499.897 38.8541 496.218 38.8471 492.331C38.8457 491.55 38.6569 489.606 38.5743 489.523C38.5597 489.508 38.4819 489.82 38.4017 490.216ZM31.7405 491.759C30.1703 493.268 28.3027 494.309 26.1131 494.898C24.8181 495.247 22.7959 495.335 21.5091 495.1C19.4503 494.723 17.7997 493.853 16.5558 492.488L16.0763 491.962V492.228C16.0763 492.643 16.3236 493.648 16.5827 494.286C17.7716 497.214 20.9785 498.988 24.3419 498.576C25.9841 498.375 27.5163 497.756 28.7853 496.781C30.3095 495.611 31.6925 493.641 32.3169 491.751C32.4359 491.391 32.5215 491.086 32.5069 491.072C32.4927 491.059 32.1477 491.368 31.7405 491.759Z" fill="#1181B2" fill-opacity="0.3"/>
<path fill-rule="evenodd" clip-rule="evenodd" d="M27.4772 360.101C26.0325 360.231 24.0892 360.649 22.8316 361.101L21.7774 361.479L22.8316 361.424C24.069 361.359 26.6556 361.512 28.1585 361.741C37.7715 363.201 44.988 369.096 46.6245 376.825C46.9542 378.383 46.955 381.194 46.6262 382.747C46.339 384.104 45.9622 385.264 45.4337 386.421C45.2075 386.916 45.037 387.336 45.055 387.354C45.1405 387.441 47.2015 386.399 48.0367 385.846C49.1147 385.133 50.5255 383.788 51.205 382.826C52.545 380.929 53.2117 378.337 52.941 376.077C52.5705 372.981 50.9245 369.904 48.2255 367.261C46.3182 365.393 44.481 364.111 41.9192 362.863C37.333 360.627 32.3172 359.668 27.4772 360.101ZM22.2518 364.104C13.7897 365.17 6.51161 371.011 3.94644 378.793C2.20941 384.063 2.87982 389.421 5.83244 393.867C6.75209 395.252 8.72126 397.218 10.169 398.197C13.2943 400.31 17.1231 401.446 21.0242 401.417C22.0972 401.408 22.121 401.435 20.4582 400.788C16.3798 399.201 12.7515 395.604 10.8876 391.301C8.93191 386.786 8.70209 381.729 10.2368 376.982C11.5544 372.905 14.2037 369.343 17.6694 366.987C19.9802 365.417 22.4321 364.483 25.3619 364.059C26.4588 363.9 23.534 363.942 22.2518 364.104ZM27.3123 367.87C21.5031 368.502 16.5401 373.116 14.9533 379.362C14.5362 381.004 14.4301 383.551 14.7074 385.264C15.4438 389.814 18.2707 393.711 22.3501 395.798C22.7719 396.013 23.139 396.167 23.1659 396.14C23.1929 396.112 23.0455 395.865 22.8385 395.589C19.5198 391.173 19.1588 384.463 21.9337 378.773C24.0933 374.345 27.8356 371.276 32.0612 370.468C32.984 370.291 35.1105 370.311 35.9837 370.504C36.375 370.591 36.6955 370.648 36.6955 370.631C36.6955 370.562 35.011 369.512 34.394 369.197C32.3722 368.163 29.5277 367.63 27.3123 367.87ZM34.8505 372.891C37.0885 374.602 37.5355 377.304 35.9892 379.774C34.5552 382.065 31.7985 383.536 28.937 383.538C26.4742 383.54 24.5317 382.512 23.5295 380.678L23.1912 380.058L23.2575 380.647C23.5464 383.216 24.9902 385.555 27.2232 387.073C28.8022 388.146 30.0555 388.521 32.0037 388.507C33.622 388.495 34.66 388.233 36.221 387.441C38.4262 386.323 39.995 384.257 40.6072 381.665C40.8972 380.437 40.924 378.562 40.6657 377.542C40.2222 375.788 39.0825 374.202 37.7447 373.478C37.041 373.097 35.7037 372.721 35.0707 372.726C34.6635 372.729 34.6512 372.738 34.8505 372.891ZM51.002 387.77C50.3467 391.004 48.5545 394.405 46.1297 397.016C38.9747 404.721 26.1134 407.247 14.3849 403.251C13.2435 402.862 12.7973 402.687 11.2346 402.015L10.8128 401.834L11.4454 402.495C13.0662 404.19 15.3414 405.865 17.6409 407.055C21.483 409.044 25.3807 409.997 29.6845 410C33.73 410.003 36.9722 409.287 40.3327 407.647C42.74 406.472 44.4427 405.25 46.2367 403.409C49.6842 399.871 51.5675 395.273 51.5587 390.414C51.557 389.438 51.321 387.008 51.2177 386.903C51.1995 386.885 51.1022 387.274 51.002 387.77ZM42.6755 389.699C40.7127 391.585 38.3782 392.887 35.6412 393.623C34.0225 394.059 31.4947 394.169 29.8862 393.875C27.3127 393.404 25.2495 392.316 23.6947 390.61L23.0952 389.952V390.285C23.0952 390.803 23.4044 392.06 23.7283 392.857C25.2143 396.518 29.223 398.735 33.4272 398.22C35.48 397.969 37.3952 397.195 38.9815 395.977C40.8867 394.513 42.6155 392.051 43.396 389.689C43.5447 389.239 43.6517 388.857 43.6335 388.84C43.6157 388.823 43.1845 389.21 42.6755 389.699Z" fill="white"/>
<path fill-rule="evenodd" clip-rule="evenodd" d="M27.4772 360.101C26.0325 360.231 24.0892 360.649 22.8316 361.101L21.7774 361.479L22.8316 361.424C24.069 361.359 26.6556 361.512 28.1585 361.741C37.7715 363.201 44.988 369.096 46.6245 376.825C46.9542 378.383 46.955 381.194 46.6262 382.747C46.339 384.104 45.9622 385.264 45.4337 386.421C45.2075 386.916 45.037 387.336 45.055 387.354C45.1405 387.441 47.2015 386.399 48.0367 385.846C49.1147 385.133 50.5255 383.788 51.205 382.826C52.545 380.929 53.2117 378.337 52.941 376.077C52.5705 372.981 50.9245 369.904 48.2255 367.261C46.3182 365.393 44.481 364.111 41.9192 362.863C37.333 360.627 32.3172 359.668 27.4772 360.101ZM22.2518 364.104C13.7897 365.17 6.51161 371.011 3.94644 378.793C2.20941 384.063 2.87982 389.421 5.83244 393.867C6.75209 395.252 8.72126 397.218 10.169 398.197C13.2943 400.31 17.1231 401.446 21.0242 401.417C22.0972 401.408 22.121 401.435 20.4582 400.788C16.3798 399.201 12.7515 395.604 10.8876 391.301C8.93191 386.786 8.70209 381.729 10.2368 376.982C11.5544 372.905 14.2037 369.343 17.6694 366.987C19.9802 365.417 22.4321 364.483 25.3619 364.059C26.4588 363.9 23.534 363.942 22.2518 364.104ZM27.3123 367.87C21.5031 368.502 16.5401 373.116 14.9533 379.362C14.5362 381.004 14.4301 383.551 14.7074 385.264C15.4438 389.814 18.2707 393.711 22.3501 395.798C22.7719 396.013 23.139 396.167 23.1659 396.14C23.1929 396.112 23.0455 395.865 22.8385 395.589C19.5198 391.173 19.1588 384.463 21.9337 378.773C24.0933 374.345 27.8356 371.276 32.0612 370.468C32.984 370.291 35.1105 370.311 35.9837 370.504C36.375 370.591 36.6955 370.648 36.6955 370.631C36.6955 370.562 35.011 369.512 34.394 369.197C32.3722 368.163 29.5277 367.63 27.3123 367.87ZM34.8505 372.891C37.0885 374.602 37.5355 377.304 35.9892 379.774C34.5552 382.065 31.7985 383.536 28.937 383.538C26.4742 383.54 24.5317 382.512 23.5295 380.678L23.1912 380.058L23.2575 380.647C23.5464 383.216 24.9902 385.555 27.2232 387.073C28.8022 388.146 30.0555 388.521 32.0037 388.507C33.622 388.495 34.66 388.233 36.221 387.441C38.4262 386.323 39.995 384.257 40.6072 381.665C40.8972 380.437 40.924 378.562 40.6657 377.542C40.2222 375.788 39.0825 374.202 37.7447 373.478C37.041 373.097 35.7037 372.721 35.0707 372.726C34.6635 372.729 34.6512 372.738 34.8505 372.891ZM51.002 387.77C50.3467 391.004 48.5545 394.405 46.1297 397.016C38.9747 404.721 26.1134 407.247 14.3849 403.251C13.2435 402.862 12.7973 402.687 11.2346 402.015L10.8128 401.834L11.4454 402.495C13.0662 404.19 15.3414 405.865 17.6409 407.055C21.483 409.044 25.3807 409.997 29.6845 410C33.73 410.003 36.9722 409.287 40.3327 407.647C42.74 406.472 44.4427 405.25 46.2367 403.409C49.6842 399.871 51.5675 395.273 51.5587 390.414C51.557 389.438 51.321 387.008 51.2177 386.903C51.1995 386.885 51.1022 387.274 51.002 387.77ZM42.6755 389.699C40.7127 391.585 38.3782 392.887 35.6412 393.623C34.0225 394.059 31.4947 394.169 29.8862 393.875C27.3127 393.404 25.2495 392.316 23.6947 390.61L23.0952 389.952V390.285C23.0952 390.803 23.4044 392.06 23.7283 392.857C25.2143 396.518 29.223 398.735 33.4272 398.22C35.48 397.969 37.3952 397.195 38.9815 395.977C40.8867 394.513 42.6155 392.051 43.396 389.689C43.5447 389.239 43.6517 388.857 43.6335 388.84C43.6157 388.823 43.1845 389.21 42.6755 389.699Z" fill="#1181B2" fill-opacity="0.3"/>
<path fill-rule="evenodd" clip-rule="evenodd" d="M96.2679 405.142C94.2454 405.323 91.5247 405.908 89.7641 406.541L88.2881 407.071L89.7641 406.993C91.4965 406.902 95.1177 407.117 97.2217 407.437C110.68 409.481 120.783 417.734 123.074 428.556C123.536 430.736 123.537 434.672 123.077 436.846C122.674 438.745 122.147 440.369 121.407 441.989C121.09 442.682 120.852 443.27 120.877 443.296C120.997 443.417 123.882 441.958 125.051 441.184C126.56 440.187 128.536 438.304 129.487 436.957C131.363 434.3 132.296 430.671 131.917 427.508C131.399 423.174 129.094 418.866 125.316 415.165C122.645 412.55 120.073 410.756 116.487 409.008C110.066 405.878 103.044 404.536 96.2679 405.142ZM88.9523 410.745C77.1054 412.238 66.9161 420.415 63.3248 431.311C60.893 438.688 61.8316 446.189 65.9652 452.413C67.2527 454.352 70.0096 457.105 72.0364 458.475C76.4119 461.434 81.7722 463.024 87.2337 462.983C88.7359 462.972 88.7693 463.009 86.4414 462.103C80.7315 459.881 75.6519 454.845 73.0424 448.821C70.3045 442.5 69.9827 435.421 72.1313 428.774C73.976 423.067 77.685 418.08 82.5369 414.782C85.7722 412.583 89.2047 411.276 93.3065 410.682C94.8421 410.46 90.7474 410.519 88.9523 410.745ZM96.0371 416.019C87.9042 416.903 80.956 423.363 78.7345 432.107C78.1505 434.406 78.0019 437.971 78.3901 440.37C79.4211 446.74 83.3788 452.195 89.09 455.117C89.6804 455.419 90.1944 455.635 90.2321 455.596C90.2699 455.558 90.0636 455.21 89.7737 454.825C85.1276 448.642 84.6222 439.248 88.507 431.283C91.5304 425.083 96.7696 420.786 102.686 419.655C103.977 419.408 106.955 419.435 108.177 419.706C108.725 419.827 109.174 419.907 109.174 419.884C109.174 419.787 106.815 418.317 105.951 417.876C103.121 416.428 99.1387 415.682 96.0371 416.019ZM106.591 423.047C109.724 425.443 110.35 429.226 108.185 432.684C106.177 435.891 102.318 437.951 98.3116 437.954C94.8637 437.956 92.1442 436.517 90.7411 433.949L90.2676 433.082L90.3603 433.906C90.7648 437.503 92.7861 440.777 95.9124 442.902C98.123 444.404 99.8775 444.93 102.605 444.909C104.871 444.893 106.324 444.526 108.509 443.417C111.597 441.852 113.793 438.96 114.65 435.331C115.056 433.612 115.093 430.987 114.732 429.558C114.111 427.103 112.515 424.883 110.642 423.869C109.657 423.336 107.785 422.809 106.899 422.816C106.329 422.821 106.312 422.834 106.591 423.047ZM129.203 443.878C128.285 448.406 125.776 453.167 122.381 456.822C112.364 467.61 94.3586 471.146 77.9386 465.551C76.3407 465.006 75.7161 464.761 73.5282 463.821L72.9378 463.567L73.8234 464.493C76.0924 466.866 79.2778 469.211 82.4971 470.877C87.876 473.661 93.3328 474.995 99.3581 475C105.022 475.004 109.561 474.002 114.266 471.706C117.636 470.061 120.02 468.35 122.531 465.773C127.358 460.819 129.994 454.382 129.982 447.58C129.98 446.213 129.649 442.811 129.505 442.665C129.479 442.638 129.343 443.184 129.203 443.878ZM117.546 446.578C114.798 449.219 111.529 451.041 107.698 452.072C105.431 452.682 101.892 452.837 99.6406 452.425C96.0377 451.766 93.1491 450.242 90.9724 447.854L90.1331 446.934V447.4C90.1331 448.125 90.566 449.884 91.0194 451.001C93.0999 456.125 98.712 459.228 104.598 458.508C107.472 458.156 110.153 457.073 112.374 455.367C115.041 453.319 117.462 449.871 118.554 446.565C118.762 445.935 118.912 445.4 118.887 445.376C118.862 445.353 118.258 445.894 117.546 446.578Z" fill="white"/>
<path fill-rule="evenodd" clip-rule="evenodd" d="M96.2679 405.142C94.2454 405.323 91.5247 405.908 89.7641 406.541L88.2881 407.071L89.7641 406.993C91.4965 406.902 95.1177 407.117 97.2217 407.437C110.68 409.481 120.783 417.734 123.074 428.556C123.536 430.736 123.537 434.672 123.077 436.846C122.674 438.745 122.147 440.369 121.407 441.989C121.09 442.682 120.852 443.27 120.877 443.296C120.997 443.417 123.882 441.958 125.051 441.184C126.56 440.187 128.536 438.304 129.487 436.957C131.363 434.3 132.296 430.671 131.917 427.508C131.399 423.174 129.094 418.866 125.316 415.165C122.645 412.55 120.073 410.756 116.487 409.008C110.066 405.878 103.044 404.536 96.2679 405.142ZM88.9523 410.745C77.1054 412.238 66.9161 420.415 63.3248 431.311C60.893 438.688 61.8316 446.189 65.9652 452.413C67.2527 454.352 70.0096 457.105 72.0364 458.475C76.4119 461.434 81.7722 463.024 87.2337 462.983C88.7359 462.972 88.7693 463.009 86.4414 462.103C80.7315 459.881 75.6519 454.845 73.0424 448.821C70.3045 442.5 69.9827 435.421 72.1313 428.774C73.976 423.067 77.685 418.08 82.5369 414.782C85.7722 412.583 89.2047 411.276 93.3065 410.682C94.8421 410.46 90.7474 410.519 88.9523 410.745ZM96.0371 416.019C87.9042 416.903 80.956 423.363 78.7345 432.107C78.1505 434.406 78.0019 437.971 78.3901 440.37C79.4211 446.74 83.3788 452.195 89.09 455.117C89.6804 455.419 90.1944 455.635 90.2321 455.596C90.2699 455.558 90.0636 455.21 89.7737 454.825C85.1276 448.642 84.6222 439.248 88.507 431.283C91.5304 425.083 96.7696 420.786 102.686 419.655C103.977 419.408 106.955 419.435 108.177 419.706C108.725 419.827 109.174 419.907 109.174 419.884C109.174 419.787 106.815 418.317 105.951 417.876C103.121 416.428 99.1387 415.682 96.0371 416.019ZM106.591 423.047C109.724 425.443 110.35 429.226 108.185 432.684C106.177 435.891 102.318 437.951 98.3116 437.954C94.8637 437.956 92.1442 436.517 90.7411 433.949L90.2676 433.082L90.3603 433.906C90.7648 437.503 92.7861 440.777 95.9124 442.902C98.123 444.404 99.8775 444.93 102.605 444.909C104.871 444.893 106.324 444.526 108.509 443.417C111.597 441.852 113.793 438.96 114.65 435.331C115.056 433.612 115.093 430.987 114.732 429.558C114.111 427.103 112.515 424.883 110.642 423.869C109.657 423.336 107.785 422.809 106.899 422.816C106.329 422.821 106.312 422.834 106.591 423.047ZM129.203 443.878C128.285 448.406 125.776 453.167 122.381 456.822C112.364 467.61 94.3586 471.146 77.9386 465.551C76.3407 465.006 75.7161 464.761 73.5282 463.821L72.9378 463.567L73.8234 464.493C76.0924 466.866 79.2778 469.211 82.4971 470.877C87.876 473.661 93.3328 474.995 99.3581 475C105.022 475.004 109.561 474.002 114.266 471.706C117.636 470.061 120.02 468.35 122.531 465.773C127.358 460.819 129.994 454.382 129.982 447.58C129.98 446.213 129.649 442.811 129.505 442.665C129.479 442.638 129.343 443.184 129.203 443.878ZM117.546 446.578C114.798 449.219 111.529 451.041 107.698 452.072C105.431 452.682 101.892 452.837 99.6406 452.425C96.0377 451.766 93.1491 450.242 90.9724 447.854L90.1331 446.934V447.4C90.1331 448.125 90.566 449.884 91.0194 451.001C93.0999 456.125 98.712 459.228 104.598 458.508C107.472 458.156 110.153 457.073 112.374 455.367C115.041 453.319 117.462 449.871 118.554 446.565C118.762 445.935 118.912 445.4 118.887 445.376C118.862 445.353 118.258 445.894 117.546 446.578Z" fill="#1181B2" fill-opacity="0.3"/>
<path fill-rule="evenodd" clip-rule="evenodd" d="M141.059 75.1826C138.458 75.4153 134.96 76.1675 132.697 76.981L130.799 77.6628L132.697 77.5627C134.924 77.4453 139.58 77.7223 142.285 78.1331C159.588 80.7614 172.578 91.3724 175.524 105.286C176.117 108.09 176.119 113.15 175.527 115.944C175.01 118.386 174.332 120.475 173.38 122.557C172.973 123.448 172.666 124.205 172.699 124.237C172.853 124.394 176.562 122.518 178.066 121.523C180.006 120.24 182.546 117.819 183.769 116.087C186.181 112.671 187.381 108.006 186.893 103.938C186.227 98.3666 183.264 92.8278 178.406 88.0692C174.972 84.7066 171.665 82.4003 167.054 80.1528C158.799 76.1295 149.771 74.4032 141.059 75.1826ZM131.653 82.3864C116.421 84.3064 103.321 94.8195 98.7032 108.828C95.5765 118.313 96.7833 127.957 102.098 135.96C103.753 138.453 107.298 141.992 109.904 143.754C115.529 147.558 122.421 149.602 129.443 149.55C131.375 149.535 131.418 149.583 128.424 148.418C121.083 145.561 114.552 139.087 111.197 131.341C107.677 123.214 107.263 114.112 110.026 105.567C112.398 98.2296 117.166 91.8175 123.404 87.5773C127.564 84.7499 131.977 83.0696 137.251 82.3054C139.225 82.0194 133.961 82.0955 131.653 82.3864ZM140.762 89.1669C130.305 90.3033 121.372 98.6097 118.516 109.852C117.765 112.807 117.574 117.392 118.073 120.475C119.398 128.666 124.487 135.679 131.83 139.436C132.589 139.824 133.25 140.102 133.298 140.052C133.347 140.003 133.082 139.556 132.709 139.06C126.735 131.111 126.086 119.034 131.08 108.792C134.968 100.821 141.704 95.2967 149.31 93.8421C150.971 93.5244 154.799 93.5599 156.37 93.9074C157.075 94.0634 157.652 94.1664 157.652 94.1365C157.652 94.0123 154.619 92.1224 153.509 91.5543C149.87 89.6926 144.75 88.7337 140.762 89.1669ZM154.331 98.2029C158.359 101.284 159.164 106.148 156.38 110.593C153.799 114.717 148.837 117.365 143.686 117.369C139.253 117.372 135.757 115.522 133.953 112.22L133.344 111.105L133.463 112.165C133.983 116.789 136.582 120.999 140.601 123.731C143.444 125.662 145.7 126.339 149.206 126.312C152.119 126.291 153.988 125.819 156.797 124.394C160.767 122.381 163.591 118.662 164.693 113.997C165.215 111.786 165.263 108.412 164.798 106.575C164 103.418 161.948 100.564 159.54 99.2606C158.273 98.5748 155.866 97.8976 154.727 97.9066C153.994 97.9124 153.972 97.9288 154.331 98.2029ZM183.403 124.986C182.224 130.807 178.998 136.929 174.633 141.629C161.754 155.498 138.604 160.045 117.492 152.851C115.438 152.151 114.635 151.836 111.822 150.627L111.063 150.301L112.201 151.492C115.119 154.543 119.214 157.557 123.353 159.699C130.269 163.279 137.285 164.994 145.032 165C152.314 165.005 158.15 163.716 164.199 160.764C168.532 158.65 171.597 156.45 174.826 153.136C181.031 146.768 184.421 138.491 184.405 129.746C184.402 127.988 183.977 123.614 183.792 123.426C183.759 123.392 183.584 124.094 183.403 124.986ZM168.416 128.458C164.883 131.853 160.68 134.196 155.754 135.521C152.84 136.305 148.29 136.504 145.395 135.975C140.763 135.127 137.049 133.169 134.25 130.098L133.171 128.915V129.514C133.171 130.446 133.728 132.708 134.311 134.144C136.985 140.732 144.201 144.722 151.769 143.796C155.464 143.344 158.911 141.951 161.766 139.758C165.196 137.124 168.308 132.692 169.712 128.44C169.98 127.63 170.173 126.943 170.14 126.912C170.108 126.882 169.332 127.578 168.416 128.458Z" fill="white"/>
<path fill-rule="evenodd" clip-rule="evenodd" d="M141.059 75.1826C138.458 75.4153 134.96 76.1675 132.697 76.981L130.799 77.6628L132.697 77.5627C134.924 77.4453 139.58 77.7223 142.285 78.1331C159.588 80.7614 172.578 91.3724 175.524 105.286C176.117 108.09 176.119 113.15 175.527 115.944C175.01 118.386 174.332 120.475 173.38 122.557C172.973 123.448 172.666 124.205 172.699 124.237C172.853 124.394 176.562 122.518 178.066 121.523C180.006 120.24 182.546 117.819 183.769 116.087C186.181 112.671 187.381 108.006 186.893 103.938C186.227 98.3666 183.264 92.8278 178.406 88.0692C174.972 84.7066 171.665 82.4003 167.054 80.1528C158.799 76.1295 149.771 74.4032 141.059 75.1826ZM131.653 82.3864C116.421 84.3064 103.321 94.8195 98.7032 108.828C95.5765 118.313 96.7833 127.957 102.098 135.96C103.753 138.453 107.298 141.992 109.904 143.754C115.529 147.558 122.421 149.602 129.443 149.55C131.375 149.535 131.418 149.583 128.424 148.418C121.083 145.561 114.552 139.087 111.197 131.341C107.677 123.214 107.263 114.112 110.026 105.567C112.398 98.2296 117.166 91.8175 123.404 87.5773C127.564 84.7499 131.977 83.0696 137.251 82.3054C139.225 82.0194 133.961 82.0955 131.653 82.3864ZM140.762 89.1669C130.305 90.3033 121.372 98.6097 118.516 109.852C117.765 112.807 117.574 117.392 118.073 120.475C119.398 128.666 124.487 135.679 131.83 139.436C132.589 139.824 133.25 140.102 133.298 140.052C133.347 140.003 133.082 139.556 132.709 139.06C126.735 131.111 126.086 119.034 131.08 108.792C134.968 100.821 141.704 95.2967 149.31 93.8421C150.971 93.5244 154.799 93.5599 156.37 93.9074C157.075 94.0634 157.652 94.1664 157.652 94.1365C157.652 94.0123 154.619 92.1224 153.509 91.5543C149.87 89.6926 144.75 88.7337 140.762 89.1669ZM154.331 98.2029C158.359 101.284 159.164 106.148 156.38 110.593C153.799 114.717 148.837 117.365 143.686 117.369C139.253 117.372 135.757 115.522 133.953 112.22L133.344 111.105L133.463 112.165C133.983 116.789 136.582 120.999 140.601 123.731C143.444 125.662 145.7 126.339 149.206 126.312C152.119 126.291 153.988 125.819 156.797 124.394C160.767 122.381 163.591 118.662 164.693 113.997C165.215 111.786 165.263 108.412 164.798 106.575C164 103.418 161.948 100.564 159.54 99.2606C158.273 98.5748 155.866 97.8976 154.727 97.9066C153.994 97.9124 153.972 97.9288 154.331 98.2029ZM183.403 124.986C182.224 130.807 178.998 136.929 174.633 141.629C161.754 155.498 138.604 160.045 117.492 152.851C115.438 152.151 114.635 151.836 111.822 150.627L111.063 150.301L112.201 151.492C115.119 154.543 119.214 157.557 123.353 159.699C130.269 163.279 137.285 164.994 145.032 165C152.314 165.005 158.15 163.716 164.199 160.764C168.532 158.65 171.597 156.45 174.826 153.136C181.031 146.768 184.421 138.491 184.405 129.746C184.402 127.988 183.977 123.614 183.792 123.426C183.759 123.392 183.584 124.094 183.403 124.986ZM168.416 128.458C164.883 131.853 160.68 134.196 155.754 135.521C152.84 136.305 148.29 136.504 145.395 135.975C140.763 135.127 137.049 133.169 134.25 130.098L133.171 128.915V129.514C133.171 130.446 133.728 132.708 134.311 134.144C136.985 140.732 144.201 144.722 151.769 143.796C155.464 143.344 158.911 141.951 161.766 139.758C165.196 137.124 168.308 132.692 169.712 128.44C169.98 127.63 170.173 126.943 170.14 126.912C170.108 126.882 169.332 127.578 168.416 128.458Z" fill="#1181B2" fill-opacity="0.3"/>
<path fill-rule="evenodd" clip-rule="evenodd" d="M263.059 176.183C260.458 176.415 256.96 177.167 254.697 177.981L252.799 178.663L254.697 178.563C256.924 178.445 261.58 178.722 264.285 179.133C281.588 181.761 294.578 192.372 297.524 206.286C298.117 209.09 298.119 214.15 297.527 216.944C297.01 219.386 296.332 221.475 295.38 223.557C294.973 224.448 294.666 225.205 294.699 225.237C294.853 225.394 298.562 223.518 300.066 222.523C302.006 221.24 304.546 218.819 305.769 217.087C308.181 213.671 309.381 209.006 308.893 204.938C308.227 199.367 305.264 193.828 300.406 189.069C296.972 185.707 293.665 183.4 289.054 181.153C280.799 177.129 271.771 175.403 263.059 176.183ZM253.653 183.386C238.421 185.306 225.321 195.819 220.703 209.828C217.577 219.313 218.783 228.957 224.098 236.96C225.753 239.453 229.298 242.992 231.904 244.754C237.529 248.558 244.421 250.602 251.443 250.55C253.375 250.535 253.418 250.583 250.424 249.418C243.083 246.561 236.552 240.087 233.197 232.341C229.677 224.214 229.263 215.112 232.026 206.567C234.398 199.23 239.166 192.817 245.404 188.577C249.564 185.75 253.977 184.07 259.251 183.305C261.225 183.019 255.961 183.096 253.653 183.386ZM262.762 190.167C252.305 191.303 243.372 199.61 240.516 210.852C239.765 213.807 239.574 218.392 240.073 221.475C241.398 229.666 246.487 236.679 253.83 240.436C254.589 240.824 255.25 241.102 255.298 241.052C255.347 241.003 255.082 240.556 254.709 240.06C248.735 232.111 248.086 220.034 253.08 209.792C256.968 201.821 263.704 196.297 271.31 194.842C272.971 194.524 276.799 194.56 278.37 194.907C279.075 195.063 279.652 195.166 279.652 195.136C279.652 195.012 276.619 193.122 275.509 192.554C271.87 190.693 266.75 189.734 262.762 190.167ZM276.331 199.203C280.359 202.284 281.164 207.148 278.38 211.593C275.799 215.717 270.837 218.365 265.686 218.369C261.253 218.372 257.757 216.522 255.953 213.22L255.344 212.105L255.463 213.165C255.983 217.789 258.582 221.999 262.601 224.731C265.444 226.662 267.7 227.339 271.206 227.312C274.119 227.291 275.988 226.819 278.797 225.394C282.767 223.381 285.591 219.662 286.693 214.997C287.215 212.786 287.263 209.412 286.798 207.575C286 204.418 283.948 201.564 281.54 200.261C280.273 199.575 277.866 198.898 276.727 198.907C275.994 198.912 275.972 198.929 276.331 199.203ZM305.403 225.986C304.224 231.807 300.998 237.929 296.633 242.629C283.754 256.498 260.604 261.045 239.492 253.851C237.438 253.151 236.635 252.836 233.822 251.627L233.063 251.301L234.201 252.492C237.119 255.543 241.214 258.557 245.353 260.699C252.269 264.279 259.285 265.994 267.032 266C274.314 266.005 280.15 264.716 286.199 261.764C290.532 259.65 293.597 257.45 296.826 254.136C303.031 247.768 306.421 239.491 306.405 230.746C306.402 228.988 305.977 224.614 305.792 224.426C305.759 224.392 305.584 225.094 305.403 225.986ZM290.416 229.458C286.883 232.853 282.68 235.196 277.754 236.521C274.84 237.305 270.29 237.504 267.395 236.975C262.763 236.127 259.049 234.169 256.25 231.098L255.171 229.915V230.514C255.171 231.446 255.728 233.708 256.311 235.144C258.985 241.732 266.201 245.722 273.769 244.796C277.464 244.344 280.911 242.951 283.766 240.758C287.196 238.124 290.308 233.692 291.712 229.44C291.98 228.63 292.173 227.943 292.14 227.912C292.108 227.882 291.332 228.578 290.416 229.458Z" fill="white"/>
<path fill-rule="evenodd" clip-rule="evenodd" d="M263.059 176.183C260.458 176.415 256.96 177.167 254.697 177.981L252.799 178.663L254.697 178.563C256.924 178.445 261.58 178.722 264.285 179.133C281.588 181.761 294.578 192.372 297.524 206.286C298.117 209.09 298.119 214.15 297.527 216.944C297.01 219.386 296.332 221.475 295.38 223.557C294.973 224.448 294.666 225.205 294.699 225.237C294.853 225.394 298.562 223.518 300.066 222.523C302.006 221.24 304.546 218.819 305.769 217.087C308.181 213.671 309.381 209.006 308.893 204.938C308.227 199.367 305.264 193.828 300.406 189.069C296.972 185.707 293.665 183.4 289.054 181.153C280.799 177.129 271.771 175.403 263.059 176.183ZM253.653 183.386C238.421 185.306 225.321 195.819 220.703 209.828C217.577 219.313 218.783 228.957 224.098 236.96C225.753 239.453 229.298 242.992 231.904 244.754C237.529 248.558 244.421 250.602 251.443 250.55C253.375 250.535 253.418 250.583 250.424 249.418C243.083 246.561 236.552 240.087 233.197 232.341C229.677 224.214 229.263 215.112 232.026 206.567C234.398 199.23 239.166 192.817 245.404 188.577C249.564 185.75 253.977 184.07 259.251 183.305C261.225 183.019 255.961 183.096 253.653 183.386ZM262.762 190.167C252.305 191.303 243.372 199.61 240.516 210.852C239.765 213.807 239.574 218.392 240.073 221.475C241.398 229.666 246.487 236.679 253.83 240.436C254.589 240.824 255.25 241.102 255.298 241.052C255.347 241.003 255.082 240.556 254.709 240.06C248.735 232.111 248.086 220.034 253.08 209.792C256.968 201.821 263.704 196.297 271.31 194.842C272.971 194.524 276.799 194.56 278.37 194.907C279.075 195.063 279.652 195.166 279.652 195.136C279.652 195.012 276.619 193.122 275.509 192.554C271.87 190.693 266.75 189.734 262.762 190.167ZM276.331 199.203C280.359 202.284 281.164 207.148 278.38 211.593C275.799 215.717 270.837 218.365 265.686 218.369C261.253 218.372 257.757 216.522 255.953 213.22L255.344 212.105L255.463 213.165C255.983 217.789 258.582 221.999 262.601 224.731C265.444 226.662 267.7 227.339 271.206 227.312C274.119 227.291 275.988 226.819 278.797 225.394C282.767 223.381 285.591 219.662 286.693 214.997C287.215 212.786 287.263 209.412 286.798 207.575C286 204.418 283.948 201.564 281.54 200.261C280.273 199.575 277.866 198.898 276.727 198.907C275.994 198.912 275.972 198.929 276.331 199.203ZM305.403 225.986C304.224 231.807 300.998 237.929 296.633 242.629C283.754 256.498 260.604 261.045 239.492 253.851C237.438 253.151 236.635 252.836 233.822 251.627L233.063 251.301L234.201 252.492C237.119 255.543 241.214 258.557 245.353 260.699C252.269 264.279 259.285 265.994 267.032 266C274.314 266.005 280.15 264.716 286.199 261.764C290.532 259.65 293.597 257.45 296.826 254.136C303.031 247.768 306.421 239.491 306.405 230.746C306.402 228.988 305.977 224.614 305.792 224.426C305.759 224.392 305.584 225.094 305.403 225.986ZM290.416 229.458C286.883 232.853 282.68 235.196 277.754 236.521C274.84 237.305 270.29 237.504 267.395 236.975C262.763 236.127 259.049 234.169 256.25 231.098L255.171 229.915V230.514C255.171 231.446 255.728 233.708 256.311 235.144C258.985 241.732 266.201 245.722 273.769 244.796C277.464 244.344 280.911 242.951 283.766 240.758C287.196 238.124 290.308 233.692 291.712 229.44C291.98 228.63 292.173 227.943 292.14 227.912C292.108 227.882 291.332 228.578 290.416 229.458Z" fill="#1181B2" fill-opacity="0.3"/>
<path fill-rule="evenodd" clip-rule="evenodd" d="M481.431 86.3043C477.097 86.6921 471.267 87.9458 467.494 89.3016L464.331 90.438L467.494 90.2712C471.206 90.0756 478.966 90.5372 483.475 91.2219C512.314 95.6023 533.963 113.287 538.873 136.476C539.862 141.149 539.864 149.583 538.878 154.241C538.016 158.311 536.886 161.791 535.3 165.262C534.622 166.747 534.11 168.008 534.164 168.062C534.421 168.323 540.604 165.196 543.109 163.538C546.343 161.4 550.576 157.365 552.614 154.479C556.634 148.786 558.634 141.01 557.822 134.23C556.711 124.944 551.773 115.713 543.676 107.782C537.954 102.178 532.442 98.3338 524.757 94.588C510.998 87.8825 495.951 85.0054 481.431 86.3043ZM465.754 98.3107C440.368 101.511 418.534 119.032 410.838 142.38C405.627 158.189 407.638 174.262 416.496 187.6C419.255 191.755 425.163 197.653 429.506 200.59C438.882 206.93 450.368 210.337 462.072 210.25C465.291 210.225 465.362 210.305 460.374 208.363C448.138 203.602 437.253 192.811 431.662 179.902C425.795 166.357 425.105 151.187 429.709 136.945C433.662 124.716 441.61 114.029 452.007 106.962C458.94 102.25 466.295 99.4493 475.085 98.1757C478.375 97.699 469.601 97.8259 465.754 98.3107ZM480.936 109.611C463.508 111.505 448.619 125.349 443.859 144.087C442.608 149.012 442.289 156.653 443.121 161.792C445.33 175.444 453.811 187.132 466.049 193.393C467.315 194.04 468.416 194.503 468.497 194.42C468.578 194.338 468.136 193.594 467.515 192.767C457.559 179.518 456.476 159.389 464.8 142.32C471.279 129.035 482.506 119.828 495.183 117.403C497.951 116.874 504.331 116.933 506.95 117.512C508.124 117.772 509.086 117.944 509.086 117.894C509.086 117.687 504.032 114.537 502.181 113.591C496.116 110.488 487.582 108.89 480.936 109.611ZM503.551 124.672C510.265 129.807 511.606 137.913 506.967 145.322C502.665 152.195 494.395 156.609 485.81 156.615C478.422 156.62 472.594 153.537 469.587 148.033L468.573 146.175L468.771 147.942C469.638 155.649 473.97 162.666 480.669 167.218C485.406 170.437 489.166 171.565 495.01 171.52C499.865 171.484 502.979 170.698 507.662 168.323C514.278 164.969 518.984 158.771 520.821 150.995C521.691 147.311 521.771 141.687 520.996 138.625C519.666 133.364 516.247 128.607 512.233 126.434C510.122 125.291 506.11 124.163 504.211 124.178C502.99 124.187 502.953 124.215 503.551 124.672ZM552.005 169.309C550.039 179.012 544.663 189.214 537.388 197.048C515.923 220.164 477.339 227.742 442.154 215.752C438.73 214.585 437.391 214.06 432.703 212.045L431.438 211.501L433.335 213.486C438.198 218.571 445.023 223.595 451.922 227.165C463.448 233.131 475.141 235.99 488.053 236C500.189 236.009 509.916 233.86 519.997 228.94C527.219 225.416 532.327 221.749 537.709 216.227C548.052 205.613 553.702 191.818 553.675 177.243C553.67 174.313 552.962 167.024 552.652 166.71C552.598 166.654 552.306 167.824 552.005 169.309ZM527.026 175.096C521.137 180.754 514.134 184.66 505.923 186.869C501.067 188.176 493.483 188.507 488.658 187.624C480.937 186.212 474.748 182.948 470.083 177.831L468.285 175.858V176.857C468.285 178.411 469.212 182.179 470.184 184.573C474.642 195.554 486.668 202.204 499.281 200.659C505.439 199.906 511.185 197.586 515.944 193.93C521.659 189.54 526.846 182.153 529.187 175.067C529.633 173.717 529.954 172.572 529.9 172.521C529.846 172.471 528.553 173.629 527.026 175.096Z" fill="white"/>
<path fill-rule="evenodd" clip-rule="evenodd" d="M481.431 86.3043C477.097 86.6921 471.267 87.9458 467.494 89.3016L464.331 90.438L467.494 90.2712C471.206 90.0756 478.966 90.5372 483.475 91.2219C512.314 95.6023 533.963 113.287 538.873 136.476C539.862 141.149 539.864 149.583 538.878 154.241C538.016 158.311 536.886 161.791 535.3 165.262C534.622 166.747 534.11 168.008 534.164 168.062C534.421 168.323 540.604 165.196 543.109 163.538C546.343 161.4 550.576 157.365 552.614 154.479C556.634 148.786 558.634 141.01 557.822 134.23C556.711 124.944 551.773 115.713 543.676 107.782C537.954 102.178 532.442 98.3338 524.757 94.588C510.998 87.8825 495.951 85.0054 481.431 86.3043ZM465.754 98.3107C440.368 101.511 418.534 119.032 410.838 142.38C405.627 158.189 407.638 174.262 416.496 187.6C419.255 191.755 425.163 197.653 429.506 200.59C438.882 206.93 450.368 210.337 462.072 210.25C465.291 210.225 465.362 210.305 460.374 208.363C448.138 203.602 437.253 192.811 431.662 179.902C425.795 166.357 425.105 151.187 429.709 136.945C433.662 124.716 441.61 114.029 452.007 106.962C458.94 102.25 466.295 99.4493 475.085 98.1757C478.375 97.699 469.601 97.8259 465.754 98.3107ZM480.936 109.611C463.508 111.505 448.619 125.349 443.859 144.087C442.608 149.012 442.289 156.653 443.121 161.792C445.33 175.444 453.811 187.132 466.049 193.393C467.315 194.04 468.416 194.503 468.497 194.42C468.578 194.338 468.136 193.594 467.515 192.767C457.559 179.518 456.476 159.389 464.8 142.32C471.279 129.035 482.506 119.828 495.183 117.403C497.951 116.874 504.331 116.933 506.95 117.512C508.124 117.772 509.086 117.944 509.086 117.894C509.086 117.687 504.032 114.537 502.181 113.591C496.116 110.488 487.582 108.89 480.936 109.611ZM503.551 124.672C510.265 129.807 511.606 137.913 506.967 145.322C502.665 152.195 494.395 156.609 485.81 156.615C478.422 156.62 472.594 153.537 469.587 148.033L468.573 146.175L468.771 147.942C469.638 155.649 473.97 162.666 480.669 167.218C485.406 170.437 489.166 171.565 495.01 171.52C499.865 171.484 502.979 170.698 507.662 168.323C514.278 164.969 518.984 158.771 520.821 150.995C521.691 147.311 521.771 141.687 520.996 138.625C519.666 133.364 516.247 128.607 512.233 126.434C510.122 125.291 506.11 124.163 504.211 124.178C502.99 124.187 502.953 124.215 503.551 124.672ZM552.005 169.309C550.039 179.012 544.663 189.214 537.388 197.048C515.923 220.164 477.339 227.742 442.154 215.752C438.73 214.585 437.391 214.06 432.703 212.045L431.438 211.501L433.335 213.486C438.198 218.571 445.023 223.595 451.922 227.165C463.448 233.131 475.141 235.99 488.053 236C500.189 236.009 509.916 233.86 519.997 228.94C527.219 225.416 532.327 221.749 537.709 216.227C548.052 205.613 553.702 191.818 553.675 177.243C553.67 174.313 552.962 167.024 552.652 166.71C552.598 166.654 552.306 167.824 552.005 169.309ZM527.026 175.096C521.137 180.754 514.134 184.66 505.923 186.869C501.067 188.176 493.483 188.507 488.658 187.624C480.937 186.212 474.748 182.948 470.083 177.831L468.285 175.858V176.857C468.285 178.411 469.212 182.179 470.184 184.573C474.642 195.554 486.668 202.204 499.281 200.659C505.439 199.906 511.185 197.586 515.944 193.93C521.659 189.54 526.846 182.153 529.187 175.067C529.633 173.717 529.954 172.572 529.9 172.521C529.846 172.471 528.553 173.629 527.026 175.096Z" fill="#1181B2" fill-opacity="0.3"/>
<path fill-rule="evenodd" clip-rule="evenodd" d="M79.1633 246.162C76.8518 246.369 73.7424 247.038 71.7304 247.761L70.0435 248.367L71.7304 248.278C73.7102 248.174 77.8487 248.42 80.2533 248.785C95.6341 251.121 107.181 260.553 109.799 272.921C110.327 275.413 110.328 279.911 109.802 282.395C109.342 284.566 108.739 286.422 107.894 288.273C107.532 289.065 107.259 289.738 107.288 289.766C107.425 289.906 110.722 288.238 112.059 287.354C113.783 286.213 116.041 284.061 117.128 282.522C119.272 279.486 120.339 275.339 119.905 271.723C119.313 266.77 116.679 261.847 112.361 257.617C109.309 254.628 106.369 252.578 102.271 250.58C94.9325 247.004 86.9073 245.47 79.1633 246.162ZM70.8026 252.566C57.2633 254.272 45.6183 263.617 41.514 276.069C38.7348 284.501 39.8074 293.073 44.5316 300.187C46.0031 302.403 49.1537 305.548 51.4701 307.115C56.4706 310.496 62.5967 312.313 68.8384 312.266C70.5553 312.253 70.5934 312.296 67.9329 311.26C61.4073 308.721 55.6021 302.966 52.6199 296.081C49.4908 288.857 49.1231 280.766 51.5786 273.17C53.6868 266.648 57.9257 260.949 63.4707 257.18C67.1681 254.667 71.091 253.173 75.7788 252.494C77.5338 252.239 72.8541 252.307 70.8026 252.566ZM78.8994 258.593C69.6047 259.603 61.6639 266.986 59.125 276.98C58.4577 279.606 58.2879 283.681 58.7315 286.422C59.9097 293.703 64.4329 299.937 70.96 303.276C71.6347 303.621 72.2221 303.868 72.2652 303.824C72.3084 303.78 72.0726 303.383 71.7413 302.942C66.4314 295.876 65.8539 285.141 70.2937 276.037C73.749 268.952 79.7366 264.042 86.4977 262.749C87.9741 262.466 91.3765 262.498 92.7737 262.807C93.3997 262.945 93.9125 263.037 93.9125 263.01C93.9125 262.9 91.2173 261.22 90.2301 260.715C86.9953 259.06 82.4441 258.208 78.8994 258.593ZM90.9605 266.625C94.5413 269.364 95.2565 273.687 92.7825 277.638C90.4881 281.304 86.0773 283.658 81.4989 283.661C77.5584 283.664 74.4504 282.02 72.8469 279.084L72.3057 278.094L72.4117 279.036C72.874 283.146 75.184 286.888 78.7569 289.316C81.2833 291.033 83.2885 291.634 86.4057 291.611C88.9949 291.592 90.6557 291.172 93.1533 289.906C96.6817 288.117 99.1917 284.811 100.171 280.664C100.635 278.699 100.678 275.7 100.265 274.067C99.5553 271.261 97.7317 268.724 95.5913 267.565C94.4653 266.955 92.3257 266.353 91.3129 266.361C90.6613 266.367 90.6417 266.381 90.9605 266.625ZM116.803 290.432C115.755 295.606 112.887 301.048 109.007 305.226C97.5593 317.554 76.9812 321.596 58.2155 315.201C56.3893 314.579 55.6754 314.299 53.175 313.224L52.5003 312.934L53.5124 313.992C56.1056 316.704 59.7459 319.384 63.4251 321.288C69.5725 324.47 75.8088 325.995 82.6949 326C89.1677 326.005 94.3553 324.859 99.7321 322.235C103.584 320.355 106.308 318.4 109.179 315.454C114.695 309.794 117.708 302.436 117.694 294.663C117.691 293.1 117.313 289.213 117.148 289.045C117.119 289.015 116.963 289.639 116.803 290.432ZM103.481 293.518C100.34 296.536 96.6049 298.619 92.2257 299.797C89.6357 300.494 85.5913 300.67 83.0177 300.2C78.9001 299.446 75.599 297.706 73.1112 294.976L72.1521 293.924V294.457C72.1521 295.286 72.6468 297.296 73.165 298.572C75.5426 304.429 81.9565 307.975 88.6833 307.152C91.9677 306.75 95.0321 305.512 97.5701 303.563C100.619 301.221 103.385 297.282 104.633 293.502C104.871 292.782 105.043 292.172 105.013 292.144C104.985 292.118 104.295 292.736 103.481 293.518Z" fill="white"/>
<path fill-rule="evenodd" clip-rule="evenodd" d="M79.1633 246.162C76.8518 246.369 73.7424 247.038 71.7304 247.761L70.0435 248.367L71.7304 248.278C73.7102 248.174 77.8487 248.42 80.2533 248.785C95.6341 251.121 107.181 260.553 109.799 272.921C110.327 275.413 110.328 279.911 109.802 282.395C109.342 284.566 108.739 286.422 107.894 288.273C107.532 289.065 107.259 289.738 107.288 289.766C107.425 289.906 110.722 288.238 112.059 287.354C113.783 286.213 116.041 284.061 117.128 282.522C119.272 279.486 120.339 275.339 119.905 271.723C119.313 266.77 116.679 261.847 112.361 257.617C109.309 254.628 106.369 252.578 102.271 250.58C94.9325 247.004 86.9073 245.47 79.1633 246.162ZM70.8026 252.566C57.2633 254.272 45.6183 263.617 41.514 276.069C38.7348 284.501 39.8074 293.073 44.5316 300.187C46.0031 302.403 49.1537 305.548 51.4701 307.115C56.4706 310.496 62.5967 312.313 68.8384 312.266C70.5553 312.253 70.5934 312.296 67.9329 311.26C61.4073 308.721 55.6021 302.966 52.6199 296.081C49.4908 288.857 49.1231 280.766 51.5786 273.17C53.6868 266.648 57.9257 260.949 63.4707 257.18C67.1681 254.667 71.091 253.173 75.7788 252.494C77.5338 252.239 72.8541 252.307 70.8026 252.566ZM78.8994 258.593C69.6047 259.603 61.6639 266.986 59.125 276.98C58.4577 279.606 58.2879 283.681 58.7315 286.422C59.9097 293.703 64.4329 299.937 70.96 303.276C71.6347 303.621 72.2221 303.868 72.2652 303.824C72.3084 303.78 72.0726 303.383 71.7413 302.942C66.4314 295.876 65.8539 285.141 70.2937 276.037C73.749 268.952 79.7366 264.042 86.4977 262.749C87.9741 262.466 91.3765 262.498 92.7737 262.807C93.3997 262.945 93.9125 263.037 93.9125 263.01C93.9125 262.9 91.2173 261.22 90.2301 260.715C86.9953 259.06 82.4441 258.208 78.8994 258.593ZM90.9605 266.625C94.5413 269.364 95.2565 273.687 92.7825 277.638C90.4881 281.304 86.0773 283.658 81.4989 283.661C77.5584 283.664 74.4504 282.02 72.8469 279.084L72.3057 278.094L72.4117 279.036C72.874 283.146 75.184 286.888 78.7569 289.316C81.2833 291.033 83.2885 291.634 86.4057 291.611C88.9949 291.592 90.6557 291.172 93.1533 289.906C96.6817 288.117 99.1917 284.811 100.171 280.664C100.635 278.699 100.678 275.7 100.265 274.067C99.5553 271.261 97.7317 268.724 95.5913 267.565C94.4653 266.955 92.3257 266.353 91.3129 266.361C90.6613 266.367 90.6417 266.381 90.9605 266.625ZM116.803 290.432C115.755 295.606 112.887 301.048 109.007 305.226C97.5593 317.554 76.9812 321.596 58.2155 315.201C56.3893 314.579 55.6754 314.299 53.175 313.224L52.5003 312.934L53.5124 313.992C56.1056 316.704 59.7459 319.384 63.4251 321.288C69.5725 324.47 75.8088 325.995 82.6949 326C89.1677 326.005 94.3553 324.859 99.7321 322.235C103.584 320.355 106.308 318.4 109.179 315.454C114.695 309.794 117.708 302.436 117.694 294.663C117.691 293.1 117.313 289.213 117.148 289.045C117.119 289.015 116.963 289.639 116.803 290.432ZM103.481 293.518C100.34 296.536 96.6049 298.619 92.2257 299.797C89.6357 300.494 85.5913 300.67 83.0177 300.2C78.9001 299.446 75.599 297.706 73.1112 294.976L72.1521 293.924V294.457C72.1521 295.286 72.6468 297.296 73.165 298.572C75.5426 304.429 81.9565 307.975 88.6833 307.152C91.9677 306.75 95.0321 305.512 97.5701 303.563C100.619 301.221 103.385 297.282 104.633 293.502C104.871 292.782 105.043 292.172 105.013 292.144C104.985 292.118 104.295 292.736 103.481 293.518Z" fill="#1181B2" fill-opacity="0.3"/>
<path fill-rule="evenodd" clip-rule="evenodd" d="M241.163 315.162C238.852 315.369 235.742 316.038 233.73 316.761L232.044 317.367L233.73 317.278C235.71 317.174 239.849 317.42 242.253 317.785C257.634 320.121 269.181 329.553 271.799 341.921C272.327 344.413 272.328 348.911 271.802 351.395C271.342 353.566 270.739 355.422 269.894 357.273C269.532 358.065 269.259 358.738 269.288 358.766C269.425 358.906 272.722 357.238 274.059 356.354C275.783 355.213 278.041 353.061 279.128 351.522C281.272 348.486 282.339 344.339 281.905 340.723C281.313 335.77 278.679 330.847 274.361 326.617C271.309 323.628 268.369 321.578 264.271 319.58C256.933 316.004 248.907 314.47 241.163 315.162ZM232.803 321.566C219.263 323.272 207.618 332.617 203.514 345.069C200.735 353.501 201.807 362.073 206.532 369.187C208.003 371.403 211.154 374.548 213.47 376.115C218.471 379.496 224.597 381.313 230.838 381.266C232.555 381.253 232.593 381.296 229.933 380.26C223.407 377.721 217.602 371.966 214.62 365.081C211.491 357.857 211.123 349.766 213.579 342.17C215.687 335.648 219.926 329.949 225.471 326.18C229.168 323.667 233.091 322.173 237.779 321.494C239.534 321.239 234.854 321.307 232.803 321.566ZM240.899 327.593C231.605 328.603 223.664 335.986 221.125 345.98C220.458 348.606 220.288 352.681 220.732 355.422C221.91 362.703 226.433 368.937 232.96 372.276C233.635 372.621 234.222 372.868 234.265 372.824C234.308 372.78 234.073 372.383 233.741 371.942C228.431 364.876 227.854 354.141 232.294 345.037C235.749 337.952 241.737 333.042 248.498 331.749C249.974 331.466 253.377 331.498 254.774 331.807C255.4 331.945 255.913 332.037 255.913 332.01C255.913 331.9 253.217 330.22 252.23 329.715C248.995 328.06 244.444 327.208 240.899 327.593ZM252.961 335.625C256.541 338.364 257.257 342.687 254.783 346.638C252.488 350.304 248.077 352.658 243.499 352.661C239.558 352.664 236.45 351.02 234.847 348.084L234.306 347.094L234.412 348.036C234.874 352.146 237.184 355.888 240.757 358.316C243.283 360.033 245.289 360.634 248.406 360.611C250.995 360.592 252.656 360.172 255.153 358.906C258.682 357.117 261.192 353.811 262.171 349.664C262.635 347.699 262.678 344.7 262.265 343.067C261.555 340.261 259.732 337.724 257.591 336.565C256.465 335.955 254.326 335.353 253.313 335.361C252.661 335.367 252.642 335.381 252.961 335.625ZM278.803 359.432C277.755 364.606 274.887 370.048 271.007 374.226C259.559 386.554 238.981 390.596 220.215 384.201C218.389 383.579 217.675 383.299 215.175 382.224L214.5 381.934L215.512 382.992C218.106 385.704 221.746 388.384 225.425 390.288C231.573 393.47 237.809 394.995 244.695 395C251.168 395.005 256.355 393.859 261.732 391.235C265.584 389.355 268.308 387.4 271.179 384.454C276.695 378.794 279.708 371.436 279.694 363.663C279.691 362.1 279.313 358.213 279.148 358.045C279.119 358.015 278.963 358.639 278.803 359.432ZM265.481 362.518C262.34 365.536 258.605 367.619 254.226 368.797C251.636 369.494 247.591 369.67 245.018 369.2C240.9 368.446 237.599 366.706 235.111 363.976L234.152 362.924V363.457C234.152 364.286 234.647 366.296 235.165 367.572C237.543 373.429 243.957 376.975 250.683 376.152C253.968 375.75 257.032 374.512 259.57 372.563C262.619 370.221 265.385 366.282 266.633 362.502C266.871 361.782 267.043 361.172 267.013 361.144C266.985 361.118 266.295 361.736 265.481 362.518Z" fill="white"/>
<path fill-rule="evenodd" clip-rule="evenodd" d="M241.163 315.162C238.852 315.369 235.742 316.038 233.73 316.761L232.044 317.367L233.73 317.278C235.71 317.174 239.849 317.42 242.253 317.785C257.634 320.121 269.181 329.553 271.799 341.921C272.327 344.413 272.328 348.911 271.802 351.395C271.342 353.566 270.739 355.422 269.894 357.273C269.532 358.065 269.259 358.738 269.288 358.766C269.425 358.906 272.722 357.238 274.059 356.354C275.783 355.213 278.041 353.061 279.128 351.522C281.272 348.486 282.339 344.339 281.905 340.723C281.313 335.77 278.679 330.847 274.361 326.617C271.309 323.628 268.369 321.578 264.271 319.58C256.933 316.004 248.907 314.47 241.163 315.162ZM232.803 321.566C219.263 323.272 207.618 332.617 203.514 345.069C200.735 353.501 201.807 362.073 206.532 369.187C208.003 371.403 211.154 374.548 213.47 376.115C218.471 379.496 224.597 381.313 230.838 381.266C232.555 381.253 232.593 381.296 229.933 380.26C223.407 377.721 217.602 371.966 214.62 365.081C211.491 357.857 211.123 349.766 213.579 342.17C215.687 335.648 219.926 329.949 225.471 326.18C229.168 323.667 233.091 322.173 237.779 321.494C239.534 321.239 234.854 321.307 232.803 321.566ZM240.899 327.593C231.605 328.603 223.664 335.986 221.125 345.98C220.458 348.606 220.288 352.681 220.732 355.422C221.91 362.703 226.433 368.937 232.96 372.276C233.635 372.621 234.222 372.868 234.265 372.824C234.308 372.78 234.073 372.383 233.741 371.942C228.431 364.876 227.854 354.141 232.294 345.037C235.749 337.952 241.737 333.042 248.498 331.749C249.974 331.466 253.377 331.498 254.774 331.807C255.4 331.945 255.913 332.037 255.913 332.01C255.913 331.9 253.217 330.22 252.23 329.715C248.995 328.06 244.444 327.208 240.899 327.593ZM252.961 335.625C256.541 338.364 257.257 342.687 254.783 346.638C252.488 350.304 248.077 352.658 243.499 352.661C239.558 352.664 236.45 351.02 234.847 348.084L234.306 347.094L234.412 348.036C234.874 352.146 237.184 355.888 240.757 358.316C243.283 360.033 245.289 360.634 248.406 360.611C250.995 360.592 252.656 360.172 255.153 358.906C258.682 357.117 261.192 353.811 262.171 349.664C262.635 347.699 262.678 344.7 262.265 343.067C261.555 340.261 259.732 337.724 257.591 336.565C256.465 335.955 254.326 335.353 253.313 335.361C252.661 335.367 252.642 335.381 252.961 335.625ZM278.803 359.432C277.755 364.606 274.887 370.048 271.007 374.226C259.559 386.554 238.981 390.596 220.215 384.201C218.389 383.579 217.675 383.299 215.175 382.224L214.5 381.934L215.512 382.992C218.106 385.704 221.746 388.384 225.425 390.288C231.573 393.47 237.809 394.995 244.695 395C251.168 395.005 256.355 393.859 261.732 391.235C265.584 389.355 268.308 387.4 271.179 384.454C276.695 378.794 279.708 371.436 279.694 363.663C279.691 362.1 279.313 358.213 279.148 358.045C279.119 358.015 278.963 358.639 278.803 359.432ZM265.481 362.518C262.34 365.536 258.605 367.619 254.226 368.797C251.636 369.494 247.591 369.67 245.018 369.2C240.9 368.446 237.599 366.706 235.111 363.976L234.152 362.924V363.457C234.152 364.286 234.647 366.296 235.165 367.572C237.543 373.429 243.957 376.975 250.683 376.152C253.968 375.75 257.032 374.512 259.57 372.563C262.619 370.221 265.385 366.282 266.633 362.502C266.871 361.782 267.043 361.172 267.013 361.144C266.985 361.118 266.295 361.736 265.481 362.518Z" fill="#1181B2" fill-opacity="0.3"/>
<path fill-rule="evenodd" clip-rule="evenodd" d="M417.506 332.193C414.761 332.438 411.069 333.232 408.68 334.091L406.677 334.811L408.68 334.705C411.031 334.581 415.945 334.874 418.801 335.307C437.065 338.081 450.777 349.282 453.886 363.968C454.513 366.928 454.514 372.269 453.889 375.219C453.344 377.797 452.628 380.001 451.624 382.199C451.194 383.14 450.87 383.938 450.904 383.973C451.067 384.138 454.982 382.158 456.569 381.107C458.618 379.753 461.298 377.198 462.589 375.37C465.135 371.764 466.402 366.84 465.888 362.546C465.184 356.665 462.056 350.818 456.928 345.795C453.304 342.246 449.813 339.811 444.946 337.439C436.232 333.192 426.702 331.37 417.506 332.193ZM407.578 339.797C391.5 341.823 377.672 352.921 372.798 367.707C369.497 377.719 370.771 387.899 376.381 396.347C378.129 398.978 381.87 402.714 384.621 404.574C390.559 408.589 397.834 410.747 405.246 410.691C407.284 410.676 407.33 410.727 404.17 409.497C396.421 406.481 389.527 399.647 385.986 391.471C382.27 382.893 381.834 373.285 384.749 364.265C387.253 356.52 392.287 349.752 398.871 345.276C403.262 342.292 407.921 340.518 413.487 339.711C415.571 339.409 410.014 339.49 407.578 339.797ZM417.193 346.954C406.156 348.153 396.726 356.921 393.711 368.788C392.918 371.908 392.717 376.747 393.244 380.002C394.643 388.648 400.014 396.05 407.765 400.015C408.566 400.425 409.264 400.718 409.315 400.666C409.366 400.614 409.086 400.143 408.693 399.619C402.387 391.228 401.701 378.48 406.974 367.669C411.077 359.255 418.187 353.424 426.216 351.889C427.969 351.554 432.01 351.591 433.669 351.958C434.412 352.122 435.021 352.231 435.021 352.2C435.021 352.069 431.82 350.074 430.648 349.474C426.807 347.509 421.402 346.497 417.193 346.954ZM431.516 356.492C435.768 359.744 436.617 364.878 433.679 369.571C430.955 373.923 425.717 376.719 420.28 376.723C415.601 376.726 411.91 374.774 410.006 371.288L409.363 370.111L409.489 371.23C410.038 376.111 412.781 380.555 417.024 383.438C420.024 385.476 422.405 386.191 426.107 386.163C429.181 386.14 431.154 385.642 434.119 384.138C438.309 382.014 441.29 378.088 442.453 373.163C443.004 370.83 443.055 367.268 442.565 365.329C441.722 361.997 439.556 358.985 437.015 357.608C435.677 356.885 433.137 356.17 431.934 356.179C431.16 356.185 431.137 356.203 431.516 356.492ZM462.203 384.763C460.958 390.908 457.553 397.369 452.946 402.33C439.352 416.97 414.915 421.77 392.631 414.176C390.462 413.437 389.614 413.105 386.645 411.829L385.844 411.484L387.046 412.741C390.125 415.962 394.448 419.144 398.817 421.405C406.117 425.183 413.523 426.994 421.7 427C429.387 427.006 435.547 425.645 441.932 422.529C446.506 420.297 449.741 417.975 453.149 414.477C459.7 407.755 463.278 399.018 463.261 389.787C463.258 387.931 462.81 383.315 462.613 383.116C462.579 383.081 462.394 383.822 462.203 384.763ZM446.383 388.428C442.654 392.011 438.218 394.485 433.018 395.884C429.942 396.711 425.14 396.921 422.083 396.362C417.194 395.468 413.274 393.4 410.319 390.16L409.18 388.91V389.542C409.18 390.527 409.768 392.914 410.383 394.429C413.207 401.384 420.823 405.596 428.811 404.618C432.712 404.141 436.351 402.671 439.364 400.356C442.984 397.575 446.269 392.897 447.752 388.409C448.035 387.554 448.238 386.829 448.203 386.797C448.17 386.765 447.35 387.499 446.383 388.428Z" fill="white"/>
<path fill-rule="evenodd" clip-rule="evenodd" d="M417.506 332.193C414.761 332.438 411.069 333.232 408.68 334.091L406.677 334.811L408.68 334.705C411.031 334.581 415.945 334.874 418.801 335.307C437.065 338.081 450.777 349.282 453.886 363.968C454.513 366.928 454.514 372.269 453.889 375.219C453.344 377.797 452.628 380.001 451.624 382.199C451.194 383.14 450.87 383.938 450.904 383.973C451.067 384.138 454.982 382.158 456.569 381.107C458.618 379.753 461.298 377.198 462.589 375.37C465.135 371.764 466.402 366.84 465.888 362.546C465.184 356.665 462.056 350.818 456.928 345.795C453.304 342.246 449.813 339.811 444.946 337.439C436.232 333.192 426.702 331.37 417.506 332.193ZM407.578 339.797C391.5 341.823 377.672 352.921 372.798 367.707C369.497 377.719 370.771 387.899 376.381 396.347C378.129 398.978 381.87 402.714 384.621 404.574C390.559 408.589 397.834 410.747 405.246 410.691C407.284 410.676 407.33 410.727 404.17 409.497C396.421 406.481 389.527 399.647 385.986 391.471C382.27 382.893 381.834 373.285 384.749 364.265C387.253 356.52 392.287 349.752 398.871 345.276C403.262 342.292 407.921 340.518 413.487 339.711C415.571 339.409 410.014 339.49 407.578 339.797ZM417.193 346.954C406.156 348.153 396.726 356.921 393.711 368.788C392.918 371.908 392.717 376.747 393.244 380.002C394.643 388.648 400.014 396.05 407.765 400.015C408.566 400.425 409.264 400.718 409.315 400.666C409.366 400.614 409.086 400.143 408.693 399.619C402.387 391.228 401.701 378.48 406.974 367.669C411.077 359.255 418.187 353.424 426.216 351.889C427.969 351.554 432.01 351.591 433.669 351.958C434.412 352.122 435.021 352.231 435.021 352.2C435.021 352.069 431.82 350.074 430.648 349.474C426.807 347.509 421.402 346.497 417.193 346.954ZM431.516 356.492C435.768 359.744 436.617 364.878 433.679 369.571C430.955 373.923 425.717 376.719 420.28 376.723C415.601 376.726 411.91 374.774 410.006 371.288L409.363 370.111L409.489 371.23C410.038 376.111 412.781 380.555 417.024 383.438C420.024 385.476 422.405 386.191 426.107 386.163C429.181 386.14 431.154 385.642 434.119 384.138C438.309 382.014 441.29 378.088 442.453 373.163C443.004 370.83 443.055 367.268 442.565 365.329C441.722 361.997 439.556 358.985 437.015 357.608C435.677 356.885 433.137 356.17 431.934 356.179C431.16 356.185 431.137 356.203 431.516 356.492ZM462.203 384.763C460.958 390.908 457.553 397.369 452.946 402.33C439.352 416.97 414.915 421.77 392.631 414.176C390.462 413.437 389.614 413.105 386.645 411.829L385.844 411.484L387.046 412.741C390.125 415.962 394.448 419.144 398.817 421.405C406.117 425.183 413.523 426.994 421.7 427C429.387 427.006 435.547 425.645 441.932 422.529C446.506 420.297 449.741 417.975 453.149 414.477C459.7 407.755 463.278 399.018 463.261 389.787C463.258 387.931 462.81 383.315 462.613 383.116C462.579 383.081 462.394 383.822 462.203 384.763ZM446.383 388.428C442.654 392.011 438.218 394.485 433.018 395.884C429.942 396.711 425.14 396.921 422.083 396.362C417.194 395.468 413.274 393.4 410.319 390.16L409.18 388.91V389.542C409.18 390.527 409.768 392.914 410.383 394.429C413.207 401.384 420.823 405.596 428.811 404.618C432.712 404.141 436.351 402.671 439.364 400.356C442.984 397.575 446.269 392.897 447.752 388.409C448.035 387.554 448.238 386.829 448.203 386.797C448.17 386.765 447.35 387.499 446.383 388.428Z" fill="#1181B2" fill-opacity="0.3"/>
<path fill-rule="evenodd" clip-rule="evenodd" d="M248.506 452.193C245.761 452.438 242.069 453.232 239.68 454.091L237.677 454.811L239.68 454.705C242.031 454.581 246.945 454.874 249.801 455.307C268.065 458.081 281.777 469.282 284.886 483.968C285.513 486.928 285.514 492.269 284.889 495.219C284.344 497.797 283.628 500.001 282.624 502.199C282.194 503.14 281.87 503.938 281.904 503.973C282.067 504.138 285.982 502.158 287.569 501.107C289.618 499.753 292.298 497.198 293.589 495.37C296.135 491.764 297.402 486.84 296.888 482.546C296.184 476.665 293.056 470.818 287.928 465.795C284.304 462.246 280.813 459.811 275.946 457.439C267.232 453.192 257.702 451.37 248.506 452.193ZM238.578 459.797C222.5 461.823 208.672 472.921 203.798 487.707C200.497 497.719 201.771 507.899 207.381 516.347C209.129 518.978 212.87 522.714 215.621 524.574C221.559 528.589 228.834 530.747 236.246 530.691C238.284 530.676 238.33 530.727 235.17 529.497C227.421 526.481 220.527 519.647 216.986 511.471C213.27 502.893 212.834 493.285 215.749 484.265C218.253 476.52 223.287 469.752 229.871 465.276C234.262 462.292 238.921 460.518 244.487 459.711C246.571 459.409 241.014 459.49 238.578 459.797ZM248.193 466.954C237.156 468.153 227.726 476.921 224.711 488.788C223.918 491.908 223.717 496.747 224.244 500.002C225.643 508.648 231.014 516.05 238.765 520.015C239.566 520.425 240.264 520.718 240.315 520.666C240.366 520.614 240.086 520.143 239.693 519.619C233.387 511.228 232.701 498.48 237.974 487.669C242.077 479.255 249.187 473.424 257.216 471.889C258.969 471.554 263.01 471.591 264.669 471.958C265.412 472.122 266.021 472.231 266.021 472.2C266.021 472.069 262.82 470.074 261.648 469.474C257.807 467.509 252.402 466.497 248.193 466.954ZM262.516 476.492C266.768 479.744 267.617 484.878 264.679 489.571C261.955 493.923 256.717 496.719 251.28 496.723C246.601 496.726 242.91 494.774 241.006 491.288L240.363 490.111L240.489 491.23C241.038 496.111 243.781 500.555 248.024 503.438C251.024 505.476 253.405 506.191 257.107 506.163C260.181 506.14 262.154 505.642 265.119 504.138C269.309 502.014 272.29 498.088 273.453 493.163C274.004 490.83 274.055 487.268 273.565 485.329C272.722 481.997 270.556 478.985 268.015 477.608C266.677 476.885 264.137 476.17 262.934 476.179C262.16 476.185 262.137 476.203 262.516 476.492ZM293.203 504.763C291.958 510.908 288.553 517.369 283.946 522.33C270.352 536.97 245.915 541.77 223.631 534.176C221.462 533.437 220.614 533.105 217.645 531.829L216.844 531.484L218.046 532.741C221.125 535.962 225.448 539.144 229.817 541.405C237.117 545.183 244.523 546.994 252.7 547C260.387 547.006 266.547 545.645 272.932 542.529C277.506 540.297 280.741 537.975 284.149 534.477C290.7 527.755 294.278 519.018 294.261 509.787C294.258 507.931 293.81 503.315 293.613 503.116C293.579 503.081 293.394 503.822 293.203 504.763ZM277.383 508.428C273.654 512.011 269.218 514.485 264.018 515.884C260.942 516.711 256.14 516.921 253.083 516.362C248.194 515.468 244.274 513.4 241.319 510.16L240.18 508.91V509.542C240.18 510.527 240.768 512.914 241.383 514.429C244.207 521.384 251.823 525.596 259.811 524.618C263.712 524.141 267.351 522.671 270.364 520.356C273.984 517.575 277.269 512.897 278.752 508.409C279.035 507.554 279.238 506.829 279.203 506.797C279.17 506.765 278.35 507.499 277.383 508.428Z" fill="white"/>
<path fill-rule="evenodd" clip-rule="evenodd" d="M248.506 452.193C245.761 452.438 242.069 453.232 239.68 454.091L237.677 454.811L239.68 454.705C242.031 454.581 246.945 454.874 249.801 455.307C268.065 458.081 281.777 469.282 284.886 483.968C285.513 486.928 285.514 492.269 284.889 495.219C284.344 497.797 283.628 500.001 282.624 502.199C282.194 503.14 281.87 503.938 281.904 503.973C282.067 504.138 285.982 502.158 287.569 501.107C289.618 499.753 292.298 497.198 293.589 495.37C296.135 491.764 297.402 486.84 296.888 482.546C296.184 476.665 293.056 470.818 287.928 465.795C284.304 462.246 280.813 459.811 275.946 457.439C267.232 453.192 257.702 451.37 248.506 452.193ZM238.578 459.797C222.5 461.823 208.672 472.921 203.798 487.707C200.497 497.719 201.771 507.899 207.381 516.347C209.129 518.978 212.87 522.714 215.621 524.574C221.559 528.589 228.834 530.747 236.246 530.691C238.284 530.676 238.33 530.727 235.17 529.497C227.421 526.481 220.527 519.647 216.986 511.471C213.27 502.893 212.834 493.285 215.749 484.265C218.253 476.52 223.287 469.752 229.871 465.276C234.262 462.292 238.921 460.518 244.487 459.711C246.571 459.409 241.014 459.49 238.578 459.797ZM248.193 466.954C237.156 468.153 227.726 476.921 224.711 488.788C223.918 491.908 223.717 496.747 224.244 500.002C225.643 508.648 231.014 516.05 238.765 520.015C239.566 520.425 240.264 520.718 240.315 520.666C240.366 520.614 240.086 520.143 239.693 519.619C233.387 511.228 232.701 498.48 237.974 487.669C242.077 479.255 249.187 473.424 257.216 471.889C258.969 471.554 263.01 471.591 264.669 471.958C265.412 472.122 266.021 472.231 266.021 472.2C266.021 472.069 262.82 470.074 261.648 469.474C257.807 467.509 252.402 466.497 248.193 466.954ZM262.516 476.492C266.768 479.744 267.617 484.878 264.679 489.571C261.955 493.923 256.717 496.719 251.28 496.723C246.601 496.726 242.91 494.774 241.006 491.288L240.363 490.111L240.489 491.23C241.038 496.111 243.781 500.555 248.024 503.438C251.024 505.476 253.405 506.191 257.107 506.163C260.181 506.14 262.154 505.642 265.119 504.138C269.309 502.014 272.29 498.088 273.453 493.163C274.004 490.83 274.055 487.268 273.565 485.329C272.722 481.997 270.556 478.985 268.015 477.608C266.677 476.885 264.137 476.17 262.934 476.179C262.16 476.185 262.137 476.203 262.516 476.492ZM293.203 504.763C291.958 510.908 288.553 517.369 283.946 522.33C270.352 536.97 245.915 541.77 223.631 534.176C221.462 533.437 220.614 533.105 217.645 531.829L216.844 531.484L218.046 532.741C221.125 535.962 225.448 539.144 229.817 541.405C237.117 545.183 244.523 546.994 252.7 547C260.387 547.006 266.547 545.645 272.932 542.529C277.506 540.297 280.741 537.975 284.149 534.477C290.7 527.755 294.278 519.018 294.261 509.787C294.258 507.931 293.81 503.315 293.613 503.116C293.579 503.081 293.394 503.822 293.203 504.763ZM277.383 508.428C273.654 512.011 269.218 514.485 264.018 515.884C260.942 516.711 256.14 516.921 253.083 516.362C248.194 515.468 244.274 513.4 241.319 510.16L240.18 508.91V509.542C240.18 510.527 240.768 512.914 241.383 514.429C244.207 521.384 251.823 525.596 259.811 524.618C263.712 524.141 267.351 522.671 270.364 520.356C273.984 517.575 277.269 512.897 278.752 508.409C279.035 507.554 279.238 506.829 279.203 506.797C279.17 506.765 278.35 507.499 277.383 508.428Z" fill="#1181B2" fill-opacity="0.3"/>
<path fill-rule="evenodd" clip-rule="evenodd" d="M293.849 0.223187C290.671 0.507565 286.396 1.4269 283.629 2.42117L281.31 3.25451L283.629 3.13223C286.351 2.98874 292.042 3.32731 295.348 3.82939C316.497 7.04166 332.373 20.0107 335.973 37.0161C336.699 40.443 336.7 46.6277 335.977 50.0433C335.345 53.0279 334.516 55.5803 333.354 58.1257C332.856 59.2147 332.481 60.1392 332.52 60.1788C332.709 60.3702 337.243 58.0773 339.08 56.8612C341.452 55.2932 344.556 52.3345 346.05 50.2176C348.998 46.0428 350.465 40.3407 349.87 35.3689C349.055 28.5592 345.433 21.7895 339.496 15.9735C335.3 11.8636 331.258 9.04481 325.622 6.29783C315.532 1.38049 304.497 -0.729372 293.849 0.223187ZM282.353 9.02782C263.737 11.3744 247.725 24.2238 242.082 41.3451C238.26 52.9384 239.735 64.7257 246.231 74.5069C248.254 77.5539 252.586 81.8791 255.771 84.0329C262.647 88.6821 271.07 91.1807 279.653 91.1164C282.013 91.0982 282.066 91.1571 278.408 89.7331C269.435 86.2412 261.453 78.3283 257.352 68.8617C253.05 58.9287 252.544 47.8038 255.92 37.3593C258.819 28.3917 264.648 20.5547 272.272 15.3722C277.356 11.9166 282.75 9.86283 289.196 8.92887C291.609 8.57924 285.174 8.6723 282.353 9.02782ZM293.487 17.3151C280.706 18.704 269.788 28.8563 266.297 42.5971C265.379 46.2087 265.146 51.812 265.756 55.5808C267.376 65.5919 273.595 74.1637 282.57 78.7546C283.498 79.2292 284.305 79.5686 284.365 79.5081C284.424 79.4476 284.1 78.902 283.644 78.2959C276.343 68.5796 275.549 53.8189 281.654 41.3013C286.405 31.5589 294.638 24.8071 303.934 23.0292C305.964 22.641 310.643 22.6843 312.564 23.1091C313.424 23.2997 314.13 23.4256 314.13 23.389C314.13 23.2373 310.424 20.9274 309.066 20.2331C304.618 17.9576 298.36 16.7857 293.487 17.3151ZM310.071 28.3591C314.994 32.1249 315.978 38.0694 312.576 43.5028C309.421 48.5427 303.356 51.7797 297.061 51.7841C291.643 51.7879 287.369 49.5273 285.164 45.4911L284.42 44.1286L284.566 45.4244C285.202 51.0757 288.378 56.2216 293.291 59.5601C296.764 61.9201 299.522 62.7473 303.808 62.7149C307.368 62.6885 309.651 62.1115 313.086 60.3702C317.937 57.9106 321.388 53.3651 322.735 47.6627C323.373 44.9612 323.432 40.8369 322.864 38.5918C321.888 34.7332 319.381 31.2454 316.438 29.6519C314.89 28.8136 311.948 27.9859 310.555 27.997C309.659 28.0041 309.632 28.0241 310.071 28.3591ZM345.604 61.0935C344.162 68.2089 340.219 75.6905 334.885 81.4353C319.144 98.3868 290.849 103.944 265.046 95.1517C262.535 94.2959 261.554 93.9109 258.115 92.4331L257.188 92.0343L258.579 93.4896C262.145 97.2186 267.15 100.903 272.209 103.521C280.662 107.896 289.237 109.993 298.705 110C307.605 110.007 314.738 108.431 322.132 104.823C327.427 102.238 331.174 99.5495 335.12 95.4999C342.705 87.7163 346.848 77.6001 346.829 66.9114C346.825 64.7626 346.306 59.4176 346.079 59.1872C346.038 59.1459 345.824 60.0039 345.604 61.0935ZM327.286 65.3373C322.967 69.4865 317.832 72.3509 311.81 73.9707C308.249 74.9288 302.688 75.1719 299.149 74.5245C293.487 73.4889 288.948 71.0953 285.528 67.3426L284.209 65.8956V66.6282C284.209 67.7678 284.889 70.5315 285.602 72.2866C288.871 80.3397 297.69 85.216 306.939 84.0835C311.455 83.5313 315.669 81.8296 319.159 79.1489C323.35 75.9292 327.154 70.5123 328.871 65.3158C329.198 64.3259 329.433 63.486 329.393 63.4486C329.354 63.4118 328.405 64.2615 327.286 65.3373Z" fill="white"/>
<path fill-rule="evenodd" clip-rule="evenodd" d="M293.849 0.223187C290.671 0.507565 286.396 1.4269 283.629 2.42117L281.31 3.25451L283.629 3.13223C286.351 2.98874 292.042 3.32731 295.348 3.82939C316.497 7.04166 332.373 20.0107 335.973 37.0161C336.699 40.443 336.7 46.6277 335.977 50.0433C335.345 53.0279 334.516 55.5803 333.354 58.1257C332.856 59.2147 332.481 60.1392 332.52 60.1788C332.709 60.3702 337.243 58.0773 339.08 56.8612C341.452 55.2932 344.556 52.3345 346.05 50.2176C348.998 46.0428 350.465 40.3407 349.87 35.3689C349.055 28.5592 345.433 21.7895 339.496 15.9735C335.3 11.8636 331.258 9.04481 325.622 6.29783C315.532 1.38049 304.497 -0.729372 293.849 0.223187ZM282.353 9.02782C263.737 11.3744 247.725 24.2238 242.082 41.3451C238.26 52.9384 239.735 64.7257 246.231 74.5069C248.254 77.5539 252.586 81.8791 255.771 84.0329C262.647 88.6821 271.07 91.1807 279.653 91.1164C282.013 91.0982 282.066 91.1571 278.408 89.7331C269.435 86.2412 261.453 78.3283 257.352 68.8617C253.05 58.9287 252.544 47.8038 255.92 37.3593C258.819 28.3917 264.648 20.5547 272.272 15.3722C277.356 11.9166 282.75 9.86283 289.196 8.92887C291.609 8.57924 285.174 8.6723 282.353 9.02782ZM293.487 17.3151C280.706 18.704 269.788 28.8563 266.297 42.5971C265.379 46.2087 265.146 51.812 265.756 55.5808C267.376 65.5919 273.595 74.1637 282.57 78.7546C283.498 79.2292 284.305 79.5686 284.365 79.5081C284.424 79.4476 284.1 78.902 283.644 78.2959C276.343 68.5796 275.549 53.8189 281.654 41.3013C286.405 31.5589 294.638 24.8071 303.934 23.0292C305.964 22.641 310.643 22.6843 312.564 23.1091C313.424 23.2997 314.13 23.4256 314.13 23.389C314.13 23.2373 310.424 20.9274 309.066 20.2331C304.618 17.9576 298.36 16.7857 293.487 17.3151ZM310.071 28.3591C314.994 32.1249 315.978 38.0694 312.576 43.5028C309.421 48.5427 303.356 51.7797 297.061 51.7841C291.643 51.7879 287.369 49.5273 285.164 45.4911L284.42 44.1286L284.566 45.4244C285.202 51.0757 288.378 56.2216 293.291 59.5601C296.764 61.9201 299.522 62.7473 303.808 62.7149C307.368 62.6885 309.651 62.1115 313.086 60.3702C317.937 57.9106 321.388 53.3651 322.735 47.6627C323.373 44.9612 323.432 40.8369 322.864 38.5918C321.888 34.7332 319.381 31.2454 316.438 29.6519C314.89 28.8136 311.948 27.9859 310.555 27.997C309.659 28.0041 309.632 28.0241 310.071 28.3591ZM345.604 61.0935C344.162 68.2089 340.219 75.6905 334.885 81.4353C319.144 98.3868 290.849 103.944 265.046 95.1517C262.535 94.2959 261.554 93.9109 258.115 92.4331L257.188 92.0343L258.579 93.4896C262.145 97.2186 267.15 100.903 272.209 103.521C280.662 107.896 289.237 109.993 298.705 110C307.605 110.007 314.738 108.431 322.132 104.823C327.427 102.238 331.174 99.5495 335.12 95.4999C342.705 87.7163 346.848 77.6001 346.829 66.9114C346.825 64.7626 346.306 59.4176 346.079 59.1872C346.038 59.1459 345.824 60.0039 345.604 61.0935ZM327.286 65.3373C322.967 69.4865 317.832 72.3509 311.81 73.9707C308.249 74.9288 302.688 75.1719 299.149 74.5245C293.487 73.4889 288.948 71.0953 285.528 67.3426L284.209 65.8956V66.6282C284.209 67.7678 284.889 70.5315 285.602 72.2866C288.871 80.3397 297.69 85.216 306.939 84.0835C311.455 83.5313 315.669 81.8296 319.159 79.1489C323.35 75.9292 327.154 70.5123 328.871 65.3158C329.198 64.3259 329.433 63.486 329.393 63.4486C329.354 63.4118 328.405 64.2615 327.286 65.3373Z" fill="#1181B2" fill-opacity="0.3"/>
</svg>
