<svg width="11" height="8" viewBox="0 0 11 8" fill="none" xmlns="http://www.w3.org/2000/svg">
<path fill-rule="evenodd" clip-rule="evenodd" d="M0.391502 0.918987C0.391502 0.642845 0.633187 0.418987 0.93132 0.418987H9.56313C9.86127 0.418987 10.103 0.642845 10.103 0.918987V6.5811C10.103 7.13338 9.61958 7.5811 9.02332 7.5811H1.46587C0.8696 7.5811 0.38623 7.13338 0.38623 6.5811V1.0811C0.38623 1.05729 0.388027 1.03387 0.391502 1.01094V0.918987ZM1.46587 2.03086V6.5811H9.02332V2.03104L6.38981 4.47029C5.75737 5.05608 4.73199 5.05608 4.09956 4.47029L1.46587 2.03086ZM2.31463 1.40281H8.17473L5.62639 3.76318C5.41558 3.95845 5.07379 3.95845 4.86297 3.76318L2.31463 1.40281Z" fill="#1181B2"/>
</svg>
