<svg width="24" height="24" viewBox="0 0 24 24" fill="none" xmlns="http://www.w3.org/2000/svg">
<path fill-rule="evenodd" clip-rule="evenodd" d="M3.48979 2.63978C3.63867 2.25424 4.00937 2 4.42266 2H19.6169C20.0301 2 20.4008 2.25418 20.5497 2.63965L22.051 6.5258L22.051 6.52582C22.6829 8.16186 22.1692 9.8696 21.0175 10.9336C21.019 10.9556 21.0197 10.9777 21.0197 11V21C21.0197 21.5523 20.572 22 20.0197 22H4.0197C3.46741 22 3.0197 21.5523 3.0197 21V11C3.0197 10.9781 3.02041 10.9563 3.0218 10.9347C1.8703 9.87108 1.35676 8.16366 1.98833 6.52808L1.98833 6.52808L3.48979 2.63978ZM5.0197 11.9341V20H19.0197V11.9338C18.7819 11.9772 18.5358 12 18.2828 12C17.0884 12 16.0115 11.4758 15.2752 10.6434C14.5422 11.4752 13.4689 12 12.273 12H11.7638C10.5681 12 9.49485 11.4753 8.76186 10.6436C8.02574 11.4758 6.94902 12 5.75464 12C5.50234 12 5.25684 11.9773 5.0197 11.9341ZM9.76384 8C9.76384 9.10457 10.6593 10 11.7638 10H12.273C13.3776 10 14.273 9.10457 14.273 8C14.273 7.44772 14.7208 7 15.273 7C15.8253 7 16.273 7.44772 16.273 8C16.273 9.10035 17.174 10 18.2828 10C19.7119 10 20.695 8.5659 20.1853 7.2465C20.1853 7.2465 20.1853 7.24649 20.1853 7.24648L18.9312 4H5.10848L3.85407 7.24852C3.85406 7.24852 3.85406 7.24852 3.85406 7.24852C3.34479 8.5674 4.32697 10 5.75464 10C6.8632 10 7.76384 9.10058 7.76384 8C7.76384 7.44772 8.21156 7 8.76384 7C9.31613 7 9.76384 7.44772 9.76384 8Z" fill="#1181B2"/>
</svg>
