<?xml version="1.0" standalone="no"?>
<!DOCTYPE svg PUBLIC "-//W3C//DTD SVG 20010904//EN"
 "http://www.w3.org/TR/2001/REC-SVG-20010904/DTD/svg10.dtd">
<svg version="1.0" xmlns="http://www.w3.org/2000/svg"
 width="1024.000000pt" height="1024.000000pt" viewBox="0 0 1024.000000 1024.000000"
 preserveAspectRatio="xMidYMid meet">

<g transform="translate(0.000000,1024.000000) scale(0.100000,-0.100000)"
fill="#ffffff" stroke="none">
<path d="M5063 9524 c-12 -3 -27 -11 -33 -19 -14 -17 -26 -404 -15 -538 9
-126 12 -129 123 -125 81 3 87 5 99 28 10 19 13 95 11 322 -3 253 -5 300 -19
313 -16 16 -124 28 -166 19z"/>
<path d="M5075 8292 c-16 -10 -36 -26 -43 -34 -13 -17 -85 -290 -187 -718
-208 -868 -350 -1676 -325 -1850 13 -93 20 -110 111 -286 49 -94 89 -183 89
-198 0 -15 -11 -37 -25 -51 l-24 -25 -220 0 c-121 0 -226 3 -235 6 -24 9 -20
43 14 118 89 195 95 451 15 661 -96 255 -305 419 -584 456 -162 22 -375 -22
-521 -107 -82 -47 -203 -170 -253 -254 -73 -125 -113 -302 -104 -452 8 -120
31 -207 85 -318 38 -79 61 -110 132 -181 95 -96 184 -152 315 -196 l80 -28
713 -5 c619 -4 714 -7 722 -20 5 -8 10 -73 10 -145 0 -423 23 -1326 35 -1393
36 -192 190 -383 380 -473 109 -52 205 -71 360 -71 158 -1 239 14 341 63 183
87 348 289 399 489 9 36 19 121 22 190 7 163 -11 259 -74 389 -38 80 -59 108
-137 186 -102 103 -189 159 -311 202 -72 24 -94 27 -220 28 -154 0 -202 -11
-354 -81 -79 -36 -105 -37 -115 -1 -11 40 -7 407 5 429 6 11 27 26 46 34 35
15 36 15 117 -32 44 -26 105 -64 134 -85 77 -54 138 -66 266 -50 101 12 751
113 986 152 654 110 1360 297 1513 402 33 22 50 61 41 90 -6 20 -8 20 -873 14
-476 -4 -1161 -10 -1521 -13 -580 -6 -657 -5 -675 9 -20 15 -20 30 -25 1589
l-5 1573 -35 3 c-21 1 -47 -5 -65 -16z m-1363 -2295 c163 -80 258 -232 258
-412 0 -296 -287 -524 -549 -435 -167 56 -279 189 -311 369 -28 156 49 340
183 438 126 93 283 108 419 40z m1341 -901 c49 -21 79 -59 84 -108 4 -37 1
-49 -22 -76 -53 -63 -122 -79 -183 -42 -38 24 -72 75 -72 111 0 56 77 129 138
129 12 0 37 -6 55 -14z m673 -1170 c133 -35 249 -132 308 -256 29 -60 31 -73
31 -175 0 -103 -2 -114 -32 -178 -101 -212 -347 -316 -565 -239 -203 72 -337
287 -300 484 48 257 312 430 558 364z"/>
<path d="M7878 8082 c-158 -158 -218 -224 -218 -241 0 -30 95 -128 133 -137
26 -6 43 8 248 212 256 255 251 245 166 331 -85 84 -76 89 -329 -165z"/>
<path d="M2080 8261 c-47 -25 -104 -104 -96 -134 9 -35 428 -447 455 -447 26
0 103 50 126 82 8 13 15 38 15 57 0 33 -17 52 -213 248 -134 135 -220 213
-232 213 -11 0 -36 -8 -55 -19z"/>
<path d="M787 5192 c-13 -14 -17 -38 -17 -100 0 -118 -19 -112 341 -112 354 0
338 -5 347 108 4 56 1 77 -12 97 l-16 25 -314 0 c-290 0 -314 -1 -329 -18z"/>
<path d="M8800 5195 c-7 -9 -15 -49 -18 -90 -4 -69 -3 -75 21 -99 l26 -26 301
0 c358 0 340 -6 340 116 0 124 30 114 -339 114 -274 0 -320 -2 -331 -15z"/>
<path d="M2223 2327 c-250 -250 -247 -243 -160 -332 84 -87 75 -91 324 157
199 199 213 215 213 249 0 31 -8 44 -54 88 -39 36 -63 51 -82 51 -23 0 -67
-39 -241 -213z"/>
<path d="M7713 2487 c-84 -85 -88 -75 160 -324 235 -236 236 -237 309 -187 44
31 78 81 78 115 0 17 -58 81 -212 236 -251 252 -245 249 -335 160z"/>
<path d="M5034 1386 c-18 -14 -19 -29 -19 -325 0 -369 -8 -346 115 -346 123 0
115 -23 115 346 0 296 -1 311 -19 325 -27 19 -165 19 -192 0z"/>
</g>
</svg>
